<svg width="150" height="150" viewBox="0 0 150 150" fill="none" xmlns="http://www.w3.org/2000/svg">
<path fill-rule="evenodd" clip-rule="evenodd" d="M42.8343 47C48.8953 47 54.5029 48.9381 59.0735 52.2269C63.6181 49.0005 69.1727 47.1033 75.1704 47.1033C81.1243 47.1033 86.6416 48.9735 91.1676 52.158C95.6935 48.9735 101.211 47.1033 107.165 47.1033C122.537 47.1033 135 59.565 135 74.9376C135 90.3102 122.537 102.773 107.165 102.773C101.211 102.773 95.6935 100.902 91.1676 97.7173C86.6416 100.902 81.1243 102.773 75.1704 102.773C69.1094 102.773 63.5018 100.835 58.9311 97.546C54.3866 100.772 48.832 102.67 42.8343 102.67C27.4617 102.67 15 90.2069 15 74.8343C15 59.4617 27.4617 47 42.8343 47ZM93.0991 53.6484C99.1564 58.7543 103.005 66.3959 103.005 74.9376C103.005 83.4794 99.1564 91.121 93.0991 96.2269C97.1317 98.8967 101.967 100.453 107.165 100.453C121.256 100.453 132.68 89.0293 132.68 74.9376C132.68 60.8459 121.256 49.4222 107.165 49.4222C101.967 49.4222 97.1317 50.9786 93.0991 53.6484ZM90.1808 96.9902C83.5818 91.9002 79.3305 83.916 79.3305 74.9376C79.3305 65.9593 83.5818 57.9751 90.1808 52.886C85.9044 49.9686 80.737 48.2632 75.1704 48.2632C69.5553 48.2632 64.3479 49.9984 60.05 52.9614C66.5169 58.058 70.6695 65.9611 70.6695 74.8343C70.6695 83.7717 66.4564 91.7242 59.9095 96.8171C64.2334 99.8387 69.4938 101.613 75.1704 101.613C80.737 101.613 85.9044 99.9067 90.1808 96.9902ZM92.1143 95.5409C85.7703 90.8995 81.6493 83.4003 81.6493 74.9376C81.6493 66.475 85.7703 58.9767 92.1143 54.3344C98.0561 59.2271 101.845 66.6397 101.845 74.9376C101.845 83.2355 98.0561 90.6491 92.1143 95.5409Z" fill="white"/>
</svg>
