<svg width="63" height="60" viewBox="0 0 63 60" fill="none" xmlns="http://www.w3.org/2000/svg">
<g clip-path="url(#clip0)">
<path d="M51.959 20.8933L51.9376 19.9952V3.0123L47.2426 7.70754C43.4004 3.00418 37.5548 0 31.0075 0C24.1935 0 18.1402 3.2523 14.3115 8.28689L22.007 16.0633C22.7636 14.6705 23.8347 13.4754 25.1267 12.5656C26.4703 11.517 28.3738 10.6598 31.0072 10.6598C31.3254 10.6598 31.5708 10.6967 31.7513 10.767C35.0139 11.0245 37.8423 12.8252 39.507 15.4387L34.0574 20.8884L51.9561 20.8918" fill="#1C3AA9"/>
<path d="M30.8852 0.000732422L29.987 0.0245849H13.0045L17.6995 4.71958C12.9959 8.55737 9.99172 14.4049 9.99172 20.9525C9.99172 27.764 13.244 33.8196 18.2786 37.6463L26.055 29.9508C24.663 29.1973 23.4656 28.13 22.5575 26.8335C21.5093 25.4899 20.6518 23.5864 20.6518 20.953C20.6518 20.6348 20.6887 20.3894 20.759 20.2089C21.0165 16.9463 22.8172 14.1179 25.4307 12.4532L30.8779 17.9004L30.8813 0.00171603" fill="#4285F4"/>
<path d="M9.99247 20.9519L10.0139 21.8499V38.8324L14.7089 34.1374C18.5513 38.8408 24.3969 41.8449 30.9443 41.8449C37.7557 41.8449 43.8113 38.5926 47.638 33.5581L39.9426 25.7817C39.189 27.1737 38.1218 28.3711 36.8253 29.2791C35.4817 30.3276 33.5781 31.1849 30.9448 31.1849C30.6266 31.1849 30.3812 31.148 30.2007 31.0776C26.938 30.8202 24.1097 29.0194 22.4449 26.406L27.8921 20.9588C20.9921 20.9834 13.198 21.0018 9.99345 20.9553" fill="#ABABAB"/>
<path d="M13.5278 49.9593C13.0175 49.9593 12.5599 50.0561 12.1552 50.2494C11.7535 50.4361 11.4009 50.7141 11.1256 51.0611C10.8484 51.4128 10.635 51.8399 10.4855 52.3413C10.338 52.8385 10.2676 53.395 10.2676 54.0134V55.7888C10.2676 56.4093 10.3402 56.9679 10.4855 57.4652C10.635 57.9624 10.8462 58.3868 11.1189 58.7389C11.3916 59.0911 11.7214 59.3615 12.1089 59.5504C12.4965 59.7392 12.9317 59.8342 13.4157 59.8342C13.9129 59.8342 14.3484 59.7616 14.7224 59.6163C15.1011 59.4688 15.4175 59.2622 15.6728 58.9892C15.928 58.7121 16.1238 58.3777 16.263 57.986C16.4039 57.5945 16.4872 57.1499 16.5138 56.6532H15.2902C15.2594 57.0361 15.2066 57.3663 15.1318 57.6368C15.057 57.9073 14.9474 58.1274 14.8018 58.3007C14.6609 58.4724 14.4762 58.6 14.2475 58.6836C14.0233 58.7628 13.7459 58.8024 13.4164 58.8024C13.0648 58.8024 12.7652 58.7254 12.5189 58.5712C12.2725 58.4129 12.0723 58.1974 11.9184 57.9245C11.7689 57.654 11.6587 57.3329 11.5884 56.9655C11.5225 56.6003 11.4893 56.2066 11.4893 55.7842V53.9957C11.4893 53.5425 11.5286 53.1311 11.608 52.7613C11.6916 52.3917 11.817 52.0772 11.9843 51.8175C12.1515 51.5579 12.363 51.3577 12.6177 51.217C12.873 51.0695 13.1764 50.9992 13.5285 50.9992C13.8236 50.9992 14.0761 51.0434 14.2874 51.1312C14.4989 51.2148 14.6744 51.3469 14.8153 51.5247C14.9562 51.7007 15.0612 51.925 15.1387 52.1977C15.2161 52.4704 15.2616 52.796 15.2904 53.1744H16.5113C16.4867 52.658 16.408 52.1957 16.2671 51.7974C16.1262 51.399 15.9302 51.0604 15.677 50.7877C15.4237 50.515 15.1205 50.3082 14.7598 50.1673C14.4032 50.0264 13.992 49.9558 13.5253 49.9558L13.5278 49.9593ZM43.3311 49.9593C42.8208 49.9593 42.3632 50.0561 41.9584 50.2494C41.5567 50.4361 41.2042 50.7141 40.9289 51.0611C40.6517 51.4128 40.4383 51.8399 40.2888 52.3413C40.1412 52.8385 40.0709 53.395 40.0709 54.0134V55.7888C40.0709 56.4093 40.1434 56.9679 40.2888 57.4652C40.4383 57.9624 40.6495 58.3868 40.9222 58.7389C41.1949 59.0911 41.5247 59.3615 41.9122 59.5504C42.2998 59.7392 42.735 59.8342 43.2189 59.8342C43.7161 59.8342 44.1516 59.7616 44.5257 59.6163C44.9043 59.4688 45.2208 59.2622 45.4761 58.9892C45.7313 58.7121 45.9271 58.3777 46.0662 57.986C46.2071 57.5945 46.2905 57.1499 46.3171 56.6532H45.0961C45.0654 57.0361 45.0125 57.3663 44.9378 57.6368C44.863 57.9073 44.7534 58.1274 44.6078 58.3007C44.4669 58.4724 44.2822 58.6 44.0535 58.6836C43.8293 58.7628 43.5519 58.8024 43.2224 58.8024C42.8707 58.8024 42.5712 58.7254 42.3248 58.5712C42.0784 58.4129 41.8783 58.1974 41.7243 57.9245C41.5748 57.654 41.4647 57.3329 41.3943 56.9655C41.3284 56.6003 41.2952 56.2066 41.2952 55.7842V53.9957C41.2952 53.5425 41.3346 53.1311 41.414 52.7613C41.4976 52.3917 41.623 52.0772 41.7902 51.8175C41.9575 51.5579 42.1689 51.3577 42.4237 51.217C42.6789 51.0695 42.9824 50.9992 43.3345 50.9992C43.6296 50.9992 43.8821 51.0434 44.0934 51.1312C44.3048 51.2148 44.4804 51.3469 44.6213 51.5247C44.7622 51.7007 44.8672 51.925 44.9447 52.1977C45.0221 52.4704 45.0676 52.796 45.0964 53.1744H46.3173C46.2927 52.658 46.214 52.1957 46.0731 51.7974C45.9322 51.399 45.7362 51.0604 45.483 50.7877C45.2297 50.515 44.9265 50.3082 44.5657 50.1673C44.2092 50.0264 43.798 49.9558 43.3313 49.9558L43.3311 49.9593ZM20.4868 50.0913L17.3889 59.6999H18.6295L19.3753 57.1922H22.6222L23.3811 59.6999H24.6216L21.5198 50.0913H20.4868ZM25.9311 50.0913V59.6999H27.136V55.9383H28.9901C29.4524 55.9383 29.8613 55.8744 30.2176 55.747C30.5742 55.615 30.8732 55.4259 31.1152 55.1795C31.3616 54.9331 31.5462 54.6297 31.6694 54.2687C31.7973 53.9035 31.8607 53.4899 31.8607 53.0281C31.8607 52.6012 31.7968 52.2097 31.6694 51.8534C31.5465 51.4927 31.3638 51.1826 31.1218 50.9229C30.8798 50.6591 30.5808 50.4545 30.2176 50.3092C29.8611 50.1616 29.4521 50.0913 28.9901 50.0913H25.9311ZM32.7878 50.0913V51.1339H35.3088V59.6999H36.5137V51.1339H39.0416V50.0913H32.7878ZM47.9466 50.0913V59.6999H49.1516V55.2584H53.0164V59.6999H54.2307V50.0913H53.0164V54.2224H49.1491V50.0913H47.9466ZM58.8155 50.0913L55.7203 59.6999H56.9609L57.7067 57.1922H60.9536L61.7125 59.6999H62.9508L59.849 50.0913H58.8155ZM27.1384 51.1339H28.9925C29.2876 51.1339 29.538 51.1868 29.745 51.2923C29.9474 51.3907 30.1237 51.5354 30.2597 51.7147C30.3961 51.8908 30.495 52.0954 30.5567 52.3285C30.6226 52.5572 30.6558 52.795 30.6558 53.0416C30.6558 53.3121 30.6229 53.5654 30.5567 53.7941C30.4952 54.0183 30.3961 54.2121 30.2597 54.3842C30.1276 54.547 29.956 54.6744 29.745 54.7671C29.5384 54.8596 29.2876 54.9058 28.9925 54.9058H27.1384V51.1339ZM21.0012 51.7806L22.3143 56.1493H19.6918L21.0012 51.7806ZM59.3299 51.7806L60.643 56.1493H58.0205L59.3299 51.7806ZM2.48361 52.4274C2.17992 52.4274 1.91803 52.5043 1.6982 52.6585C1.48254 52.8124 1.30475 53.0215 1.15721 53.2856L1.13754 52.5597H0V59.7002H1.16803V54.592C1.27795 54.2883 1.4341 54.0511 1.63648 53.8728C1.84303 53.6967 2.10492 53.6089 2.42189 53.6089L2.69238 53.6222C2.77882 53.6276 2.86482 53.6386 2.94984 53.6552L2.9432 52.5201C2.92549 52.5112 2.89697 52.5024 2.85713 52.4938C2.8185 52.4796 2.77878 52.4686 2.73836 52.4608C2.6941 52.452 2.64811 52.4453 2.59967 52.4411C2.55541 52.4323 2.51607 52.4279 2.4809 52.4279L2.48361 52.4274ZM6.41016 52.4274C6.07422 52.4269 5.74097 52.4873 5.42656 52.6056C5.10689 52.7244 4.82828 52.9204 4.58189 53.1958C4.33992 53.4663 4.14418 53.8162 3.99172 54.2517C3.84221 54.6828 3.76746 55.2107 3.76746 55.8422V56.6473C3.76746 57.1927 3.83139 57.6658 3.95877 58.0661C4.08615 58.4665 4.26861 58.7989 4.50639 59.0628C4.74836 59.3224 5.04098 59.516 5.38426 59.6436C5.72754 59.7712 6.11213 59.8349 6.53926 59.8349C6.84713 59.8349 7.12205 59.8042 7.36426 59.7424C7.61066 59.681 7.82852 59.6015 8.01762 59.5049C8.20697 59.4036 8.36926 59.2893 8.50598 59.1616C8.6427 59.034 8.75926 58.902 8.85566 58.7682L8.24828 58.029C8.15139 58.1478 8.04811 58.2577 7.93844 58.359C7.82853 58.4559 7.70729 58.5417 7.57549 58.6165C7.43725 58.688 7.2912 58.7433 7.14025 58.7812C6.98213 58.823 6.80336 58.8407 6.60566 58.8407C6.06467 58.8407 5.64664 58.6669 5.35844 58.3194C5.07246 57.972 4.92959 57.4152 4.92959 56.6473V56.4825H8.9132V55.8029C8.9132 55.2574 8.86697 54.7755 8.77451 54.3574C8.68205 53.9394 8.53475 53.5878 8.33238 53.3015C8.13547 53.02 7.86649 52.7967 7.55361 52.6548C7.23689 52.5053 6.85402 52.4306 6.40525 52.4306L6.41016 52.4274ZM6.41016 53.4306C6.66541 53.4306 6.87664 53.4769 7.04361 53.5693C7.20901 53.66 7.34605 53.7947 7.43951 53.9586C7.54082 54.1258 7.61336 54.326 7.65738 54.5591C7.70582 54.7878 7.73656 55.0411 7.74984 55.3179V55.4763H4.93623C4.95393 55.076 5.00213 54.7435 5.08377 54.4797C5.16541 54.2158 5.26648 54.0068 5.39361 53.8526C5.52566 53.6943 5.67738 53.5821 5.84902 53.5226C6.02066 53.4631 6.20754 53.4302 6.40967 53.4302L6.41016 53.4306Z" fill="#A6A6A6"/>
</g>
<defs>
<clipPath id="clip0">
<rect width="62.9508" height="60" fill="white"/>
</clipPath>
</defs>
</svg>
