<svg width="150" height="150" viewBox="0 0 150 150" fill="none" xmlns="http://www.w3.org/2000/svg">
<path d="M116.25 102.5V107.083C116.25 112.125 112.125 116.25 107.083 116.25H42.9167C37.8292 116.25 33.75 112.125 33.75 107.083V42.9167C33.75 37.875 37.8292 33.75 42.9167 33.75H107.083C112.125 33.75 116.25 37.875 116.25 42.9167V47.5H75C69.9125 47.5 65.8333 51.625 65.8333 56.6667V93.3333C65.8333 98.375 69.9125 102.5 75 102.5H116.25ZM75 93.3333H120.833V56.6667H75V93.3333ZM93.3333 81.875C89.5292 81.875 86.4583 78.8042 86.4583 75C86.4583 71.1958 89.5292 68.125 93.3333 68.125C97.1375 68.125 100.208 71.1958 100.208 75C100.208 78.8042 97.1375 81.875 93.3333 81.875Z" fill="white"/>
</svg>
