<svg width="17" height="19" viewBox="0 0 17 19" fill="none" xmlns="http://www.w3.org/2000/svg">
<path d="M2.28215 16.4246C0.132549 14.275 0.132549 10.796 2.28215 8.64644L9.70677 1.22181C11.2695 -0.340891 13.8009 -0.340892 15.3636 1.22181C16.9263 2.78452 16.9263 5.31596 15.3636 6.87867L9.35322 12.8891C8.37741 13.8649 6.79349 13.8649 5.81769 12.8891C4.84188 11.9133 4.84188 10.3293 5.81769 9.35354L11.121 4.05024L12.5352 5.46445L7.16826 10.8314C6.77935 11.2203 7.48646 11.9274 7.87537 11.5385L13.9494 5.46445C14.7272 4.68664 14.7272 3.41385 13.9494 2.63603C13.1716 1.85821 11.8988 1.85821 11.121 2.63603L3.69637 10.0606C2.33165 11.4254 2.33165 13.6457 3.69637 15.0104C5.06108 16.3751 7.2814 16.3751 8.64611 15.0104L15.3636 8.29288L16.7778 9.7071L10.0603 16.4246C7.91072 18.5742 4.43176 18.5742 2.28215 16.4246Z" fill="white"/>
</svg>
