<svg width="15" height="16" viewBox="0 0 15 16" fill="none" xmlns="http://www.w3.org/2000/svg">
<path fill-rule="evenodd" clip-rule="evenodd" d="M1.36384 1.63603C0.192271 2.80761 0.192271 4.7071 1.36384 5.87868L3.48515 7.99999L1.36383 10.1213C0.192257 11.2929 0.192257 13.1924 1.36383 14.364C2.5354 15.5355 4.4349 15.5355 5.60647 14.364L7.7278 12.2426L9.84912 14.364C11.0207 15.5355 12.9202 15.5355 14.0918 14.364C15.2633 13.1924 15.2633 11.2929 14.0918 10.1213L11.9704 7.99999L14.0918 5.87867C15.2633 4.7071 15.2633 2.8076 14.0918 1.63603C12.9202 0.464457 11.0207 0.464457 9.84911 1.63603L7.7278 3.75734L5.60648 1.63603C4.43491 0.464461 2.53542 0.464461 1.36384 1.63603Z" fill="white"/>
</svg>
