<svg width="150" height="150" viewBox="0 0 150 150" fill="none" xmlns="http://www.w3.org/2000/svg">
<path fill-rule="evenodd" clip-rule="evenodd" d="M37.5 15H112.5C116.625 15 120 18.375 120 22.5V127.5C120 131.625 116.625 135 112.5 135H37.5C33.375 135 30 131.625 30 127.5V22.5C30 18.375 33.375 15 37.5 15ZM39 19.5H111C113.475 19.5 115.5 21.525 115.5 24V126C115.5 128.475 113.475 130.5 111 130.5H39C36.525 130.5 34.5 128.475 34.5 126V24C34.5 21.525 36.525 19.5 39 19.5Z" fill="white"/>
<path d="M102.495 72.75H47.505C46.1215 72.75 45 73.7574 45 75C45 76.2426 46.1215 77.25 47.505 77.25H102.495C103.878 77.25 105 76.2426 105 75C105 73.7574 103.878 72.75 102.495 72.75Z" fill="white"/>
<path d="M102.495 87.75H47.505C46.1215 87.75 45 88.7574 45 90C45 91.2426 46.1215 92.25 47.505 92.25H102.495C103.878 92.25 105 91.2426 105 90C105 88.7574 103.878 87.75 102.495 87.75Z" fill="white"/>
<path d="M102.495 57.75H47.505C46.1215 57.75 45 58.7574 45 60C45 61.2426 46.1215 62.25 47.505 62.25H102.495C103.878 62.25 105 61.2426 105 60C105 58.7574 103.878 57.75 102.495 57.75Z" fill="white"/>
<path d="M102.495 42.75H47.505C46.1215 42.75 45 43.7574 45 45C45 46.2426 46.1215 47.25 47.505 47.25H102.495C103.878 47.25 105 46.2426 105 45C105 43.7574 103.878 42.75 102.495 42.75Z" fill="white"/>
<path d="M96 118.95C100.971 118.95 105 114.921 105 109.95C105 104.979 100.971 100.95 96 100.95C91.0294 100.95 87 104.979 87 109.95C87 114.921 91.0294 118.95 96 118.95Z" fill="white"/>
<path fill-rule="evenodd" clip-rule="evenodd" d="M64.2598 116.475C67.3648 114.735 69.7648 103.725 71.0098 109.26C71.8198 112.77 74.8498 93.105 78.9448 107.235C80.1298 111.315 82.5598 111.96 79.3948 112.245C74.5948 112.68 78.1798 101.475 74.8198 110.97C73.0948 115.845 71.4298 108.435 70.1998 113.52C69.7198 115.5 64.2598 116.475 64.2598 116.475Z" fill="white"/>
</svg>
