<svg width="150" height="150" viewBox="0 0 150 150" fill="none" xmlns="http://www.w3.org/2000/svg">
<path fill-rule="evenodd" clip-rule="evenodd" d="M122.223 67.3448C121.613 67.8678 121.004 68.2996 120.399 68.8338C116.296 71.9644 109.757 74.5048 100.786 76.87C82.1393 81.927 68.6151 82.6154 53.2723 86.3882C50.2272 87.1677 47.0898 88.1266 44.2211 89.3492C47.0898 90.8381 50.2272 92.1448 53.3661 93.3715C59.6367 91.5419 62.6132 90.7526 71.6643 89.2679C75.1518 88.644 85.7863 86.7275 93.4556 85.1713C107.323 82.1892 127.629 75.726 122.223 67.3448ZM113.25 49.8759C110.274 48.5735 106.614 47.2556 102.704 46.2167C100.947 47.6145 98.9563 48.83 95.9784 49.9783C100.873 50.8363 104.534 52.2341 108.705 53.3767C109.403 53.7286 112.714 50.6821 113.25 49.8759ZM45.3481 68.4805C63.4798 63.1501 82.4823 61.4971 101.745 56.3476C94.2494 54.3413 90.0522 53.4608 82.1393 54.4268C70.6269 55.8246 57.9007 58.2571 47.0114 61.4957C42.7315 62.8094 20.3368 69.1786 26.7951 78.0841C26.7937 78.1753 30.6157 72.7664 45.3481 68.4805ZM32.8838 99.0384C32.7956 100.704 33.8484 102.186 36.0282 104.022C36.2844 103.141 36.7268 102.454 37.3372 101.579C35.849 100.782 34.365 100.004 32.8838 99.0384ZM41.3441 98.2645C42.7315 97.384 44.3821 96.5947 46.2134 95.8993C43.6905 94.7581 40.9899 93.6379 38.3732 92.4112C37.1524 93.1963 36.0268 93.98 35.156 94.7581C37.242 95.9862 39.2539 97.1177 41.3441 98.2645ZM110.973 59.6675C107.324 61.413 102.095 63.1515 94.598 64.9923C88.4099 66.5597 73.4171 68.7426 57.2973 72.2322C52.2404 73.3692 38.3747 76.5952 31.5762 82.3588C33.4942 83.9445 34.7136 84.2852 36.8052 85.5077C39.5941 83.6711 43.4301 81.927 49.103 80.4325C58.9395 77.8248 66.3568 76.6934 75.2526 75.2157C84.0517 73.8852 100.692 70.4012 109.846 67.0771C112.902 66.0368 115.685 64.639 117.686 62.9678C117.073 62.2808 111.148 59.3997 110.973 59.6675ZM116.296 56.4275C118.12 57.3037 119.789 57.9164 121.351 59.0534C122.478 56.8649 121.779 55.4671 119.439 53.4623C118.475 54.6035 117.423 55.5582 116.296 56.4275ZM32.0172 89.1725C30.3539 88.3089 29.3109 87.6093 27.9137 86.7289C27.2151 88.3089 28.6235 90.0418 30.0109 90.8381C30.6157 90.2241 31.4082 89.7011 32.0172 89.1725ZM109.055 39.0609C108.705 40.2835 107.412 41.7668 106.532 42.7328C109.237 43.4324 112.025 44.4657 114.634 45.4316C114.289 42.9879 111.5 40.6298 109.055 39.0609ZM23.8172 54.5011C42.8197 42.1075 63.8284 34.7764 99.3847 40.9817C101.303 39.839 102.431 38.7034 102.966 36.435C94.0674 33.2076 84.4003 32.0705 71.9415 32.2402C60.7764 32.5921 40.6413 36.7757 29.8457 43.1632L33.1456 39.0595C40.6413 34.5928 60.2485 28.7506 74.9865 28.4843C85.3509 28.2291 90.6682 28.8319 103.049 32.1505C101.909 30.0699 99.3861 29.0128 95.6368 27.2687C83.7031 21.9383 61.475 21.4098 43.2635 29.5302C45.5218 27.9613 47.7898 26.5579 50.7606 25.2681C56.7625 22.4669 66.6186 19.7554 78.9024 20.0176C88.7599 20.1928 100.439 23.5983 107.58 30.6728C108.794 32.1505 109.498 33.6338 109.759 34.7764C115.426 37.6575 118.732 40.362 120.561 43.5052C121.352 45.1652 121.614 46.9093 121.26 48.9156C123.612 50.3078 124.753 51.5359 125.979 53.1216C126.751 54.4282 127.361 55.9003 127.543 57.2308C127.798 58.9637 127.972 60.9756 126.142 63.3351C128.06 64.3011 129.624 66.9943 129.811 68.1426C130.765 72.4046 127.973 76.598 124.406 79.838C120.216 83.4972 110.977 87.8687 103.48 89.795C88.6731 93.5412 75.506 95.1212 65.0576 97.0419C69.7589 98.1734 76.1206 99.6665 86.4947 99.6665C108.709 99.6665 128.32 89.1768 128.32 89.1768C128.32 89.1768 127.892 90.5002 127.449 91.7228C113.33 100.275 90.9398 103.849 81.344 103.413C71.6685 102.97 63.4826 101.492 55.4633 99.0426C53.0203 99.7464 50.58 100.536 48.2336 101.492C60.4375 107.077 69.6707 108.304 80.0448 109.084C90.671 109.879 108.286 107.334 123.091 101.934C122.394 102.639 122.047 103.679 121.355 104.293C113.766 108.304 97.7397 112.324 89.6321 112.67C81.6058 113.022 71.8505 112.67 63.3062 111.096C55.9855 109.618 49.964 107.334 43.6933 104.555C42.5677 105.413 42.0455 106.476 41.7753 107.697C66.277 120.53 89.1015 120.79 115.171 112.67L112.805 114.943C84.1329 126.645 61.7368 122.098 44.3863 113.722C43.7815 113.455 43.0843 113.187 42.5677 112.841C44.2253 115.642 57.4611 125.331 72.2789 126.553C82.4851 127.427 94.9438 125.678 102.353 122.718L98.0001 124.98C94.4188 126.729 84.9253 130.753 71.6685 129.877C53.9807 128.65 44.0377 120.79 39.5969 116.694C37.4996 114.76 36.5518 112.585 35.9358 109.88C31.9262 107.783 29.3991 105.594 27.3131 102.276C26.0923 100.446 26.3485 98.2701 26.6103 96.4223L27.1465 94.866C25.2229 93.457 23.2166 91.9738 22.434 90.5017C20.684 87.3542 21.741 84.6371 22.9562 82.5453C21.9034 81.3242 20.9444 80.1016 20.5216 78.8805C19.9994 77.4827 19.9112 76.0723 20.0736 74.5105C20.4222 71.8957 21.8236 69.4535 23.6548 67.3505C27.4825 62.9005 33.5978 59.4053 43.9565 56.0013C54.1627 52.5916 58.2605 52.0631 65.9298 50.312C74.9025 48.2272 85.6239 47.5332 94.6022 44.3899C69.5783 40.0255 43.6163 44.038 22.4354 58.609L23.8172 54.5011Z" fill="white"/>
</svg>
