<svg width="28" height="30" viewBox="0 0 28 30" fill="none" xmlns="http://www.w3.org/2000/svg">
<path d="M24.71 16.404C24.764 15.954 24.8 15.486 24.8 15C24.8 14.514 24.764 14.046 24.692 13.596L27.734 11.22C28.004 11.004 28.076 10.608 27.914 10.302L25.034 5.31598C24.854 4.99198 24.476 4.88398 24.152 4.99198L20.57 6.43198C19.814 5.85598 19.022 5.38798 18.14 5.02798L17.6 1.21198C17.546 0.851975 17.24 0.599976 16.88 0.599976H11.12C10.76 0.599976 10.472 0.851975 10.418 1.21198L9.87798 5.02798C8.99598 5.38798 8.18598 5.87398 7.44798 6.43198L3.86598 4.99198C3.54198 4.86598 3.16398 4.99198 2.98398 5.31598L0.103977 10.302C-0.0760232 10.626 -0.00402294 11.004 0.283977 11.22L3.32598 13.596C3.25398 14.046 3.19998 14.532 3.19998 15C3.19998 15.468 3.23598 15.954 3.30798 16.404L0.265977 18.78C-0.00402337 18.996 -0.0760232 19.392 0.0859768 19.698L2.96598 24.684C3.14598 25.008 3.52398 25.116 3.84798 25.008L7.42998 23.568C8.18598 24.144 8.97798 24.612 9.85998 24.972L10.4 28.788C10.472 29.148 10.76 29.4 11.12 29.4H16.88C17.24 29.4 17.546 29.148 17.582 28.788L18.122 24.972C19.004 24.612 19.814 24.126 20.552 23.568L24.134 25.008C24.458 25.134 24.836 25.008 25.016 24.684L27.896 19.698C28.076 19.374 28.004 18.996 27.716 18.78L24.71 16.404ZM14 20.4C11.03 20.4 8.59998 17.97 8.59998 15C8.59998 12.03 11.03 9.59998 14 9.59998C16.97 9.59998 19.4 12.03 19.4 15C19.4 17.97 16.97 20.4 14 20.4Z" fill="white"/>
</svg>
