<svg width="48" height="43" viewBox="0 0 48 43" fill="none" xmlns="http://www.w3.org/2000/svg">
<path fill-rule="evenodd" clip-rule="evenodd" d="M25.7683 1.39792L30.1161 13.8907C30.3794 14.6516 31.1288 15.2591 31.9587 15.1411C37.5608 14.4569 41.4875 12.9823 45.3368 10.9385C46.08 10.5433 47.0059 10.9385 47.5107 11.5844C48.0186 12.2332 47.8885 13.003 47.5169 13.7255C45.0581 18.5268 40.9548 22.5967 35.8049 26.0531C35.105 26.525 34.8232 27.3331 35.0926 28.0998L39.4715 40.5218C39.7409 41.2827 39.4684 42.0819 38.7778 42.5538C38.0903 43.0286 37.1923 43.0316 36.5017 42.5627L25.0622 34.821C24.3716 34.3551 23.4828 34.3551 22.7954 34.821L11.3559 42.5627C10.6622 43.0316 9.76723 43.0286 9.07665 42.5538C8.38917 42.0819 8.11665 41.2827 8.38297 40.5218L12.7618 28.0998C13.0343 27.3331 12.7525 26.525 12.0527 26.0531L0.656524 18.4059C-0.0371536 17.9399 -0.31896 17.1377 -0.058831 16.3739C0.204395 15.613 0.932137 15.1146 1.78994 15.1175L15.8957 15.1411C16.7505 15.1441 17.4751 14.6516 17.7414 13.8907L22.0862 1.39792C22.3525 0.639975 23.0772 0.147461 23.9288 0.147461C24.7804 0.147461 25.505 0.639975 25.7683 1.39792Z" fill="#FF6600"/>
</svg>
