<svg width="150" height="150" viewBox="0 0 150 150" fill="none" xmlns="http://www.w3.org/2000/svg">
<path fill-rule="evenodd" clip-rule="evenodd" d="M79.0059 30.734L88.0641 58.0479C88.6125 59.7115 90.1738 61.0398 91.9028 60.7819C103.574 59.2859 111.755 56.0619 119.774 51.5934C121.322 50.7294 123.251 51.5934 124.303 53.0055C125.361 54.4241 125.09 56.1071 124.316 57.6868C119.193 68.1843 110.645 77.0826 99.9158 84.6397C98.4577 85.6714 97.8706 87.4381 98.4319 89.1146L107.555 116.274C108.116 117.937 107.548 119.685 106.109 120.717C104.677 121.755 102.806 121.761 101.367 120.736L77.5349 103.81C76.0962 102.791 74.2446 102.791 72.8123 103.81L48.9799 120.736C47.5347 121.761 45.6702 121.755 44.2314 120.717C42.7992 119.685 42.2314 117.937 42.7863 116.274L51.9089 89.1146C52.4767 87.4381 51.8896 85.6714 50.4315 84.6397L26.6894 67.9199C25.2442 66.9011 24.6571 65.1472 25.199 63.4772C25.7474 61.8136 27.2635 60.7239 29.0507 60.7303L58.438 60.7819C60.2187 60.7883 61.7284 59.7115 62.2832 58.0479L71.3349 30.734C71.8897 29.0768 73.3994 28 75.1736 28C76.9478 28 78.4575 29.0768 79.0059 30.734Z" fill="white"/>
</svg>
