<svg width="56" height="56" viewBox="0 0 56 56" fill="none" xmlns="http://www.w3.org/2000/svg">
<path d="M28.5 50C40.9264 50 51 39.9264 51 27.5C51 15.0736 40.9264 5 28.5 5C16.0736 5 6 15.0736 6 27.5C6 39.9264 16.0736 50 28.5 50Z" fill="white"/>
<path d="M28.5 30.4531L41.9297 18.957C41.7187 18.8164 41.4375 18.7109 41.1562 18.7109H15.8438C15.5625 18.7109 15.2812 18.8164 15.0703 18.957L28.5 30.4531Z" fill="#055A85"/>
<path d="M29.4141 31.5078C28.8867 31.9648 28.1133 31.9648 27.5859 31.5078L14.4375 20.293V34.8828C14.4375 35.6563 15.0703 36.2891 15.8438 36.2891H41.1562C41.9297 36.2891 42.5625 35.6563 42.5625 34.8828V20.2578L29.4141 31.5078Z" fill="#055A85"/>
</svg>
