<svg width="56" height="56" viewBox="0 0 56 56" fill="none" xmlns="http://www.w3.org/2000/svg">
<g opacity="0.5">
<path fill-rule="evenodd" clip-rule="evenodd" d="M28.5 50C40.9264 50 51 39.9264 51 27.5C51 15.0736 40.9264 5 28.5 5C16.0736 5 6 15.0736 6 27.5C6 39.9264 16.0736 50 28.5 50ZM28.5 30.4531L41.9297 18.957C41.7187 18.8164 41.4375 18.7109 41.1562 18.7109H15.8437C15.5625 18.7109 15.2812 18.8164 15.0703 18.957L28.5 30.4531ZM14.4375 20.293L27.5859 31.5078C28.1133 31.9648 28.8867 31.9648 29.4141 31.5078L42.5625 20.2578V34.8828C42.5625 35.6562 41.9297 36.2891 41.1562 36.2891H15.8438C15.0703 36.2891 14.4375 35.6562 14.4375 34.8828V20.293Z" fill="white"/>
</g>
</svg>
