<svg width="42" height="42" viewBox="0 0 42 42" fill="none" xmlns="http://www.w3.org/2000/svg">
<path d="M21 14C22.925 14 24.5 12.425 24.5 10.5C24.5 8.575 22.925 7 21 7C19.075 7 17.5 8.575 17.5 10.5C17.5 12.425 19.075 14 21 14ZM21 17.5C19.075 17.5 17.5 19.075 17.5 21C17.5 22.925 19.075 24.5 21 24.5C22.925 24.5 24.5 22.925 24.5 21C24.5 19.075 22.925 17.5 21 17.5ZM21 28C19.075 28 17.5 29.575 17.5 31.5C17.5 33.425 19.075 35 21 35C22.925 35 24.5 33.425 24.5 31.5C24.5 29.575 22.925 28 21 28Z" fill="#CCCCCC"/>
</svg>
