<svg width="36" height="36" viewBox="0 0 36 36" fill="none" xmlns="http://www.w3.org/2000/svg">
<path d="M18 33C26.2843 33 33 26.2843 33 18C33 9.71573 26.2843 3 18 3C9.71573 3 3 9.71573 3 18C3 26.2843 9.71573 33 18 33Z" fill="white"/>
<path d="M18 19.9687L26.9531 12.3047C26.8125 12.2109 26.625 12.1406 26.4375 12.1406H9.5625C9.375 12.1406 9.1875 12.2109 9.04688 12.3047L18 19.9687Z" fill="#055A85"/>
<path d="M18.6094 20.6719C18.2578 20.9766 17.7422 20.9766 17.3906 20.6719L8.625 13.1953V22.9219C8.625 23.4375 9.04688 23.8594 9.5625 23.8594H26.4375C26.9531 23.8594 27.375 23.4375 27.375 22.9219V13.1719L18.6094 20.6719Z" fill="#055A85"/>
</svg>
