<svg width="60" height="60" viewBox="0 0 60 60" fill="none" xmlns="http://www.w3.org/2000/svg">
<rect width="60" height="60" rx="30" fill="#055A85"/>
<path fill-rule="evenodd" clip-rule="evenodd" d="M29 20.1421C28.4477 20.1421 28 20.5898 28 21.1421V28.1421L21 28.1421C20.4477 28.1421 20 28.5898 20 29.1421V30.1421C20 30.6944 20.4477 31.1421 21 31.1421H28V39.1421C28 39.6944 28.4477 40.1421 29 40.1421H30C30.5523 40.1421 31 39.6944 31 39.1421V31.1421H39C39.5523 31.1421 40 30.6944 40 30.1421V29.1421C40 28.5898 39.5523 28.1421 39 28.1421L31 28.1421V21.1421C31 20.5898 30.5523 20.1421 30 20.1421H29Z" fill="white"/>
</svg>
