<svg width="150" height="150" viewBox="0 0 150 150" fill="none" xmlns="http://www.w3.org/2000/svg">
<path d="M120 107V112.333C120 118.2 115.2 123 109.333 123H34.6667C28.7467 123 24 118.2 24 112.333V37.6667C24 31.8 28.7467 27 34.6667 27H109.333C115.2 27 120 31.8 120 37.6667V43H72C66.08 43 61.3333 47.8 61.3333 53.6667V96.3333C61.3333 102.2 66.08 107 72 107H120ZM72 96.3333H125.333V53.6667H72V96.3333ZM93.3333 83C88.9067 83 85.3333 79.4267 85.3333 75C85.3333 70.5733 88.9067 67 93.3333 67C97.76 67 101.333 70.5733 101.333 75C101.333 79.4267 97.76 83 93.3333 83Z" fill="white"/>
</svg>
