<svg width="56" height="56" viewBox="0 0 56 56" fill="none" xmlns="http://www.w3.org/2000/svg">
<g opacity="0.5">
<path fill-rule="evenodd" clip-rule="evenodd" d="M28.5 5C40.9264 5 51 15.0736 51 27.5C51 39.9264 40.9264 50 28.5 50C16.0736 50 6 39.9264 6 27.5C6 15.0736 16.0736 5 28.5 5ZM34.4945 24.6485C34.3851 23.7595 34.1118 23.0614 33.6265 22.443C32.9963 21.6468 32.1911 21.1701 30.9989 20.8872C30.222 20.6987 29.908 20.7204 29.6271 20.9771C29.3653 21.2175 29.3142 21.6997 29.5142 22.0119C29.6549 22.2385 29.8172 22.3197 30.2685 22.4083C30.8695 22.5188 31.2849 22.6623 31.6627 22.8783C32.4647 23.3414 32.8382 24.066 32.8782 25.2392C32.8969 25.79 32.9445 25.9593 33.1369 26.1547C33.4934 26.5119 34.128 26.4424 34.3972 26.015C34.496 25.8539 34.5111 25.7838 34.5215 25.4098C34.5284 25.1783 34.5185 24.8336 34.4945 24.6485ZM34.5052 19.1939C36.4118 20.7357 37.4772 22.9272 37.6356 25.651C37.7022 26.7238 37.6137 27.0732 37.2352 27.2722C36.8937 27.4566 36.5067 27.3958 36.2412 27.1182C36.0653 26.9377 35.9978 26.6907 36.0005 26.2534C36.0082 25.0442 35.7296 23.6939 35.2766 22.7569C34.7525 21.6664 33.9421 20.7384 32.9227 20.0599C32.0299 19.4639 30.8482 19.0615 29.7024 18.9613C28.9592 18.8962 28.6939 18.7703 28.5512 18.414C28.4628 18.2009 28.4861 17.8325 28.5898 17.6675C28.6877 17.5153 28.9075 17.3471 29.063 17.3025C29.2277 17.2545 30.1876 17.3384 30.709 17.4421C32.1323 17.7318 33.4309 18.3275 34.5052 19.1939ZM41.1114 36.1403C41.0582 35.9847 40.9339 35.7445 40.8451 35.6066C40.2855 34.7617 37.2792 32.4089 35.7783 31.6395C34.9212 31.1993 34.2862 31.0526 33.8155 31.1904C33.3093 31.3328 33.0428 31.5684 32.1947 32.6224C31.8528 33.0449 31.502 33.4408 31.4087 33.503C31.1778 33.6631 30.7249 33.7921 30.4051 33.7921C29.6635 33.7876 28.318 33.3073 27.2833 32.6757C26.4796 32.1867 25.4494 31.3105 24.659 30.4433C23.7263 29.4248 23.0914 28.5265 22.5895 27.5125C21.9412 26.2093 21.777 25.4132 22.0478 24.8307C22.1144 24.6838 22.2033 24.5282 22.2431 24.4793C22.2832 24.4348 22.7006 24.0924 23.1623 23.7188C24.0683 22.9983 24.2149 22.8338 24.3835 22.3401C24.5967 21.713 24.5391 21.0726 24.2104 20.4278C23.9572 19.9385 23.2957 18.8712 22.816 18.1818C22.1811 17.2746 20.6002 15.3356 20.2849 15.0731C19.7165 14.6106 18.9882 14.5305 18.1844 14.8419C17.3363 15.171 15.7465 16.4518 15.0671 17.3458C14.4543 18.1552 14.219 18.7288 14.1834 19.4849C14.1524 20.1075 14.2056 20.3654 14.5343 21.1616C17.1054 27.4057 20.9421 32.3911 26.2132 36.3493C28.9663 38.4174 31.8217 39.9917 34.7836 41.0681C36.5109 41.6951 37.2614 41.7262 38.1451 41.2104C38.5181 40.9879 39.4417 40.0407 39.9569 39.3513C40.8095 38.2039 41.1248 37.6747 41.2136 37.2522C41.2758 36.9631 41.2269 36.4605 41.1114 36.1403ZM39.976 22.063C40.517 23.472 40.7764 24.7358 40.8333 26.2765C40.8423 26.5809 40.8381 27.1385 40.8184 27.5163C40.7773 28.2404 40.738 28.3843 40.5295 28.5759C40.1945 28.8903 39.5413 28.8153 39.2936 28.4365C39.1642 28.2331 39.1462 28.0842 39.1711 27.2383C39.243 24.7356 38.7368 22.776 37.5175 20.8167C36.0605 18.466 33.8811 16.8823 31.047 16.1077C30.3243 15.9104 29.7152 15.7902 28.7679 15.6628C28.1509 15.582 28.0158 15.5478 27.8634 15.4541C27.4034 15.1594 27.3973 14.4133 27.8559 14.1142C28.0926 13.9563 28.2671 13.9492 29.0385 14.048C31.3005 14.3307 33.3189 15.0028 34.9775 16.0185C36.1662 16.7474 36.9158 17.4024 37.8808 18.5493C38.9016 19.7726 39.442 20.6771 39.976 22.063Z" fill="white"/>
</g>
</svg>
