<svg width="11" height="19" viewBox="0 0 11 19" fill="none" xmlns="http://www.w3.org/2000/svg">
<path d="M4.86306 4.032C4.28706 4.032 3.74306 4.104 3.23106 4.248C2.71906 4.392 2.15106 4.624 1.52706 4.944L0.519063 2.232C1.14306 1.832 1.87906 1.528 2.72706 1.32C3.57506 1.096 4.40706 0.983999 5.22306 0.983999C6.24706 0.983999 7.08706 1.12 7.74306 1.392C8.41506 1.664 8.94306 2.008 9.32706 2.424C9.71106 2.84 9.97506 3.296 10.1191 3.792C10.2791 4.288 10.3591 4.76 10.3591 5.208C10.3591 5.656 10.2871 6.072 10.1431 6.456C10.0151 6.824 9.84706 7.168 9.63906 7.488C9.43106 7.808 9.19106 8.112 8.91906 8.4C8.64706 8.688 8.38306 8.96 8.12706 9.216C7.93506 9.408 7.73506 9.616 7.52706 9.84C7.31906 10.048 7.12706 10.272 6.95106 10.512C6.79106 10.752 6.65506 11.008 6.54306 11.28C6.43106 11.536 6.37506 11.8 6.37506 12.072C6.37506 12.136 6.37506 12.232 6.37506 12.36C6.37506 12.488 6.38306 12.6 6.39906 12.696H3.23106C3.19906 12.536 3.17506 12.36 3.15906 12.168C3.15906 11.96 3.15906 11.784 3.15906 11.64C3.15906 11.192 3.21506 10.792 3.32706 10.44C3.43906 10.072 3.58306 9.736 3.75906 9.432C3.95106 9.112 4.16706 8.816 4.40706 8.544C4.64706 8.272 4.89506 8.008 5.15106 7.752C5.51906 7.384 5.85506 7.024 6.15906 6.672C6.46306 6.304 6.61506 5.888 6.61506 5.424C6.61506 5.04 6.46306 4.712 6.15906 4.44C5.87106 4.168 5.43906 4.032 4.86306 4.032ZM7.09506 16.104C7.09506 16.808 6.86306 17.352 6.39906 17.736C5.95106 18.12 5.43906 18.312 4.86306 18.312C4.28706 18.312 3.76706 18.12 3.30306 17.736C2.85506 17.352 2.63106 16.808 2.63106 16.104C2.63106 15.4 2.85506 14.856 3.30306 14.472C3.76706 14.088 4.28706 13.896 4.86306 13.896C5.43906 13.896 5.95106 14.088 6.39906 14.472C6.86306 14.856 7.09506 15.4 7.09506 16.104Z" fill="#F18C16"/>
</svg>
