<svg width="150" height="150" viewBox="0 0 150 150" fill="none" xmlns="http://www.w3.org/2000/svg">
<path d="M118.512 41.4577C121.113 44.8173 123.28 48.5019 125.122 52.4034L75.0538 89.3588L54.0293 76.1372V60.3147L74.9454 73.4279L118.512 41.4577Z" fill="white"/>
<path d="M32.6797 75.0538C32.6797 74.2952 32.6797 73.6449 32.7881 72.8863L20.1084 72.2361C20.1084 73.1031 20 74.0784 20 74.9454C20 90.1177 26.1773 103.881 36.1477 113.852L45.1427 104.857C37.4481 97.2704 32.6797 86.7581 32.6797 75.0538Z" fill="white"/>
<path d="M74.9452 32.7892C75.7038 32.7892 76.354 32.7892 77.1126 32.8976L77.7629 20.2179C76.8959 20.2179 75.9205 20.1095 75.0535 20.1095C59.8813 20.1095 46.1178 26.2868 36.1475 36.2572L45.1425 45.2522C52.7286 37.5576 63.3492 32.7892 74.9452 32.7892Z" fill="white"/>
<path d="M74.9466 117.32C74.188 117.32 73.5378 117.32 72.7791 117.211L72.1289 129.891C72.9959 129.891 73.9713 130 74.8382 130C90.0105 130 103.774 123.822 113.744 113.852L104.749 104.857C97.1632 112.66 86.651 117.32 74.9466 117.32Z" fill="white"/>
<path d="M98.7875 40.1575L109.516 32.2462C100.088 24.6601 88.0585 20 74.9453 20V32.6797C83.8319 32.7881 92.0683 35.4974 98.7875 40.1575Z" fill="white"/>
<path d="M130 75.0529C130 71.6933 129.675 68.4421 129.133 65.1909L117.32 73.9691C117.32 74.2943 117.32 74.7278 117.32 75.0529C117.32 87.5158 111.901 98.6783 103.34 106.373L111.901 115.801C122.955 105.831 130 91.2005 130 75.0529Z" fill="white"/>
<path d="M74.9447 117.321C62.4818 117.321 51.3193 111.902 43.6248 103.34L34.1963 111.902C44.275 123.064 58.7971 130 74.9447 130V117.321Z" fill="white"/>
<path d="M46.6599 43.7325L38.0984 34.304C26.9359 44.3827 20 58.9047 20 75.0524H32.6797C32.6797 62.6978 38.0984 51.427 46.6599 43.7325Z" fill="white"/>
</svg>
