<svg width="46" height="46" viewBox="0 0 46 46" fill="none" xmlns="http://www.w3.org/2000/svg">
<path d="M19.2668 0.599976C8.97956 0.599976 0.600098 8.97944 0.600098 19.2666C0.600098 29.5538 8.97956 37.9333 19.2668 37.9333C23.7402 37.9333 27.8485 36.3447 31.0683 33.7078L42.2136 44.8531C42.3856 45.0322 42.5917 45.1753 42.8196 45.2738C43.0476 45.3723 43.2929 45.4244 43.5413 45.4269C43.7896 45.4295 44.036 45.3824 44.2659 45.2885C44.4959 45.1947 44.7047 45.0559 44.8804 44.8802C45.056 44.7046 45.1948 44.4957 45.2887 44.2658C45.3825 44.0359 45.4296 43.7895 45.4271 43.5412C45.4245 43.2928 45.3725 43.0475 45.2739 42.8195C45.1754 42.5915 45.0324 42.3855 44.8532 42.2135L33.7079 31.0682C36.3449 27.8484 37.9334 23.7401 37.9334 19.2666C37.9334 8.97944 29.554 0.599976 19.2668 0.599976ZM19.2668 4.33331C27.5363 4.33331 34.2001 10.9971 34.2001 19.2666C34.2001 27.5362 27.5363 34.2 19.2668 34.2C10.9972 34.2 4.33343 27.5362 4.33343 19.2666C4.33343 10.9971 10.9972 4.33331 19.2668 4.33331Z" fill="white"/>
</svg>
