<svg width="150" height="150" viewBox="0 0 150 150" fill="none" xmlns="http://www.w3.org/2000/svg">
<path fill-rule="evenodd" clip-rule="evenodd" d="M101.73 15H48.27C43.815 15 40.17 18.645 40.17 23.1V126.885C40.17 131.355 43.815 135 48.27 135H101.73C106.185 135 109.83 131.355 109.83 126.9V88.92H104.19V120H45.81V27.855H104.19V58.92H109.83V23.1C109.83 18.645 106.185 15 101.73 15ZM66.45 20.835H83.55C84.09 20.835 84.54 21.285 84.54 21.825C84.54 22.365 84.09 22.8 83.55 22.8H66.45C65.91 22.8 65.46 22.365 65.46 21.825C65.46 21.285 65.91 20.835 66.45 20.835ZM75 130.95C72.765 130.95 70.95 129.135 70.95 126.885C70.95 124.65 72.765 122.835 75 122.835C77.235 122.835 79.05 124.65 79.05 126.885C79.05 129.135 77.235 130.95 75 130.95Z" fill="white"/>
<path d="M122.865 66.42H74.1899V81.42H122.865V66.42Z" fill="white"/>
<path fill-rule="evenodd" clip-rule="evenodd" d="M141 74.2199L127.41 65.8949L113.82 57.5849V74.2199V90.8549L127.41 82.5299L141 74.2199Z" fill="white"/>
</svg>
