<svg width="150" height="150" viewBox="0 0 150 150" fill="none" xmlns="http://www.w3.org/2000/svg">
<path d="M84.5224 25H65.4749C45.5248 25 29.2939 41.2271 29.2939 61.1734V78.3317C29.2939 93.1857 38.4216 106.535 52.1463 111.972V123.096C52.1463 123.85 52.59 124.532 53.2794 124.836C53.527 124.947 53.7898 125 54.0507 125C54.5134 125 54.9724 124.831 55.3285 124.507L66.3719 114.505H84.5224C104.472 114.505 120.703 98.278 120.703 78.3317V61.1734C120.703 41.2271 104.472 25 84.5224 25ZM116.895 78.3317C116.895 96.1775 102.374 110.696 84.5224 110.696H65.6368C65.1645 110.696 64.7094 110.872 64.359 111.19L55.955 118.801V110.653C55.955 109.845 55.4466 109.125 54.6848 108.859C41.777 104.294 33.1027 92.026 33.1027 78.3317V61.1734C33.1027 43.3276 47.6253 28.8087 65.4749 28.8087H84.5224C102.374 28.8087 116.895 43.3276 116.895 61.1734V78.3317Z" fill="white"/>
<path d="M100.167 83.0697L88.4631 75.4675C87.1834 74.6353 85.6599 74.3535 84.1688 74.662C82.6758 74.9762 81.3922 75.8579 80.56 77.1434L80.0097 77.9889C74.9441 76.315 69.3586 74.1764 66.0145 64.4965L67.399 63.2929C69.7756 61.2267 70.0251 57.6122 67.9589 55.2318L58.8027 44.6987C58.1133 43.9046 56.9098 43.8227 56.1156 44.5102L50.3664 49.5073C45.3236 53.8911 47.6793 60.3754 48.4544 62.5064C48.4887 62.6016 48.5306 62.6931 48.5801 62.7826C48.78 63.1406 53.5543 71.6607 61.265 79.5143C69.0063 87.4003 82.9824 94.6825 83.4109 94.8939C85.0067 95.9299 86.8025 96.4269 88.5793 96.4269C91.6987 96.4269 94.7571 94.8977 96.5814 92.0945L100.729 85.7073C101.3 84.8218 101.049 83.643 100.167 83.0697ZM93.3859 90.0188C91.6701 92.662 88.1242 93.4123 85.3248 91.607C85.1857 91.5346 71.301 84.3038 63.9826 76.8482C57.1421 69.8801 52.6002 62.1389 51.9813 61.0591C50.473 56.8295 50.7396 54.2301 52.8649 52.3828L57.1783 48.6351L65.0852 57.7303C65.7879 58.5377 65.706 59.7184 64.9024 60.4173L62.5657 62.4474C61.9963 62.9425 61.7716 63.7252 61.9944 64.4451C65.9783 77.3909 73.7253 79.9333 79.3812 81.79L80.2058 82.0623C81.0304 82.3404 81.9331 82.0223 82.4054 81.2949L83.7556 79.2153C84.0336 78.7849 84.4602 78.4936 84.9553 78.3888C85.4523 78.2822 85.9589 78.3812 86.3893 78.6611L96.4976 85.2255L93.3859 90.0188Z" fill="white"/>
<path d="M79.3468 55.9402C78.3337 55.6488 77.2806 56.2373 76.993 57.2504C76.7055 58.2616 77.292 59.3147 78.3032 59.6023C81.1407 60.4097 83.4012 62.674 84.201 65.5134C84.4372 66.3513 85.2008 66.9017 86.033 66.9017C86.2044 66.9017 86.3777 66.8788 86.551 66.8312C87.5622 66.5456 88.1526 65.4944 87.8669 64.4813C86.711 60.3793 83.445 57.1057 79.3468 55.9402Z" fill="white"/>
<path d="M93.8383 67.313C94.0097 67.313 94.183 67.2902 94.3563 67.2426C95.3694 66.9569 95.9578 65.9038 95.6722 64.8926C93.425 56.9266 87.0854 50.5737 79.1252 48.3075C78.114 48.0161 77.0608 48.6084 76.7733 49.6196C76.4857 50.6308 77.0723 51.6839 78.0835 51.9715C84.7811 53.8759 90.1152 59.2252 92.0063 65.9267C92.2443 66.7646 93.0061 67.313 93.8383 67.313Z" fill="white"/>
<path d="M78.3048 39.4389C77.2917 39.1475 76.2386 39.736 75.951 40.751C75.6635 41.7622 76.25 42.8153 77.2612 43.1029C88.6093 46.3308 97.6493 55.3917 100.852 66.7475C101.089 67.5854 101.852 68.1357 102.684 68.1357C102.856 68.1357 103.029 68.1129 103.202 68.0653C104.214 67.7796 104.804 66.7265 104.518 65.7153C100.959 53.0951 90.9155 43.0286 78.3048 39.4389Z" fill="white"/>
</svg>
