<svg width="56" height="56" viewBox="0 0 56 56" fill="none" xmlns="http://www.w3.org/2000/svg">
<g opacity="0.5">
<path d="M26.5 4C14.074 4 4 14.0736 4 26.5C4 38.9264 14.074 49 26.5 49C38.926 49 49 38.9264 49 26.5C49 14.0736 38.926 4 26.5 4ZM37.9132 28.9335C38.9619 29.9577 40.0714 30.9217 41.0128 32.0519C41.4299 32.5519 41.823 33.0688 42.1222 33.6503C42.5495 34.4794 42.1637 35.3886 41.4216 35.4379L36.812 35.4369C35.6215 35.5354 34.6741 35.0553 33.8754 34.2414C33.2378 33.5927 32.6462 32.8999 32.0321 32.2292C31.7812 31.9539 31.517 31.6947 31.2021 31.4907C30.5737 31.0819 30.0277 31.2072 29.6677 31.8636C29.3008 32.5316 29.217 33.2719 29.182 34.0153C29.1319 35.1022 28.8041 35.3863 27.7135 35.4374C25.3832 35.5465 23.1721 35.1929 21.117 34.0181C19.3041 32.9818 17.901 31.5193 16.6783 29.8634C14.2973 26.6353 12.4738 23.0924 10.8354 19.4478C10.4666 18.627 10.7364 18.1878 11.6419 18.1707C13.1464 18.1417 14.6508 18.1454 16.1553 18.1694C16.7676 18.179 17.1727 18.5294 17.4079 19.1071C18.2209 21.1074 19.2176 23.0105 20.4665 24.7755C20.7994 25.2455 21.1391 25.7142 21.623 26.0461C22.157 26.4125 22.5639 26.2915 22.8158 25.6953C22.9769 25.3164 23.0464 24.9113 23.0814 24.5053C23.2011 23.1145 23.2153 21.7242 23.0082 20.339C22.8793 19.4722 22.3918 18.9124 21.5277 18.7485C21.0876 18.6652 21.152 18.5022 21.3661 18.2508C21.7376 17.8163 22.0856 17.5474 22.7812 17.5474L27.9893 17.5465C28.8101 17.7076 28.9942 18.0759 29.1056 18.9027L29.1102 24.6903C29.1006 25.0103 29.2709 25.9586 29.8454 26.1681C30.3058 26.32 30.6096 25.9508 30.8849 25.6594C32.1339 24.334 33.0237 22.7697 33.8206 21.1506C34.1723 20.4366 34.4757 19.6978 34.7703 18.9575C34.9895 18.4101 35.3301 18.1408 35.9479 18.15L40.9631 18.156C41.1108 18.156 41.2609 18.1574 41.4073 18.1827C42.2525 18.3273 42.4841 18.6909 42.2226 19.5154C41.811 20.8109 41.0114 21.89 40.2297 22.9718C39.3919 24.1301 38.4983 25.2478 37.6687 26.4111C36.9064 27.4746 36.9667 28.01 37.9132 28.9335Z" fill="white"/>
</g>
</svg>
