<svg width="300" height="95" viewBox="0 0 300 95" fill="none" xmlns="http://www.w3.org/2000/svg">
<path d="M100.098 54.1057C99.4123 52.1534 97.8545 50.9722 96.2943 49.7689C94.4963 48.3921 92.3003 47.4476 90.3033 46.3947C89.3726 45.9142 87.2694 44.3229 86.6431 43.7751C84.6485 42.0215 83.4569 40.1642 81.0857 38.8097C81.0857 38.8097 81.609 38.4407 82.1235 38.2199C83.8827 37.463 85.8543 37.4575 87.5627 36.6618C85.3874 33.4049 81.5551 33.8522 79.0888 31.5175C80.5546 31.7906 82.4866 31.6236 83.9715 31.4835C86.7097 31.2238 87.1323 30.2603 88.4158 28.3421C88.7852 27.7808 89.2965 27.2274 89.7413 26.9258C91.7835 25.5712 97.0324 26.2275 99.3291 26.2275C97.2957 25.1382 94.1214 23.1083 91.7835 22.893C82.7332 21.787 79.2648 24.9347 73.2745 21.9295C72.6197 21.6754 76.1832 19.5275 78.342 19.4492C77.9059 19.1618 75.2184 18.2292 74.2282 18.2458C71.8674 18.3044 70.7099 19.1198 68.9087 20.4182C68.9087 18.6978 69.0205 17.4438 70.7099 16.3576C71.7445 15.6958 73.8025 15.2153 74.5779 14.654C75.3524 14.095 76.1468 12.5703 76.4266 11.7129C76.7089 10.8555 76.6637 8.6657 76.6637 8.6657C75.4864 10.1153 74.5945 11.2268 72.6617 11.6012C72.6617 11.6012 64.9457 13.0619 63.0969 13.7126C61.2482 14.361 59.229 16.3576 59.229 16.3576C59.229 16.3576 58.9523 16.0085 58.9301 15.1511C58.9079 14.2937 62.9907 6.85356 62.4484 7.1995C61.9165 7.54309 59.4224 8.27777 57.9344 8.7892C56.455 9.30854 53.9015 9.83896 50.8779 11.1967C47.8408 12.5481 46.0982 15.52 45.8192 15.1092C45.5393 14.6959 44.848 13.8662 44.7252 12.5481C44.5936 11.241 45.8382 9.06548 46.3416 7.88667C47.3936 5.3533 47.8463 2.28951 45.95 0C45.2595 0.530424 38.5835 7.53522 37.2215 9.88411C35.8572 12.2378 33.9101 17.4494 33.9101 17.4494L31.6341 24.3955C31.6341 24.3955 30.9483 23.7978 30.5345 23.1748C30.1294 22.5494 30.3419 20.0999 30.3419 20.0999C30.8952 16.4162 30.9713 11.9393 27.5957 9.36949C26.6079 8.61264 25.2935 8.70527 25.2935 8.70527C25.2935 8.70527 26.1861 9.9395 26.11 11.5205C26.0379 13.084 25.5955 14.7181 25.5955 14.7181L23.876 21.6753C22.4157 27.297 22.9944 30.5453 22.7986 30.5255C20.1785 30.2548 18.1728 27.9312 17.6416 25.5182C17.3816 24.3283 17.3816 20.2899 17.3816 20.2899C14.4594 24.6022 12.8342 27.3952 13.7293 32.6314C14.3524 36.2509 16.3835 40.0494 18.218 43.2249C19.1661 44.8644 19.8511 47.7945 19.8511 47.7945C18.7436 46.6853 17.7058 45.7329 15.9887 45.7329C13.4692 45.7329 9.91681 47.9362 7.73033 46.6156C7.54799 46.5096 6.91616 46.2499 6.91616 46.2499C6.91616 46.2499 7.24595 46.9925 7.43067 47.2886C9.78284 51.0649 12.7534 50.3967 16.3193 52.1059C18.2457 53.0084 19.3334 53.679 20.6898 55.4326C19.7116 54.9441 17.1105 55.3043 16.1314 55.6558C14.5125 56.2314 13.1561 57.4711 11.3938 58.0522C8.59131 58.9935 4.6203 58.6222 1.92168 57.3595C1.2946 57.0634 0 56.2812 0 56.2812C0 56.2812 0.218013 56.955 0.517682 57.5107C0.811009 58.0522 2.88887 60.9513 3.55163 61.6132C5.94264 64.0009 8.4597 64.9873 11.6847 65.3808C17.1746 65.6262 21.9432 64.5511 27.2009 65.5399C28.9767 65.8803 31.049 67.0568 31.049 67.0568C25.4282 68.724 27.5505 71.8741 20.6089 73.1669C25.3521 75.2981 29.0298 74.5555 33.566 73.1669C36.707 72.2035 40.1524 72.1647 40.1524 72.1647C38.0999 73.1171 35.4402 74.8936 34.2343 76.7952C31.2979 81.4146 27.931 83.9536 22.4632 84.6012C24.5134 87.8186 30.915 86.4054 33.7143 85.6011C37.0146 84.6629 40.1279 83.0511 42.5577 80.6103C43.0413 80.1298 44.4818 78.6438 44.9963 78.0881C45.5172 77.5355 46.3416 76.7952 47.1447 76.2426C47.9637 75.6861 49.4406 75.0496 50.2183 74.8762C50.9897 74.6783 52.8527 74.9467 52.8527 74.9467L52.6989 75.0496C52.5475 75.1667 52.075 76.0186 51.6976 76.5688C50.4863 78.3952 49.9884 80.87 49.8489 83.0147C49.7736 84.1626 49.4406 86.0872 49.4406 86.0872C52.3659 83.325 54.2765 78.1997 57.9565 76.3511C58.5408 76.0582 59.2488 76.0946 59.2488 76.0946C59.0617 79.7276 56.7317 82.8191 56.7317 86.4585C56.7317 93.871 63.8017 95.2279 63.7597 94.9713C63.4917 92.9716 63.5781 89.3069 64.0593 87.3467C64.9369 83.8641 66.7968 80.395 67.8741 76.8704C68.3966 75.1446 68.3244 72.8654 68.1001 71.0952C69.0879 70.9606 71.6414 75.6861 71.5011 76.2814C71.5011 75.0053 72.2954 72.7316 72.4239 71.2012C72.5586 69.6203 72.2201 67.5896 71.7556 66.0648C73.663 66.7496 75.0226 67.7297 76.2728 69.3162C76.8262 70.0224 77.6824 71.2377 78.1572 72.0198C79.2513 73.7734 80.1629 76.3068 81.9356 77.4238C82.7942 77.9574 84.3242 77.7334 85.3057 77.6107C84.4305 76.8095 83.6614 76.2814 83.158 75.1668C82.1877 73.0387 81.9808 69.4722 81.9808 67.0568C81.9808 63.1602 81.1222 59.239 79.1252 55.8767C80.1344 55.9971 81.0604 56.2567 81.8967 56.8766C82.3304 57.2036 83.4181 58.0689 84.0111 57.7253C82.9147 56.7254 83.2698 54.7818 82.7133 53.436C82.523 52.9918 81.8967 51.5898 81.8967 51.5898C82.7022 51.7157 83.5386 52.3601 84.2679 52.6926C85.9407 53.4637 88.2342 53.679 90.0377 53.7621C93.0217 53.9276 96.0597 53.8991 98.7749 55.2537C99.0738 55.3962 100.366 56.4713 100.366 56.4713C100.366 55.6756 100.372 54.8546 100.098 54.1057L100.098 54.1057ZM50.6797 70.3271C37.0709 70.3271 25.9982 59.2698 25.9982 45.6798C25.9982 32.0899 37.0709 21.0325 50.6797 21.0325C64.2884 21.0325 75.3604 32.0898 75.3604 45.6798C75.3604 59.2697 64.2885 70.3271 50.6797 70.3271Z" fill="#F18C16"/>
<path d="M58.6683 65.9318C58.7103 65.9065 58.7602 65.8788 58.7999 65.859C58.8308 65.6025 58.7269 65.6808 58.9703 65.4124C59.6442 65.0689 60.3236 64.7197 61.0149 64.3675C61.5096 63.6945 61.7054 62.678 61.8703 61.8737C61.8901 61.6924 62.0407 60.9213 61.9519 60.74C61.898 60.74 61.8536 60.74 61.7973 60.7479C61.6324 61.0384 61.6158 61.1144 61.6158 61.477C61.6023 61.4881 61.5825 61.4937 61.5738 61.5024C61.5373 61.002 61.3248 61.2261 61.5492 60.6252C61.3502 60.7067 60.391 61.0218 60.3125 61.1897C60.3125 61.4327 60.0049 61.9212 59.7306 61.7818C59.6386 61.7818 59.6386 61.7818 58.3099 62.0835C58.2489 61.994 58.2267 61.9014 58.1062 61.9014C57.4236 62.0835 56.7355 62.2814 56.0418 62.4096V62.4571C56.2321 62.5331 56.4366 62.5973 56.6348 62.6725C56.6094 62.8348 56.5872 62.9994 56.5706 63.1673C55.9467 63.2979 55.4718 63.0247 54.9874 62.6416C53.7427 62.815 52.4902 62.9155 51.2257 62.9773C51.2257 63.4934 51.3914 67.2357 51.2035 67.8809C54.1574 67.8112 56.9765 67.1581 59.5379 66.0466C59.7757 65.8677 60.0048 65.6808 60.2229 65.4734C59.9042 65.3254 59.2303 66.2057 58.6682 65.9318H58.6683ZM51.0331 62.9773C50.4401 62.9662 49.8526 62.9543 49.2628 62.9487C45.5542 62.6337 42.3831 61.804 38.9932 60.3156C38.8117 62.1309 39.3484 64.1022 40.5732 65.4544C43.6048 67.0124 47.0423 67.8865 50.6811 67.8865C50.8175 67.8865 50.9634 67.8841 51.1029 67.8809C50.8571 67.2586 51.0331 63.4934 51.0331 62.9773H51.0331ZM70.0232 56.6066C71.2004 54.5506 72.0503 52.2833 72.5149 49.8781C71.933 51.3388 71.1672 52.6292 70.2356 53.8999C70.2103 54.8388 70.1683 55.7017 70.0232 56.6066H70.0232ZM69.9978 54.196C68.6636 55.7492 67.2572 57.0508 65.6233 58.2763C65.6772 58.2818 65.6772 58.2818 65.8024 58.2066C65.8112 58.2319 65.8191 58.2462 65.8334 58.2763C65.7414 58.3412 65.7414 58.3412 65.4108 58.5027C65.3997 58.4861 65.3997 58.4861 65.4584 58.3998C64.4127 59.0782 63.3306 59.7147 62.231 60.2927C62.1668 60.55 62.1557 60.7368 62.3515 60.9102C61.9765 61.2538 61.8901 62.7002 61.722 63.2868C61.661 63.4657 61.3946 63.9906 61.3946 64.164C62.0296 63.5805 62.7154 62.7342 63.4955 62.3431C63.9458 62.5973 64.3374 61.9156 64.5443 61.519C64.7512 61.3488 65.2459 61.0471 65.2713 60.7898C65.4837 60.656 65.6994 60.5167 65.9198 60.3821C65.9198 60.5357 65.6296 60.74 65.7525 60.9046C66.8259 60.9046 67.3325 59.5057 67.7352 58.7766C67.755 58.9159 67.7352 59.0949 67.9334 58.9666C67.9786 59.0363 67.847 59.1986 67.931 59.2762C67.7099 59.9214 66.4708 60.93 65.9903 61.4691C64.3033 63.0105 62.6258 64.1109 60.6399 65.2898C60.5115 65.4457 60.2736 65.6246 60.0691 65.8004C64.0662 63.932 67.4245 60.9046 69.6981 57.1624C69.9756 56.2044 70.0232 55.1769 70.0398 54.1849C70.0232 54.1849 70.0145 54.1936 69.9978 54.196V54.196ZM65.4893 58.9159C65.5226 58.8716 65.5622 58.8376 65.6011 58.7964C65.6098 58.8518 65.5313 58.8993 65.4893 58.9159ZM65.9903 58.6507C65.9253 58.5502 65.9253 58.5502 65.8667 58.5193C66.0569 58.5114 66.0569 58.5114 66.225 58.5304C66.1386 58.5644 66.068 58.6032 65.9903 58.6507ZM68.4067 57.1956C67.9421 57.601 67.7463 58.2066 67.2041 58.5613C67.1399 58.4441 67.0749 58.3269 67.0106 58.2153C66.7902 58.1702 66.4938 58.3879 66.2948 58.4861C66.5326 58.1338 66.7815 57.7933 67.0249 57.4474C67.2461 57.3326 68.7643 56.4055 68.9292 56.4499C68.8959 56.495 68.8959 56.495 68.8959 56.5813C69.0108 56.6597 69.125 56.6565 69.2621 56.6399C68.9799 56.9415 68.7809 57.042 68.4067 57.1956ZM32.379 58.2462C32.41 58.2937 32.4488 58.3578 32.5273 58.4718C32.4742 58.4021 32.429 58.3238 32.379 58.2462ZM67.6765 31.3869C65.632 30.6023 63.4701 30.4313 61.3026 30.345C61.3946 30.4147 61.4953 30.4875 61.6023 30.5683C61.3946 30.5683 61.1996 30.345 60.9387 30.345C60.9387 30.5683 61.1686 30.8145 61.2828 31.0069C61.1068 30.9626 60.9276 30.904 60.7493 30.904C60.7263 30.9285 60.7096 30.9459 60.6961 30.9871C60.7493 31.0655 60.7492 31.0655 60.8801 31.1747C60.8269 31.2531 60.819 31.2697 60.819 31.3647C60.7492 31.3536 60.6787 31.3481 60.6145 31.3418C60.4916 31.2555 59.4317 30.2279 59.4063 30.8509C59.6021 31.2357 59.6021 31.2357 59.6132 31.3172C59.5355 31.3172 59.507 31.3172 59.4515 31.3703C59.2691 31.094 59.0876 30.8224 58.9084 30.5493H58.7713C58.7435 30.5794 58.7435 30.5794 58.7237 31.0433C58.6484 31.1161 58.5644 31.1913 58.4835 31.2555C58.1061 31.094 57.6194 30.7219 57.3229 30.4313C55.6366 30.5239 53.9583 30.7781 52.2864 31.0235C52.261 30.9792 52.2388 30.934 52.2103 30.8953C52.2158 30.8865 52.2269 30.8755 52.2388 30.8588C53.9195 30.5572 55.6168 30.3593 57.3173 30.2247C57.2024 29.8811 57.0406 29.6104 56.8615 29.2953C57.085 28.9652 58.5953 28.848 58.9869 28.5828C58.9869 28.5155 58.9869 28.4458 59.0036 28.3793C59.1407 28.555 59.2834 28.7276 59.4261 28.9097C59.4594 29.0712 59.4737 29.2304 59.5997 29.3452C59.5799 29.4346 59.507 29.4346 59.4459 29.4987C59.4459 29.532 59.4459 29.5605 59.4515 29.5969C59.507 29.6357 59.507 29.6357 61.0259 30.1297C62.8073 30.2279 64.5332 30.3482 66.2836 30.7361C66.7957 30.8755 67.2151 31.0156 67.3943 31.0631C65.4393 28.8369 63.0475 26.9994 60.3521 25.6979C60.0889 25.6979 59.8177 25.7478 59.5712 25.8206C59.6386 25.8538 59.6948 25.8879 59.7591 25.9124C59.5712 25.9267 59.0622 25.8008 58.9504 26.0304C58.822 26.0106 58.6959 26.0913 58.5754 26.1365C58.6095 26.1753 58.6484 26.2117 58.6848 26.2536C58.6317 26.2536 58.6317 26.2536 54.7725 24.6307C53.3851 24.4043 51.9899 24.1755 50.6049 23.9578C50.7254 23.9522 50.8514 23.9522 50.9743 23.9522C50.9743 23.7931 50.9743 23.6364 50.9775 23.4772C50.8792 23.4717 50.7785 23.4717 50.681 23.4717C47.1119 23.4717 43.7395 24.3212 40.7467 25.8206C43.4342 25.9101 45.8229 27.3398 48.0513 28.7197C48.309 28.7055 48.5325 28.5266 48.7926 28.6105C48.7315 28.6358 48.6784 28.658 48.6253 28.6944V28.8147C48.768 28.8986 48.9662 28.8678 49.1232 28.9097C48.6475 29.3254 49.4196 29.9009 49.6488 29.7529C49.64 29.5827 49.6765 29.4655 49.5029 29.4204C49.6091 29.1805 49.6511 29.1718 49.9143 29.0712C49.9088 29.0158 49.9032 28.9794 49.9032 28.9287C49.8248 28.8931 49.7574 28.8567 49.6876 28.8147C49.7185 28.7506 49.7518 28.6944 49.7827 28.6271C49.9088 28.6247 50.0008 28.6358 50.0903 28.5463C50.1466 28.6722 50.1466 28.6722 50.1466 28.7197C50.0959 28.7506 50.0483 28.787 50.0008 28.8147C49.9841 29.1132 50.0372 29.0712 50.1799 29.3008C50.1324 29.3452 50.1466 29.4291 50.172 29.4789C50.2441 29.4789 50.3171 29.4789 50.39 29.4853C50.4201 29.5352 50.4455 29.5684 50.5042 29.5969C50.4875 29.5969 50.4796 29.608 50.4709 29.6104C50.3559 29.5684 50.2782 29.5154 50.1522 29.5494C50.1466 29.5969 50.1411 29.6499 50.1324 29.6943C50.0372 29.6919 49.9984 29.6864 49.931 29.7505C49.931 29.7727 49.9365 29.798 49.9453 29.8225C49.839 29.8399 49.7383 29.8645 49.64 29.8811C49.8811 30.0854 50.1157 30.2809 50.3559 30.4876C50.3004 30.524 50.2441 30.5517 50.191 30.5794C49.931 30.3648 49.2373 29.661 49.0027 29.661C49.0027 29.7505 49.0193 29.7727 49.0613 29.8645C48.8687 30.2081 48.4208 30.0046 48.4208 30.2896C48.4881 30.3363 48.5547 30.3815 48.6277 30.4313C48.5547 30.4567 48.4794 30.4733 48.4794 30.5683C49.8192 30.8335 49.8192 30.8335 49.8636 30.8644C49.8335 30.9095 49.8081 30.9459 49.7827 31.0069C49.1842 30.904 48.7815 30.7417 48.2226 30.9459C48.236 30.8755 48.2503 30.8003 48.2646 30.7219C48.0767 30.6973 47.9261 30.725 47.7524 30.7108C47.7302 30.7361 47.7303 30.7361 47.7049 30.839C47.5733 30.7923 47.4726 30.7528 47.341 30.7528C47.249 30.9206 47.4536 31.0401 47.5788 31.1161C47.5598 31.166 47.5424 31.2191 47.5233 31.2697C47.341 31.1747 47.3243 31.0742 47.2292 30.923H47.104C47.0865 30.9459 47.0643 30.9705 47.0445 31.0069C46.7345 30.8533 46.4769 30.6023 46.1526 30.8058C46.0742 30.4234 45.9402 30.7251 45.677 30.7251V30.6158C45.6603 30.6023 45.6381 30.5794 45.6104 30.5683C45.4257 30.6301 45.4257 30.6301 45.3028 30.6467C45.3139 30.5517 45.3139 30.5129 45.2187 30.4876C45.1989 30.3648 45.1989 30.3648 45.168 30.3007C44.7463 30.2611 44.3261 30.2247 43.9154 30.1915C43.8877 30.2445 43.8877 30.2445 43.8369 30.2809C43.8147 30.2445 43.787 30.2002 43.7616 30.1748C40.6127 29.9959 36.6774 29.7054 33.7886 31.2697C30.4605 35.1513 28.4413 40.1817 28.4413 45.6838C28.4413 47.2141 28.5975 48.7223 28.9051 50.1774C29.0953 50.6769 29.3189 51.163 29.5821 51.6658C29.5821 51.5985 29.4315 51.0791 29.4315 51.0015C30.4129 53.1992 31.308 55.4389 32.1634 57.6762C32.1856 57.7767 32.203 57.8662 32.2252 57.958C32.0294 57.5558 31.8589 57.1283 31.7107 56.6984C30.9385 55.3273 30.3487 53.9086 29.8057 52.4281C29.5678 52.0093 29.3474 51.5985 29.1373 51.1773C29.7922 53.7407 30.9108 56.1205 32.379 58.2462C32.3536 58.2042 32.3314 58.1678 32.3092 58.1203C32.4345 58.0863 32.3956 57.9802 32.4575 57.9667C32.5526 58.1456 33.1004 58.7346 32.7897 58.8265C34.7256 61.4406 37.2086 63.6304 40.0808 65.1971C38.9789 63.7951 38.7807 62.0161 38.7807 60.2262C37.184 59.3799 35.6452 58.4441 34.2357 57.3215C34.1826 57.3128 34.1295 57.2962 34.0874 57.2882C33.7101 56.6984 32.7001 55.5869 32.8547 54.8752C33.1813 54.6377 33.064 54.6377 32.9966 54.2126C33.4667 54.7098 34.0153 55.2267 34.395 55.7912C34.5068 56.2599 34.6107 56.7325 34.7201 57.2043C34.6194 57.2209 34.5155 57.2265 34.4204 57.2463C35.8046 58.3071 37.234 59.2231 38.7973 59.9966C38.9012 58.1203 39.231 56.3327 39.6083 54.4841C39.4965 54.4699 39.3871 54.4612 39.2809 54.4612C39.0153 54.7683 38.6998 54.7097 38.3557 54.5981C38.3248 54.3107 38.2994 54.0202 38.2741 53.7352C38.9289 53.8223 38.9289 53.8223 39.0518 53.8191C39.5021 53.3108 39.5021 53.4336 39.4236 52.8501C39.4965 52.7638 39.5639 52.6767 39.6392 52.596C39.7312 52.744 39.824 52.8976 39.9246 53.0456H39.9635C40.0309 52.8081 40.0919 52.5738 40.1593 52.3363C40.1593 51.5708 39.8097 51.6578 39.1691 51.4504C39.0375 51.2382 38.9035 51.015 38.7719 50.8004C38.6998 50.2083 38.7053 49.8955 38.3859 49.4372C38.3502 48.8482 38.3137 48.2671 38.2828 47.6891C38.3859 47.5379 38.5008 47.3875 38.6158 47.2339C38.5959 46.6948 38.5706 46.5491 38.8837 46.1082C39.334 46.5214 40.0499 46.2641 40.5509 46.58C40.9259 47.6583 42.1111 48.3929 42.2483 49.552C41.9747 49.7412 41.9747 49.7412 41.7171 49.951C41.4848 50.6049 41.3199 50.6382 41.7789 51.1155C41.6553 51.2636 41.3841 51.4504 41.3841 51.6491C41.6275 51.794 41.8511 52.5596 41.9748 52.839C41.5134 52.839 41.7258 52.5849 41.3453 53.0536C41.1328 52.9229 40.5509 52.459 40.3163 52.459C40.1704 53.0765 40.0499 53.2269 40.3805 53.7574C40.2267 53.8444 40.0753 53.9339 39.9246 54.0313C39.4799 56.0342 39.0375 58.0586 38.99 60.109C42.8222 61.9544 46.8075 62.7421 51.033 62.7928C51.0243 60.3964 51.0219 58.0087 51.0163 55.6202C50.9799 55.6202 50.941 55.6289 50.9014 55.6376C50.8348 55.7603 50.7642 55.8885 50.6976 56.0144C50.5827 56.0342 50.4796 56.0477 50.3702 56.0564C50.2894 55.6202 50.2133 55.199 50.13 54.7715C50.1911 54.6432 50.2133 54.5007 50.2133 54.3551C50.2894 54.3638 50.3647 54.378 50.4455 54.3836C50.6247 54.819 50.6754 54.7572 51.1646 54.8332C51.0948 54.9029 51.0163 54.9781 50.941 55.0565C50.941 55.2544 51.1535 55.389 51.3327 55.389C51.3549 55.6202 51.5166 56.2883 51.9138 55.8885C51.9138 55.6851 51.9138 55.4864 51.9169 55.2908C52.2943 55.07 52.4172 54.6266 52.6074 54.2355C52.7866 54.0677 52.9769 53.8999 53.164 53.7407C53.3154 53.7827 53.3154 53.7827 53.5136 53.8555C53.5302 54.1738 53.1981 54.8333 53.3178 55.0312C53.4272 55.0399 53.5302 55.0399 53.6483 55.0565C53.8854 55.545 53.8077 55.6036 54.3278 55.6289C54.2881 55.9812 53.7292 56.2884 53.4716 56.4894C53.3598 57.0872 53.7316 57.2463 53.6507 57.7989C53.5643 57.7767 53.2623 57.1734 53.0522 57.3912C52.9769 57.7316 52.7279 57.9216 52.353 57.8662C52.3696 57.0088 52.1992 56.9803 51.5673 56.3327C51.5055 56.1847 51.3628 55.7294 51.2177 55.693C51.2177 58.0585 51.2177 60.4241 51.2256 62.7928C52.4061 62.7342 53.5754 62.625 54.7471 62.4571C54.1708 62.0162 53.5921 61.5641 53.0244 61.1144C53.7292 61.1588 54.1097 61.4406 54.7162 61.7818C54.8867 61.804 55.4044 61.8293 55.5138 61.9354C55.4717 61.994 55.4717 62.0779 55.5138 62.1309C55.6255 62.1389 55.6255 62.1388 55.7341 62.108C55.7397 62.1673 55.7484 62.2283 55.7563 62.2924C56.523 62.108 57.303 61.9299 58.0586 61.7058C58.0221 61.6448 57.9777 61.5752 57.9246 61.5166C57.9912 61.4105 58.0586 61.3123 58.1259 61.215H58.2068C59.0289 61.6528 59.9493 60.4827 60.3544 59.8849C60.6065 59.7345 60.8412 60.0306 61.037 60.181C60.7881 60.3378 60.6485 60.5777 60.5391 60.8461C61.3169 60.5112 61.3169 60.5112 62.0129 60.17C61.9986 58.8376 61.89 57.5479 61.714 56.2298C61.691 56.2298 61.6688 56.2298 61.6467 56.2377C61.5824 56.0113 61.5824 56.0477 61.3248 56.0342C61.2939 55.9812 61.2804 55.9281 61.2637 55.8806C61.4818 55.8189 61.3303 55.1879 61.3248 55.07C61.3723 55.0399 61.4231 55.0233 61.4786 55.009C61.4786 54.7913 61.2804 53.2665 61.037 52.9617C61.0037 53.1881 60.9752 53.4082 60.953 53.6378C60.903 53.565 60.8555 53.5064 60.8047 53.4478C60.8721 53.2911 60.9276 53.0092 61.0426 52.8976C60.903 52.364 60.7683 51.8225 60.6311 51.2889H60.6065C60.5835 51.923 60.1697 52.2833 60.2648 52.9031C60.0246 53.2911 59.7781 53.6687 59.5434 54.0534C59.3167 54.1936 59.0931 54.3305 58.8751 54.4699C58.7943 54.4057 58.7633 54.4026 58.6626 54.4026C58.5754 54.5506 58.5754 54.5506 58.4811 54.7826C58.2266 54.9164 57.7644 55.0589 57.6558 55.3273C57.6249 55.2829 57.6027 55.2323 57.575 55.199C57.3229 55.199 57.0739 55.313 56.8361 55.3835C56.5618 55.2014 56.1591 54.8499 55.838 54.7968C55.4321 54.9868 55.0183 55.1768 54.5989 55.3273C54.5902 55.366 54.5846 55.408 54.5767 55.4587C54.3943 55.4389 54.216 55.4333 54.0392 55.4191C53.8687 55.0589 53.8775 54.8633 53.5056 54.8443C53.5865 54.5617 53.8243 54.0313 53.6959 53.7407C53.4406 53.6291 53.1838 53.5151 52.9293 53.4027C52.8651 53.3195 52.655 52.9475 52.5654 53.2048C52.6415 53.3473 52.9436 53.5958 52.9602 53.6711C52.4735 54.1207 52.2919 54.439 52.0144 55.0399C51.6038 55.2576 51.7433 55.2599 51.7433 55.7658H51.5586C51.5055 55.2433 51.5055 55.2433 51.4777 55.199C51.3715 55.1879 51.251 55.199 51.1725 55.1238C51.1844 55.0897 51.1844 55.0897 51.5055 54.7992V54.7382C51.3327 54.6013 50.9632 54.5981 50.742 54.5672C50.6865 54.4501 50.6358 54.3305 50.5827 54.2189C50.5494 54.2126 50.5098 54.2046 50.4796 54.1959C50.5803 54.1738 51.3493 54.1571 51.3992 54.1318C51.3992 53.7629 50.9101 53.5064 50.5803 53.565C49.4419 54.1849 48.7625 52.8192 47.716 52.7353C47.5424 52.6292 47.3862 52.5231 47.207 52.4147C47.1452 52.121 47.1452 52.1209 47.1452 52.0069C47.4504 52.018 47.4504 52.018 47.4948 51.9816C47.4948 51.7694 47.3862 51.5707 47.3529 51.3562C47.6241 51.0736 47.831 51.0094 47.5598 50.6999C47.1627 50.4568 46.7568 50.2082 46.3651 49.9509C46.3651 49.8338 46.3651 49.7245 46.3707 49.6161C46.2843 49.5266 46.1979 49.4514 46.1194 49.3754C46.2113 48.8481 46.4048 49.0073 46.9914 48.9234C47.4338 48.7809 47.7858 48.4008 48.2503 48.3367C48.2781 48.2868 48.2781 48.2869 48.3455 47.3875C49.0193 47.2339 48.9464 47.34 49.1089 46.6805C49.6654 46.6386 49.8248 46.8064 49.9231 46.2641C50.0373 46.2055 50.172 46.1082 50.3028 46.1082C50.4566 46.2815 50.6104 46.4596 50.7698 46.6386C51.0076 47.6274 50.9997 47.3875 52.0707 47.7081C52.2943 47.8926 52.5321 48.0913 52.7644 48.2868C53.1386 48.2219 53.5136 48.1634 53.8854 48.1079C54.2215 48.2053 54.5545 48.3035 54.8867 48.404C55.4908 48.404 56.3359 47.5632 56.7354 47.1302C56.7219 47.002 56.5872 46.7922 56.607 46.7138C56.7497 46.6805 56.9003 46.6528 57.0486 46.6275C57.1437 46.5159 58.187 45.4716 58.187 45.3846C57.7288 44.9127 57.8461 44.8929 57.2531 45.0861C57.2277 45.0608 57.2277 45.0608 57.1746 44.6697C57.8794 44.4686 57.3847 43.7648 57.3847 43.2842C57.4679 43.2344 57.4679 43.2343 57.7787 42.9691H58.4613C58.6936 43.1979 58.914 43.4323 59.1407 43.6729H59.9351C60.0048 43.7481 60.069 43.8234 60.1364 43.9017H60.2458C60.3877 43.6785 60.5225 43.4663 60.6652 43.2534C60.704 43.3262 60.704 43.3262 61.0172 44.4322C60.5613 44.9127 60.6065 44.8209 60.9141 45.4123C60.6842 45.5017 60.6232 46.0242 60.6065 46.2562C60.069 46.3623 60.2736 46.8618 60.0778 47.3226C59.7004 47.7952 59.725 47.6891 59.9319 48.2473C61.0925 51.9816 62.1469 55.8521 62.2198 59.7955C62.4434 59.6815 62.6677 59.5754 62.8937 59.4693C62.9111 59.4749 62.9111 59.4749 62.2309 59.8319V60.0726C65.2934 58.5114 67.7851 56.5116 70.0001 53.8998C70.0001 53.8246 70.0001 53.7573 70.0144 53.6798C69.4888 48.2085 66.9662 42.7031 63.0617 38.8073C62.6257 38.4748 62.1723 38.1399 61.7275 37.8074C61.4033 37.0727 60.8721 36.7046 60.2514 36.1489C60.0302 36.5091 60.2514 37.3775 60.6929 37.4836C60.6652 37.5509 60.643 37.6095 60.6232 37.6792C60.444 37.6483 60.2284 37.8581 60.0777 37.9475C60.0833 38.037 60.0888 38.132 60.0944 38.2238C59.8907 38.4336 59.6893 38.6537 59.4935 38.8746C59.4958 39.6338 59.5014 40.3907 59.5125 41.1539C59.6021 41.2235 59.7392 41.1649 59.851 41.1539C59.9041 41.2235 59.9715 41.2876 60.0326 41.3605H60.2458C60.3489 41.2235 60.4218 41.0193 60.4884 40.8601C60.5391 40.8601 60.6065 40.8744 60.6652 40.8744C60.6565 40.9718 60.5613 41.0192 60.6232 41.1198C60.777 41.1618 60.9387 41.195 61.0901 41.2314C61.2915 41.6201 61.4952 42.0112 61.7053 42.4015C61.764 43.293 61.9931 44.3206 61.6324 45.1281C61.2637 45.1281 61.213 45.0299 61.129 45.3846C60.819 44.8454 60.7881 44.9436 61.1995 44.5018C61.1686 44.0023 60.9918 43.3769 60.7682 42.924H60.6398C60.4884 43.1592 60.3235 43.4046 60.1697 43.6476C60.1142 43.5914 60.069 43.536 60.0159 43.483H59.2358C59.0035 43.2455 58.7713 43.0111 58.5398 42.7792C57.7644 42.7792 57.7787 42.723 57.1778 43.2178C57.1778 43.5416 57.3316 43.969 57.3704 44.3206C57.0597 44.5858 56.6514 44.4995 56.2827 44.5969C55.337 45.2532 55.2228 44.9602 54.1264 45.0046C53.9052 45.136 53.9052 45.136 53.8465 45.1502C53.4636 44.7425 53.3289 44.7061 52.7644 44.5802C52.4735 44.8565 52.5155 45.1415 52.5155 45.5128C52.043 45.5017 51.6228 45.4962 51.1614 45.4067C50.8261 45.4542 50.4709 45.7258 50.1578 45.8619C50.0793 45.7733 50.0063 45.6894 49.9366 45.6134C49.5759 45.6134 49.5338 45.5018 49.2738 45.2452C48.9884 45.1415 48.768 45.2452 48.5801 44.9879C48.4795 44.9879 48.4485 45.0046 48.3598 45.0355C48.267 44.7504 48.0823 43.9216 47.8952 43.7371C47.8056 43.7371 47.8056 43.7371 47.2404 43.8487C47.2324 43.6057 46.9106 43.6057 46.7147 43.536C46.5776 43.1196 46.5776 43.1196 46.5411 43.0721C46.4492 43.0444 46.4492 43.0444 44.5616 43.0048C44.5108 43.0832 44.5219 43.2122 44.5219 43.304C44.3206 43.3262 44.2373 43.293 44.2064 43.4909C44.1137 43.4996 44.0748 43.5075 43.9995 43.5495C44.0074 43.6785 44.0241 43.8091 44.0439 43.9437C43.9575 43.9406 43.8758 43.9382 43.7926 43.9271C43.5912 43.4608 43.4985 43.5495 42.9816 43.5075C42.7715 43.2344 42.5503 42.9692 42.3378 42.6976C42.0976 42.7032 41.7314 42.6422 41.5244 42.7538C41.3286 42.5583 40.9679 42.9771 40.7999 43.0974C40.7999 43.4046 40.8442 43.7735 40.7491 44.0664C40.7079 44.0498 40.7079 44.0498 40.6484 43.9659C40.4756 43.9659 40.1117 44.3206 40.0499 44.4995C40.0332 44.8621 40.0198 45.2452 40.011 45.6165C39.9579 45.6165 39.8993 45.6221 39.8549 45.6308C39.3118 44.7172 38.8195 44.072 38.7355 43.0048H38.9012C39.0661 42.7958 39.0098 42.5385 39.2698 42.377C40.3052 42.0532 40.3583 42.4466 39.6757 41.0889C39.7201 40.6511 39.8961 40.4136 39.6337 40.0645C39.6535 40.0083 39.6757 39.9497 39.7011 39.8998C40.344 40.1619 40.2576 39.1066 40.2822 38.6878C40.6825 38.5643 41.0765 38.4471 41.4682 38.3386C41.8091 38.1011 41.6109 37.4812 41.5887 37.1765C41.8122 37.2715 42.0976 37.425 42.3466 37.425C42.6875 37.0648 43.0236 36.7102 43.3645 36.361C43.2717 36.8693 43.2781 36.878 42.869 37.235C42.869 37.4306 42.9055 37.6594 42.9927 37.8327C43.026 37.8327 43.068 37.8328 43.1124 37.8438C43.1798 37.7409 43.2551 37.6372 43.3336 37.5509C43.3899 37.6902 43.4541 37.8328 43.5207 37.9808C43.5571 37.9808 43.5912 37.9808 43.6332 37.9863C43.6998 37.8581 43.7696 37.7211 43.837 37.5929C43.963 37.5699 43.963 37.5699 44.1898 37.5699C44.1921 37.718 44.1644 37.8771 44.3515 37.8771C44.4498 37.7409 44.5473 37.6063 44.6591 37.4694C44.6845 37.8272 44.6845 37.8272 44.7043 37.8581C45.0729 37.8438 45.8395 37.7488 45.96 37.7599C45.918 37.8327 45.8895 37.919 45.96 37.9863C46.094 37.9863 46.2113 37.9863 46.3429 37.9475C47.5543 35.9113 48.7926 33.9226 50.1522 31.9759C50.1998 31.945 50.3171 32.0068 50.3369 32.0487C50.0064 32.5127 49.6853 32.9758 49.3666 33.4397C48.9805 34.0319 46.3231 37.8581 46.5641 38.2096C46.7544 38.1787 46.8884 38.0085 47.0422 37.8771C47.2293 38.098 47.2293 38.098 47.6241 38.6482C47.7858 38.668 47.8476 38.5643 47.957 38.4582C47.957 38.3133 47.8976 38.2151 47.8365 38.0782C47.8365 37.6823 48.1719 37.3609 48.4739 37.1543C48.5159 37.182 48.5778 37.2042 48.6277 37.2271C48.4882 37.7599 48.3455 38.2911 48.2052 38.8271C48.1719 38.8635 47.7834 39.0227 47.6241 39.109C47.6241 39.31 47.8476 39.489 48.0379 39.489C48.1497 39.352 48.6253 38.6878 48.7791 38.6878C48.768 38.8105 48.7681 38.9474 48.7681 39.0781C48.9076 39.215 49.1454 39.3243 49.1454 39.048C49.1089 39.0306 49.0725 39.0084 49.0503 38.9973C49.0558 38.8635 49.0701 38.7321 49.0812 38.5952C48.9409 38.5199 48.7926 38.4471 48.6476 38.3743C48.6277 38.0924 48.7007 37.718 48.8743 37.5003C48.8743 37.8858 48.8989 37.8581 49.254 38.037C49.3325 37.9863 49.3325 37.9863 49.3602 37.9246C49.3016 37.8272 49.254 37.7299 49.2065 37.6293C49.3666 37.4726 49.6068 37.6958 49.7519 37.7853C49.6766 37.9919 49.4784 38.3996 49.87 38.3996C50.2188 38.0536 49.9509 37.5929 49.7915 37.2802C49.7971 37.2604 49.8082 37.2437 49.8193 37.235C50.3901 37.0814 50.4067 37.1931 50.4876 36.6405C50.6358 36.5566 50.7896 36.464 50.941 36.3777C50.9434 34.9701 50.9545 33.568 50.9632 32.1659H51.1337C51.1424 33.5537 51.1448 34.9423 51.1614 36.3302C51.3826 36.3159 51.6537 36.403 51.6537 36.1322C51.7433 36.0926 51.7853 35.9976 51.8186 35.8916C51.8385 35.9137 51.8385 35.9137 51.9899 35.9137C52.0818 36.2019 52.3165 35.9026 52.5155 35.9026C53.03 36.1987 52.6075 36.5764 52.3696 36.9865C52.6415 37.1598 52.9206 37.1377 52.9769 36.7299C53.0245 36.7909 53.0744 36.8582 53.1331 36.9255H53.248C53.539 36.4671 53.8775 36.8582 54.258 36.5479C54.258 36.4339 54.2215 36.361 54.2437 36.2439C53.4407 34.8331 52.6019 33.4255 51.718 32.0598C51.7378 32.029 51.7378 32.029 51.8805 31.9625C52.7866 33.3447 53.6983 34.7579 54.4451 36.2272C54.6687 36.4228 55.1523 37.0007 55.5272 36.8162C55.5415 36.6793 55.4828 36.5479 55.4464 36.4164C55.7484 36.4394 55.8602 36.2407 56.0758 36.0428C56.0528 35.8306 55.9553 35.7633 55.8404 35.5876C55.9046 35.4506 56.2629 35.2915 56.3914 35.2076C56.4366 35.244 56.4786 35.2749 56.5317 35.3168C56.7132 35.2939 56.7132 35.2939 57.085 35.2076C57.1889 35.0207 57.2951 34.8331 57.4014 34.6518C57.751 34.6573 58.0919 34.8473 58.0586 34.4175C56.2685 33.169 54.3191 32.2863 52.2555 31.5848C52.2745 31.5207 52.2919 31.4621 52.3165 31.4122C54.3944 32.1105 56.2994 32.998 58.1371 34.2164C58.1371 34.1348 58.145 34.0541 58.1593 33.9757C58.4613 33.9226 58.4613 33.9227 58.5509 33.8807C58.5509 33.8364 58.5509 33.7968 58.5564 33.758C58.4217 33.6741 58.2909 33.5878 58.1593 33.5039C58.3463 32.8808 58.8165 32.462 59.4594 32.3615C59.4959 32.314 59.4959 32.2443 59.4737 32.1881C59.4063 32.1691 59.3199 32.1691 59.289 32.1105C59.331 32.0519 59.3587 31.9989 59.3984 31.9395C59.5434 31.9395 59.8177 32.2134 59.9351 32.3084C59.809 32.4311 59.7393 32.5847 59.6584 32.7557C59.5712 32.7415 59.4372 32.6853 59.3674 32.7557C59.3674 32.7945 59.3754 32.8278 59.3809 32.8808C59.5236 32.9758 59.6584 33.0653 59.8035 33.1603C59.9152 33.5039 59.9153 33.5039 59.9517 33.5403C60.1642 33.5458 60.3877 33.5537 60.6065 33.568C60.6232 33.6242 60.5978 33.6321 60.5614 33.6741C60.5614 34.0652 61.1155 34.7246 61.3248 35.0706C61.1068 35.2075 61.1068 35.2076 61.0735 35.2661C61.1686 35.7356 61.0481 36.8162 61.8568 36.6737C61.9519 36.73 62.0462 36.7885 62.1414 36.8495C62.139 36.9025 62.1303 36.9556 62.1247 37.0142C62.6503 37.4694 62.7034 37.7354 62.9222 38.3996C66.5103 42.1142 68.8902 46.5214 69.9502 51.5874C70.1127 52.6633 70.1991 53.5231 70.2245 53.5959C71.3597 51.9817 72.1929 50.4229 72.7304 48.5577C72.8502 47.6163 72.9144 46.6553 72.9144 45.6839C72.9144 40.2435 70.9404 35.2551 67.6765 31.387L67.6765 31.3869ZM36.1709 61.5166C36.2636 61.4493 36.3643 61.4936 36.4761 61.5079C36.5205 61.458 36.5205 61.458 36.5435 61.3962C36.5934 61.3931 36.641 61.3907 36.6862 61.3907C36.7504 61.4406 36.7504 61.4406 36.9486 61.7873C36.817 62.0613 36.9938 62.3819 36.9518 62.6724C36.4428 62.2085 36.0512 61.952 35.8133 61.3036C35.872 61.321 35.872 61.321 36.1709 61.5166V61.5166ZM60.0302 59.7567C60.1531 59.5888 60.4298 59.1115 60.6145 59.0529C60.7627 59.1985 60.827 59.1867 61.0426 59.2065C60.7096 59.5168 60.7041 59.6031 60.2649 59.7013C60.05 59.9997 59.8376 60.3101 59.6243 60.6196C59.2977 60.7732 58.9782 60.9299 58.654 61.0859C59.0091 60.5555 59.4737 60.0638 60.0302 59.7567ZM53.6143 56.9803C53.6365 56.5029 54.0115 55.9503 54.4705 56.3239C54.5236 56.5369 54.4705 56.8021 54.5545 56.989C54.8954 56.989 55.2141 56.7348 55.5526 56.6818C55.8856 56.989 56.1424 57.1425 56.1091 57.6595C55.3092 57.7347 55.0635 57.8131 55.2086 58.7069H55.1642C54.8145 58.4132 54.4594 58.2319 54.2913 58.6562C53.883 58.0585 53.883 58.0585 53.8244 57.916C53.9195 57.4244 53.9108 57.369 53.6143 56.9803ZM54.0622 59.3767C54.0701 59.2064 54.0844 59.1059 54.1819 58.9666C54.193 58.9943 54.193 58.9943 54.0622 59.3767ZM54.1232 58.7346C54.0701 58.8185 54.0701 58.8185 54.0004 58.8716C53.8355 58.3997 53.8355 58.3997 53.8244 58.2937C53.9195 58.4441 54.0202 58.5834 54.1232 58.7346ZM53.9671 60.128C53.9671 59.9942 53.9671 59.9942 54.0511 59.6031C54.193 59.8073 54.5093 60.128 54.5656 60.3576C54.3333 60.3101 54.1708 60.2372 53.9671 60.128ZM54.6687 60.4826C54.6552 60.466 54.652 60.4439 54.6465 60.4296C54.6909 60.4241 54.6909 60.4241 54.7384 60.4549C54.7163 60.466 54.6909 60.466 54.6687 60.4826ZM55.7286 61.6052C55.0857 61.3907 55.0349 61.3036 54.7305 60.6948C55.0405 60.4296 55.3481 60.6061 55.6644 60.8603C55.6787 61.1951 55.7009 61.268 55.9189 61.5166C55.8967 61.5941 55.8016 61.5997 55.7286 61.6052ZM57.8937 55.8102C57.8374 56.0112 57.7645 56.1173 57.6337 56.2828C57.5829 56.2828 57.5298 56.2883 57.4822 56.2883C57.2198 56.0952 57.7367 55.8775 57.8937 55.8102ZM57.3705 57.4133C57.4458 57.7316 57.5219 58.0474 57.6027 58.3744C57.2864 58.6729 57.0153 59.1732 56.5618 59.1423C56.4699 59.2761 56.4699 59.2761 56.3747 59.3767C56.3668 59.2484 56.3668 59.2484 56.3359 59.1645C56.232 59.1281 55.8935 59.0948 55.8856 59.075C57.001 58.2153 57.001 58.2153 57.0296 58.1678V57.4719C56.8615 57.179 56.8615 57.179 56.8472 57.1117C57.0153 57.2043 57.1889 57.3128 57.3705 57.4133ZM56.8615 57.5645C56.8393 57.7458 56.8282 57.9216 56.8282 58.1116C56.4366 58.4053 56.0505 58.6958 55.6644 58.9943C55.597 58.8993 55.5273 58.8518 55.4298 58.7964C55.2284 57.8606 55.4718 57.916 56.3969 57.7989C56.7132 57.6176 56.7133 57.6176 56.8615 57.5645H56.8615ZM56.722 55.5315C56.722 55.8102 56.2519 56.1791 56.148 56.4839C55.6367 56.1482 55.8856 56.3414 55.8856 55.936C55.6478 55.8102 55.1943 55.6289 55.1943 55.3051C56.0671 54.9108 55.8602 54.9781 56.722 55.5315ZM54.5315 55.6653C54.61 55.6542 54.7028 55.6455 54.7916 55.6289C54.8312 55.5703 54.8146 55.4951 54.7916 55.4389C54.8621 55.4254 54.9343 55.408 55.0072 55.4056C55.2086 55.7492 55.3148 55.8102 55.6644 56.0113C55.6644 56.1229 55.5859 56.2044 55.597 56.3327C55.8016 56.4585 56.8615 57.0309 56.7354 57.4022C56.5872 57.4719 56.4532 57.5479 56.3161 57.6255C56.2098 56.9636 56.1234 56.9415 55.5748 56.4665C55.2759 56.5369 54.9929 56.6596 54.7107 56.7768C54.6964 56.601 54.6909 56.4332 54.6719 56.2598C54.5656 56.1735 54.4451 56.0754 54.3777 55.9637C54.4285 55.8608 54.4705 55.7603 54.5315 55.6653ZM51.1726 53.9584C50.9101 53.9703 50.6446 53.9869 50.3901 54.0004C50.2553 53.5317 51.1424 53.945 51.1726 53.9584ZM62.4078 57.8385C62.472 57.7514 62.5362 57.673 62.606 57.5899C62.6258 57.5899 62.6337 57.5899 62.6424 57.6009C62.5616 57.673 62.4775 57.7514 62.4078 57.8385ZM63.4701 57.4022C63.168 57.3524 63.2045 57.7205 63.2013 57.916C63.1181 57.9216 63.0452 57.9271 62.9699 57.9327C62.9699 57.7989 62.9699 57.6928 62.8716 57.6009C62.9389 57.5249 62.9389 57.5249 63.2188 56.9803C63.2719 56.989 63.3163 57.0032 63.375 57.0198C63.4202 57.1346 63.5375 57.2882 63.4701 57.4022ZM63.5375 43.0665C63.585 43.0808 63.6461 43.0974 63.6992 43.1053C63.4867 43.6785 63.7333 43.7648 63.1371 44.064C63.1482 43.9548 63.1681 43.8487 63.1879 43.7481C63.1292 43.631 62.9112 43.3095 62.9413 43.1892C63.2434 43.2201 63.2885 43.2367 63.5375 43.0665V43.0665ZM63.2267 44.3205C63.2267 44.3625 63.2267 44.3625 63.2013 44.3736C63.1879 44.3569 63.1712 44.3372 63.1601 44.3205H63.2267ZM63.5066 47.1975C63.5066 46.9568 63.5066 46.9568 63.4701 46.6164C63.5066 46.6164 63.5375 46.6108 63.5708 46.6108C63.9569 45.9324 63.5375 45.3315 63.585 44.6253C64.0575 44.9744 64.2201 45.7194 64.2898 46.2981C64.1019 46.2981 64.0575 46.7921 64.0124 46.9434C63.4059 47.1025 63.8253 47.1357 63.7135 47.5711C63.6968 47.5711 63.6826 47.5798 63.6715 47.583C63.6215 47.5292 63.5763 47.4627 63.5375 47.4041H63.4257C63.2013 47.6274 62.9809 47.8562 62.7653 48.0739C62.9025 47.5997 63.1062 47.5126 63.5066 47.1975ZM62.5751 48.6352C62.6845 48.6526 62.6845 48.6526 62.8272 48.7278C62.8216 48.8537 62.8129 48.993 62.8073 49.1323C62.7931 49.1323 62.7851 49.1323 62.782 49.141C62.7178 48.9233 62.6924 48.8592 62.5362 48.7056C62.5497 48.6803 62.5616 48.6526 62.5751 48.6352ZM62.4355 56.0754C62.4355 56.0952 62.4434 56.1007 62.449 56.1229H62.388C62.3658 56.1118 62.3515 56.1007 62.3428 56.0952C62.4078 56.0675 62.4078 56.0675 62.4355 56.0754ZM62.1113 56.894H62.1723C62.147 56.9217 62.1303 56.9502 62.1113 56.9803V56.894ZM61.2638 47.454C61.3169 47.4683 61.3169 47.4683 61.8116 47.9963C61.7474 48.3755 61.7054 48.5996 61.3669 48.8252C61.1996 48.2584 61.0569 48.0098 61.2638 47.454ZM61.1068 45.6054C61.0926 45.8089 61.0926 45.8089 61.1235 46.3512C60.8635 46.9038 60.6312 46.9434 61.1068 47.2894C60.9752 47.739 60.9982 47.7279 60.5701 47.8562C60.5701 47.5831 60.6232 47.2894 60.2958 47.3091C60.3545 47.021 60.4108 46.7336 60.4639 46.4518C60.567 46.4351 60.6653 46.4264 60.7683 46.4153C60.8444 46.1525 60.8444 45.8873 60.9475 45.6221C60.9982 45.6165 61.0537 45.6134 61.1068 45.6054ZM50.44 45.949C50.6525 45.8342 50.865 45.7258 51.0893 45.6133C51.5983 45.6474 52.1017 45.6894 52.6241 45.6894C52.8065 45.4487 52.6495 45.0861 52.8231 44.7956C53.0189 44.8177 53.0189 44.8177 53.3598 44.9072C53.7824 45.3513 53.7094 45.5128 54.216 45.1526C54.5736 45.1835 55.3259 45.3822 55.6478 45.2706C56.1765 44.8929 56.347 44.7647 56.982 44.6895C57.1073 45.4883 57.0042 45.2951 57.7034 45.1526C57.7788 45.2286 57.8461 45.3062 57.9246 45.3846C57.8937 45.4883 57.7288 45.5777 57.6392 45.6474C57.4014 45.915 57.1747 46.1921 56.9455 46.4684C56.7497 46.4961 56.5428 46.5103 56.3668 46.5966C56.3668 46.7534 56.4532 46.8729 56.5317 47.0075C56.5317 47.3875 55.203 48.1744 54.9121 48.2251C54.1819 47.7952 53.5921 47.9567 52.831 48.0968C52.5797 47.8926 52.3308 47.6971 52.0819 47.5071C51.2177 47.2561 51.2177 47.2561 51.1083 47.2054C50.9966 46.6948 50.8792 46.3314 50.44 45.9878V45.949H50.44ZM46.1385 33.188C46.1028 33.1935 46.0663 33.1967 46.0298 33.2022C46.0441 33.18 46.0441 33.18 46.1385 33.188ZM41.6387 30.7361C41.7901 30.6356 41.9217 30.4875 42.0866 30.4369C42.081 30.7052 42.1286 30.5493 42.1984 30.6886C42.0945 30.8002 42.0501 30.8002 42.0668 30.9625C42.1397 30.9871 42.1397 30.9871 42.2372 30.9704C42.1841 31.124 41.9042 31.2586 41.7536 31.3283C41.7029 31.303 41.6609 31.2808 41.6141 31.2554C41.622 31.0797 41.6276 30.9039 41.6387 30.7361ZM42.3966 34.5955V34.6264C42.2483 34.6573 42.1056 34.7048 41.9605 34.7436C41.882 34.6961 41.8091 34.6407 41.7393 34.59C41.9605 34.59 42.1817 34.59 42.3966 34.5955ZM39.4546 34.7689C39.6448 34.7491 40.1118 34.8053 40.1118 34.5536C40.0753 34.529 40.0388 34.5037 40.0055 34.4839C40.0111 34.4649 40.0309 34.453 40.0388 34.4475C40.0642 34.4507 40.092 34.453 40.1118 34.4617C40.1593 34.5821 40.1593 34.5821 40.2125 34.6517C40.2402 34.6517 40.2656 34.6573 40.2965 34.6739C40.3163 34.6517 40.3441 34.6264 40.3663 34.6153C40.3441 34.5148 40.3219 34.4174 40.3052 34.3193C40.3219 34.3193 40.3441 34.3303 40.3663 34.3359C40.3718 34.3469 40.3805 34.3699 40.394 34.4032C40.6881 34.4119 40.7856 34.3865 40.9925 34.59C40.5787 35.0793 40.6128 35.1568 40 35.2241C39.9857 35.1909 39.9778 35.1655 39.9635 35.1434C39.824 35.1434 39.7653 35.1458 39.625 35.1964C39.5386 35.1434 39.4546 35.0793 39.3594 35.0373C39.3594 34.9391 39.4046 34.8639 39.4546 34.7689ZM39.1692 33.2022C39.1581 33.222 39.147 33.2386 39.1438 33.2663C39.1081 33.2552 39.0851 33.2386 39.0661 33.2354C39.0939 33.222 39.1272 33.2109 39.1692 33.2022ZM38.4144 35.8306C38.5873 35.696 38.7886 35.4616 39.0241 35.5622V35.6065C38.7974 35.7743 38.6998 35.8052 38.4144 35.8306ZM38.6824 37.7353C38.7641 37.7353 38.8362 37.7409 38.9147 37.7464C38.9147 38.048 39.2809 37.7211 39.4181 37.6957C39.5053 37.919 39.5917 38.1344 39.6837 38.3552C39.5021 38.6759 39.1914 38.3798 39.0296 38.2547C38.7807 38.3798 38.5318 38.7764 38.3613 39.0084C38.2495 39.0479 38.2495 39.0479 37.6423 39.1398C37.4266 38.6149 37.4607 38.0006 37.6534 37.4693C37.8214 37.3276 37.9951 37.193 38.1623 37.0648C38.6269 37.182 38.5009 37.4337 38.6824 37.7353ZM38.9012 33.2829C38.8592 33.3946 38.8362 33.4951 38.8116 33.5988C38.4787 33.6242 38.5064 33.6321 38.2297 33.769C38.221 33.7017 38.221 33.6463 38.221 33.5901C38.4787 33.4872 38.6348 33.3502 38.9012 33.2829ZM37.4663 37.3941C37.3791 38.0726 37.2031 38.5452 37.4409 39.1675C37.391 39.1707 37.3458 39.1786 37.3069 39.1873C36.974 38.5112 37.1389 38.4748 37.0215 37.7464C37.1389 37.4416 37.2173 37.1598 37.2816 36.8415C37.5527 36.7909 37.9419 36.4869 38.129 36.4869C38.1433 36.498 38.1544 36.509 38.1766 36.5312C38.1148 36.9864 37.8103 37.1234 37.4663 37.3941ZM35.7491 38.2325C35.0864 38.2325 34.8818 39.838 34.8208 40.3241C34.7732 40.3241 34.7257 40.3321 34.6805 40.3408C34.5941 40.4611 34.4934 40.6511 34.3531 40.6788C34.7867 40.0922 34.8121 39.4889 34.9572 38.7709C35.0999 38.5421 35.5256 37.9641 35.2711 37.7045C35.4891 37.4337 35.7151 37.1764 35.9362 36.9112C36.0203 36.9025 36.1011 36.8969 36.1828 36.8859C36.1828 37.1677 36.2415 37.33 36.0425 37.5256C36.0845 37.8074 36.1297 38.0781 36.1709 38.3552C36.0877 38.3885 36.0203 38.4336 35.9362 38.4835C35.9362 38.5785 35.9362 38.6759 35.9473 38.7819C35.9838 38.8073 36.0203 38.8358 36.0647 38.8714C36.0369 39.1065 35.9251 39.0084 35.8134 39.1675C35.7206 39.4667 35.5755 39.7652 35.5446 40.0779C35.5922 40.112 35.6508 40.1397 35.7095 40.1729C35.7095 40.8744 35.4384 40.4856 35.7935 41.1871H35.7491C35.5446 41.0358 35.4693 40.9717 35.2346 40.9353C35.4891 40.5141 35.4891 40.0922 35.5446 39.5982C35.7269 39.078 36.0401 38.7154 35.7491 38.2325ZM34.7645 42.1395H34.7257C34.6947 42.2843 34.6329 42.335 34.5544 42.4553C34.5544 42.3097 34.5742 42.2598 34.6329 42.1141C34.7645 42.1197 34.7645 42.1197 34.7645 42.1395ZM34.1184 36.7655C34.2135 36.6096 34.5354 36.2098 34.7257 35.9026H34.8565C34.7257 36.2438 34.7027 36.4869 34.6694 36.8582C34.583 36.9112 34.4934 36.9555 34.4149 37.0141C34.3198 36.9025 34.2555 36.8107 34.1184 36.7655ZM36.2969 38.8912C36.3025 39.1089 36.381 39.3717 36.381 39.5475C36.2494 39.6757 35.9981 40.0059 35.8245 40.0391C35.8046 40.0225 35.7801 40.0083 35.7571 40.0003C35.7571 39.7763 35.9053 39.4944 35.9759 39.2791C36.1653 39.2459 36.2185 39.059 36.2969 38.8912ZM35.7325 40.7429C35.8609 40.3772 36.1653 39.7874 36.5435 39.6647C36.4452 40.0059 36.1994 40.5141 36.1994 40.8466C36.2161 40.8601 36.2383 40.8878 36.2581 40.9052C36.1463 41.0192 36.1463 41.0192 35.9759 41.1451C35.8974 41.0026 35.8133 40.8743 35.7325 40.7429ZM36.3334 40.9218C36.515 41.195 36.6941 41.4721 36.8844 41.7515C36.8226 41.8711 36.5038 41.8655 36.3699 41.9969C36.1098 41.7816 35.964 41.6953 35.964 41.3406C36.0591 41.2235 36.1994 40.9662 36.3334 40.9218ZM36.4428 40.7516C36.4428 40.3495 36.901 39.8016 36.6212 39.4889C36.5934 39.3298 36.5934 39.3298 36.5712 38.7938C36.7472 38.7519 36.7472 38.7519 36.8931 38.7598C37.1444 39.268 37.3434 39.7541 37.6986 40.2038C37.9499 40.7121 37.8214 40.8403 37.6312 41.3826C37.4409 41.4832 37.2483 41.5805 37.058 41.6866C36.8535 41.3771 36.6466 41.0588 36.4428 40.7516ZM37.1167 36.7046C36.9042 37.14 36.84 37.8493 36.9486 38.3299C36.9232 38.3996 36.9232 38.3996 36.8146 38.5452C36.6576 38.5642 36.5149 38.5785 36.3699 38.5872C36.3421 38.6228 36.308 38.8073 36.289 38.8073V38.7709C36.2383 38.7408 36.1828 38.7154 36.1352 38.6877V38.5785C36.2105 38.5421 36.2858 38.5033 36.3556 38.4748C36.3421 38.2294 36.3421 38.2294 36.2383 37.5929C36.4285 37.3609 36.381 37.2041 36.3865 36.9025C36.7163 36.7046 36.725 36.6737 36.8368 36.3079C37.1024 36.1322 37.3878 35.8804 37.7406 35.9279C37.6986 36.023 37.6898 36.0451 37.7263 36.1488C37.8857 36.1488 38.0085 36.0617 38.1544 35.9842C37.8714 36.4924 37.6811 36.5565 37.1167 36.7046V36.7046ZM37.4552 35.7633C37.494 35.7356 37.5416 35.7047 37.5892 35.6881C37.5923 35.7047 37.5947 35.7213 37.6034 35.7522C37.5527 35.7546 37.5051 35.7546 37.4552 35.7633ZM36.8622 34.2694C36.9938 34.3699 37.0493 34.4364 37.2062 34.4174C37.2427 34.2638 37.2728 34.1182 37.3069 33.9733C37.5083 34.0121 37.7097 34.054 37.919 34.0849C37.6256 34.3778 37.4155 34.5235 37.3069 34.917C37.192 34.9423 37.0834 34.9645 36.9795 35.0009C36.8622 34.3699 36.8622 34.3699 36.8622 34.2694ZM35.1109 35.7744C35.2711 35.7047 35.4328 35.635 35.5922 35.5622C35.7626 35.3666 35.9529 34.8639 36.1408 34.7666C36.1408 34.8639 36.1463 34.9589 36.1487 35.0595C36.2383 35.1434 36.308 35.0793 36.3897 35.0207C36.4539 35.464 36.3897 35.3389 36.9375 35.506C37.0049 35.5931 37.077 35.677 37.1389 35.772C37.1722 35.772 37.36 35.7213 37.36 35.7941C36.6355 35.9446 36.7924 36.4639 36.3699 36.6935C36.205 36.7046 36.0369 36.7046 35.872 36.7125C35.6175 37.0141 35.3543 37.3047 35.0998 37.6063C35.0356 37.5588 34.9746 37.5168 34.9151 37.4812C34.9627 36.8217 34.8208 36.4394 35.1109 35.7744H35.1109ZM34.3475 34.7666C34.353 34.8307 34.3531 34.8307 34.3309 34.9423C34.1271 35.0064 33.9257 35.0793 33.7244 35.1624C33.9115 34.9589 34.0906 34.8837 34.3475 34.7666ZM33.4921 35.4339C33.814 35.3191 34.1438 35.2075 34.4791 35.0959C34.5378 34.9003 34.5885 34.4507 34.8929 34.4507C34.801 35.1624 34.5124 36.5565 33.6824 36.8075C33.6459 36.8779 33.6007 36.9555 33.5119 36.9785C33.4168 36.9421 33.3351 36.9025 33.2574 36.8693C33.2233 36.7046 33.1924 36.5233 33.1702 36.3523C33.2289 36.0285 33.4556 35.772 33.4921 35.4339V35.4339ZM32.9776 52.6569C32.8737 52.66 32.7984 52.66 32.7287 52.7297C32.8737 53.8943 32.8737 53.8943 32.8682 53.9584C32.3172 53.2071 32.0318 52.797 31.6465 51.9309C31.4919 51.4037 31.3358 50.8756 31.1875 50.3586C31.1764 49.7443 31.1732 49.1466 31.1621 48.5488C31.2771 48.4649 31.3913 48.3929 31.5062 48.3169C31.5791 48.4064 31.5958 48.4285 31.7131 48.4404C31.8479 48.1079 31.9787 47.7865 32.1047 47.4627C32.1943 47.5323 32.2221 47.549 32.3172 47.5632C32.4179 47.4484 32.5107 47.3225 32.6026 47.2085C33.7323 48.8117 33.7323 48.8117 33.9479 49.088C34.051 49.0991 34.1517 49.1133 34.2643 49.1212C34.2643 49.3983 34.3364 49.6635 34.3531 49.9343C34.3229 50.0823 34.2643 51.0513 34.1017 51.1408C33.9202 51.4678 33.7379 51.7884 33.5531 52.1098C33.3859 52.1098 33.2154 52.1098 33.0473 52.1209C32.9467 52.2191 32.9831 52.5064 32.9776 52.6569ZM29.7137 43.6729H29.6242C29.4846 43.9271 29.3586 44.1836 29.2238 44.4464C29.2103 44.4464 29.2016 44.4543 29.185 44.4662C29.1065 44.1527 29.0224 43.8566 28.9527 43.5526C29.4339 43.0831 29.529 43.0048 29.6828 42.3516C29.7978 42.9517 29.8057 42.977 30.2251 42.5052C31.0361 43.1195 31.3191 43.2929 31.4142 44.3205C31.1764 44.7757 30.9386 45.2365 30.7007 45.6917C30.3622 45.801 30.3622 45.801 30.2592 45.8089C30.1109 45.6133 29.9706 45.4123 29.8311 45.2143C29.6915 44.7314 30.0071 44.0664 29.7137 43.6729V43.6729ZM29.5821 44.1416C29.6099 45.0829 29.5909 45.1945 30.0967 45.915C30.0523 46.3512 30.0182 46.7787 29.6575 47.0605C29.6186 46.8729 29.6186 46.8729 29.5734 46.8064C29.5433 46.7921 29.5124 46.7922 29.4846 46.7922C29.4061 45.8089 29.1374 45.0045 29.5821 44.1416ZM30.0824 47.2893C30.1498 46.8396 30.3036 46.4177 30.382 45.9767C30.5192 45.9403 30.6564 45.9126 30.8014 45.8793C31.0424 45.4178 31.285 44.9546 31.5316 44.4994C31.5482 44.5414 31.5593 44.5857 31.5704 44.6419C31.1764 44.7172 31.8867 47.0075 31.9597 47.3091C31.859 47.5909 31.7607 47.8815 31.6576 48.1633C30.9639 47.7952 30.975 48.8252 30.9695 49.141H30.8823C30.5691 49.0682 30.3091 48.6858 30.0824 48.4626V47.2893ZM32.2419 47.2054C31.8027 46.9038 31.6101 45.4122 31.5117 44.8288C31.9121 44.7678 31.327 43.3096 31.3667 43.0721C31.3913 43.0586 31.4142 43.0443 31.4388 43.0356C31.4618 42.8852 31.5007 42.0698 31.5205 42.0112C31.8614 41.6169 32.1325 41.1617 32.6137 40.9583C32.6502 41.1783 32.6502 41.1783 32.7287 43.4322C32.8151 43.5075 32.8959 43.5613 32.9966 43.6112C33.1147 43.5526 33.1924 43.3935 33.2741 43.2985C33.5761 43.2985 33.7323 44.3292 33.7323 44.6079C32.2863 47.1745 32.2863 47.1745 32.2419 47.2054ZM32.3172 40.8743C32.5051 40.5141 32.6866 40.165 32.8793 39.8214C33.1338 39.8214 33.1813 39.8214 33.3716 39.6457C33.5761 39.8602 33.2376 40.1119 33.1171 40.2545C32.6391 40.2545 32.7366 40.2877 32.6391 40.7516C32.5352 40.7928 32.429 40.8292 32.3172 40.8743ZM32.4345 36.1742C32.5606 36.403 32.6137 36.4227 32.8682 36.3721C32.8127 36.6935 32.7929 37.4559 32.4853 37.6372C32.4401 37.4052 32.4345 37.425 32.1943 37.3862C32.1047 37.1764 31.8304 36.6935 31.8812 36.4639C32.0294 36.3887 32.2562 36.1742 32.4345 36.1742ZM32.2918 37.6095C32.3093 37.7963 32.2673 37.9443 32.4655 37.9443C32.5915 37.8074 32.7255 37.6791 32.8547 37.5509C33.1536 38.0813 33.1956 38.7709 33.3161 39.3717C33.1702 39.5396 32.9078 39.5277 32.754 39.6425C32.3093 40.4975 31.9676 41.1617 31.35 41.8853C31.2375 42.2202 31.2153 42.6113 31.1621 42.958C31.1542 42.9691 31.1368 42.9715 31.1344 42.977C30.9021 42.7957 30.6698 42.6144 30.4383 42.4379C30.4383 40.6788 31.1542 38.8271 31.702 37.1851C31.7607 37.1455 31.8027 37.1091 31.8669 37.1091C31.9843 37.3775 31.9787 37.6095 32.2918 37.6095ZM31.7718 36.8328C31.7242 36.8582 31.6798 36.897 31.6346 36.9334C31.6521 36.8328 31.6711 36.741 31.6965 36.6405H31.7242C31.7353 36.7046 31.7551 36.7655 31.7718 36.8328ZM31.2374 36.224C31.3912 36.1742 31.5371 36.1235 31.6965 36.0791C31.7107 36.2351 31.7353 36.3467 31.6576 36.4924C31.4507 36.4924 31.2604 36.7576 31.109 36.8859C31.1542 36.665 31.1931 36.4394 31.2374 36.224ZM30.9695 36.5676C30.9299 36.7742 30.9021 36.9785 30.8656 37.1851C31.1288 37.425 31.2462 36.8693 31.4618 36.8693C31.4388 37.0141 31.3912 37.14 31.4087 37.2801C31.4222 37.288 31.4388 37.3047 31.4674 37.3213C31.3667 37.5928 31.2795 37.8581 31.1931 38.1233C31.1066 38.0781 30.9972 37.9918 30.9021 38.0536C30.6167 38.626 30.3313 39.2126 30.0523 39.7874C29.9318 39.1873 29.9318 39.1873 29.9151 38.9363C30.2116 38.0781 30.5327 37.3609 30.9695 36.5676ZM29.7724 39.4026C29.8255 39.6647 29.7581 40.1896 30.0967 40.1452C30.9299 38.3885 30.9299 38.3885 31.0282 38.246C31.0424 38.2682 31.0615 38.2911 31.0892 38.3077C30.6754 39.6005 30.4605 40.8545 30.2251 42.2036C29.9651 42.525 29.9651 42.525 29.9151 42.5472C29.7867 41.9162 29.7867 41.9162 29.7391 41.8014H29.6186C29.4616 42.4997 29.4704 42.8266 28.9416 43.2929C29.1097 42.0112 29.2967 40.6004 29.7724 39.4026ZM28.8631 47.6076C28.7965 46.4153 28.7878 45.2143 28.8686 44.0134C29.0985 44.8763 29.3776 45.8794 29.2745 46.7787C28.9725 47.3226 28.9725 47.3226 28.8631 47.6076ZM29.1739 49.9145C29.0985 49.3984 28.9979 48.8782 28.9614 48.3565C29.445 48.6051 29.445 48.8925 29.6186 49.4095C29.4902 49.552 29.2745 49.7388 29.2183 49.9145H29.1739ZM29.3055 50.1497C29.3586 49.8955 29.644 49.6636 29.8057 49.4704C29.7613 49.1213 29.5909 48.7666 29.4759 48.4341C28.6594 48.0018 28.9305 47.9765 29.2183 47.2339C29.2183 47.4627 29.1485 47.9258 29.2801 48.1079H29.3641C29.4846 47.9512 29.4252 47.2086 29.4252 47.002H29.4704C29.4759 47.1025 29.4846 47.2086 29.5488 47.2925C29.6884 47.2925 29.7978 47.1975 29.904 47.1025C29.8985 47.5799 29.8929 48.0517 29.8929 48.5346C30.2592 48.8838 30.474 49.2638 30.9885 49.3224C30.9885 49.6715 30.9885 50.0151 30.9972 50.3642C31.3358 51.5232 31.3358 51.5232 31.3191 51.5454C30.8966 51.0094 30.6754 50.6184 30.4209 49.9874C29.9936 49.9145 29.9151 50.4117 29.8255 50.7189H29.7867C29.6242 50.5178 29.4616 50.331 29.3055 50.1497H29.3055ZM34.4205 59.8549C34.4062 59.8604 34.3927 59.8684 34.3895 59.8739C34.1462 59.7456 33.8861 59.5556 33.6237 59.5168C33.2067 58.9833 32.7818 58.4299 32.4179 57.8464C31.526 55.4334 30.5525 53.0314 29.4902 50.6801C29.5988 50.764 29.8144 51.0095 29.8564 51.0403C30.1442 50.8923 29.9151 50.2273 30.3067 50.194C30.6088 50.954 30.9386 51.3839 31.4785 52.0181C31.9708 53.0955 32.1103 53.0314 31.7662 54.0677C31.7972 54.6433 31.744 54.576 32.3172 54.6852C32.3148 54.7683 32.3093 54.8499 32.3037 54.9362C32.1777 54.8863 31.9597 54.7098 31.8305 54.7913C31.9597 56.073 32.9189 57.4023 33.814 58.2462C34.0431 58.7766 34.2389 59.307 34.4204 59.8549H34.4205ZM33.9202 57.4023C33.6713 57.525 33.7577 57.6311 33.6205 57.8131C33.0783 57.3128 31.9288 55.7073 32.0905 55.0478C32.211 55.1064 32.2919 55.1769 32.429 55.1769C32.5241 55.0565 32.4988 54.724 32.4988 54.5617C32.4655 54.534 32.4655 54.534 31.9787 54.4255C31.9597 54.0091 32.0715 53.7629 32.211 53.3695C32.544 53.8191 32.7731 54.0899 32.8738 54.6266C31.9343 55.313 33.7101 56.6486 33.9202 57.4023ZM33.0862 54.0202C32.9324 52.9839 32.9324 52.9839 32.9411 52.8557C33.2796 52.7804 33.1702 52.6435 33.1813 52.2944C33.9559 52.2944 33.8108 52.026 34.2389 51.2889C34.2555 51.2858 34.2754 51.2747 34.2944 51.2747C34.3087 51.3475 34.3087 51.3475 34.3531 52.4559C34.5941 52.9704 34.9405 53.4312 34.8818 54.0036C34.7169 54.0677 35.2877 54.9164 35.3884 55.07C35.6199 55.3439 35.8609 55.6289 36.0956 55.9195C35.8522 55.9503 35.6064 55.9978 35.3718 56.0477C34.2754 55.587 33.9337 54.9869 33.0862 54.0202ZM35.9529 57.0729C35.6033 57.1117 35.2568 57.1513 34.9151 57.1846C34.8121 56.7769 34.717 56.3604 34.6194 55.9503C34.8818 55.9503 35.1506 56.1847 35.4328 56.2155C36.7052 56.0342 36.4674 56.0928 35.6706 55.1009C35.9981 55.2323 36.6862 55.5703 37.1841 55.7738C37.1167 56.3858 36.4175 56.6985 35.9529 57.0729H35.9529ZM37.6423 54.6678C36.7837 54.534 36.1233 54.249 35.3179 53.8999C35.3242 53.4645 35.3377 53.037 35.3543 52.6039C35.9584 52.7045 36.1772 52.881 36.331 53.4898C36.5546 53.6378 36.9177 53.2357 37.1841 53.2357C37.4663 53.3695 37.7541 53.5064 38.0395 53.6434C38.087 53.9173 38.1433 54.2268 38.1203 54.5119C37.9499 54.576 37.8183 54.6433 37.6423 54.6678ZM39.6448 52.2326C39.6393 52.2833 39.3008 52.7108 39.2699 52.7298C39.189 52.657 39.1081 52.5849 39.0241 52.5176C39.0241 52.4448 39.5695 52.2635 39.6448 52.2326ZM38.1013 47.6076C38.1013 48.2418 38.1766 48.8783 38.1624 49.51C38.1259 49.4934 38.087 49.4792 38.045 49.4705C37.9753 49.51 37.9665 49.518 37.9554 49.605H37.919C37.7319 49.4095 37.5416 49.2029 37.3601 49.0129C37.1365 48.4231 36.5435 47.5126 36.6632 46.8729C37.4465 46.8144 37.3513 46.9205 37.7596 46.2982C38.0363 46.2816 38.1203 46.3259 38.3613 46.4708C38.4311 47.0914 38.4699 47.1413 38.1013 47.6076ZM35.914 47.2672C35.7682 47.2894 35.6318 47.3202 35.4947 47.3511C35.2711 46.8619 35.413 46.4882 35.872 46.1866C35.8776 46.3172 35.8918 46.4431 35.9053 46.58C36.0401 46.6275 36.1828 46.6806 36.331 46.7249C36.3556 46.9038 36.3556 46.9038 36.3556 47.0075C36.0956 46.9204 36.0956 46.9205 35.8245 46.8619C35.8134 46.8872 35.7935 46.9038 35.7801 46.9434C35.8189 47.0495 35.8665 47.1524 35.914 47.2672ZM36.0877 46.4597C36.0845 46.3679 36.0821 46.276 36.0821 46.1866C36.205 46.1866 36.331 46.1866 36.4539 46.1921C36.7084 45.801 36.2161 45.368 36.9906 45.3846C37.2427 45.6166 37.494 45.8453 37.7596 46.0773C37.7461 46.1082 37.7461 46.1082 37.6145 46.1612C37.1365 46.9766 37.1167 46.3227 36.515 46.7249C36.4761 46.5301 36.2636 46.5159 36.0877 46.4597H36.0877ZM36.2161 45.9879C36.2414 45.9514 36.2637 45.9237 36.289 45.8905C36.297 45.9324 36.3025 45.9744 36.3081 46.0187H36.2304C36.2185 46.0076 36.2161 45.9966 36.2161 45.9879H36.2161ZM38.4929 46.3172C37.8468 45.957 37.368 45.2231 36.641 45.1922C36.4174 45.0695 36.1883 44.9547 35.9695 44.8344C35.7571 44.3657 35.9981 44.3483 35.4804 44.1836C35.4273 44.0554 35.3773 43.9216 35.3242 43.7925C35.3543 43.7791 35.3884 43.7735 35.4249 43.7648C35.4249 43.6477 35.4273 43.631 35.3543 43.536H35.3012C35.2148 43.673 34.0399 45.1946 34.1691 45.6134C34.3475 45.7195 34.5378 45.801 34.5965 45.8454C34.7027 46.0441 35.0301 46.6584 35.2711 46.6077C35.2735 46.6386 35.2735 46.6386 35.1506 47.0265C35.3123 47.3875 35.3123 47.3876 35.4075 47.5411C35.6397 47.5411 35.914 47.4485 36.1408 47.3875C36.1408 47.2894 36.1154 47.2253 36.0821 47.1215C36.2105 47.1635 36.3421 47.2086 36.4761 47.2585C36.8146 48.1214 37.0493 49.2219 37.8658 49.7697C37.9499 50.487 38.0085 51.247 38.0363 51.965C38.3502 52.2191 40.0198 53.1882 38.9345 53.6513C38.2829 53.5373 37.7763 53.3022 37.1698 53.0314C36.932 53.0765 36.7084 53.2072 36.4904 53.3022C36.3136 52.6435 35.9053 52.5287 35.3044 52.4147C35.195 51.87 35.0864 51.3167 34.9802 50.7696C35.0024 50.4957 35.0864 49.9344 35.111 49.6216C34.9405 47.8926 34.9405 47.8926 34.927 47.591C35.0357 47.443 35.0999 47.382 35.1165 47.1975C34.9936 47.1302 34.8818 47.2672 34.7867 47.3226C34.8121 46.8508 34.8121 46.8508 34.8089 46.5381H34.6781C34.5069 47.3092 34.4204 48.1388 34.3087 48.9345C34.2135 48.9234 34.1271 48.9092 34.0399 48.9012C32.6756 46.9854 32.6756 46.9854 32.6502 46.9149C33.0387 46.2111 33.4469 45.5018 33.8417 44.7956C33.9979 45.1835 33.9979 45.1835 34.0288 45.2199C34.6385 44.2113 35.2711 43.2178 35.9362 42.2598C35.8831 42.0888 35.8245 41.8822 35.7016 41.754C35.6176 41.7738 35.5335 41.7959 35.4495 41.8102C35.4495 41.7175 35.4891 41.6091 35.4328 41.5331H35.3012C35.2346 41.659 35.1617 41.7848 35.0999 41.9163C34.893 41.8909 34.9017 41.9527 34.8874 42.1395C34.8597 42.1284 34.8398 42.1197 34.8121 42.1142C34.8486 42.0532 34.8375 41.9273 34.8121 41.8545C34.9492 41.4634 34.9294 41.2655 35.3242 41.1254C35.7016 41.3407 35.7571 41.4025 35.8665 41.8212C35.9981 41.9273 36.1352 42.0413 36.2716 42.1593C36.2549 42.2654 36.2383 42.3715 36.2161 42.4799C36.1772 42.4158 36.1487 42.4079 36.0956 42.3881C35.8918 42.6755 35.8918 42.6755 35.8665 42.7538C36.0314 42.8908 36.2185 43.1054 36.4539 43.0389C36.5546 43.2843 36.8313 43.2819 37.0636 43.3262C37.6788 43.9018 37.4718 44.893 38.5318 44.8455C38.596 44.7505 38.596 44.7505 38.6158 44.7505C38.6967 44.8708 38.772 44.9991 38.856 45.1162C38.8283 45.136 38.8029 45.1502 38.7886 45.1582C38.8196 45.7448 38.8116 45.8454 38.4929 46.3172ZM37.8714 42.248H38.0593V42.6422H37.9974C37.9586 42.6311 37.9245 42.6145 37.8857 42.6003C37.8801 42.4886 37.8714 42.3628 37.8714 42.248ZM38.5064 42.9969C38.5461 43.1893 38.5936 43.3769 38.6071 43.578C38.5706 43.388 38.5373 43.1893 38.5064 42.9969ZM41.9938 51.0514C41.8797 50.9366 41.7703 50.8115 41.6553 50.6999C41.7592 50.3809 41.8963 49.7586 42.3688 49.7586C42.7993 49.9621 43.0736 49.9874 43.4288 49.5939C43.8228 49.7167 44.2255 49.8394 44.6227 49.9652C44.7709 49.8892 44.9192 49.8117 45.073 49.7388C45.1205 50.099 45.1205 50.099 45.1515 50.1774C45.2355 50.194 45.2355 50.194 46.0211 50.2083C45.8007 50.4228 45.1792 50.2503 44.9755 50.5178C44.9755 50.7498 44.9723 50.8503 44.8439 51.0293H44.4831C44.3912 51.2161 44.304 51.4037 44.212 51.5906C43.5683 51.6127 43.5683 51.6127 43.3082 51.6349C43.2306 51.7695 43.1544 51.9001 43.0736 52.026C43.0458 52.026 43.0118 52.0371 42.9896 52.0426C42.5369 51.889 42.0866 51.7386 41.6387 51.5906C41.6387 51.4006 41.9938 51.2968 41.9938 51.0514H41.9938ZM42.9 53.5927C42.4441 53.4336 41.997 53.2776 41.5491 53.1264C41.5491 52.7638 42.1587 53.2269 42.1587 52.8081C41.9938 52.3696 41.9938 52.3696 41.7536 51.8391C42.1587 51.965 42.7327 52.2326 43.1545 52.2326C43.2306 52.0988 43.3082 51.965 43.3899 51.8225C44.3182 51.6436 44.2231 52.0426 44.5838 51.2383C44.6956 51.2272 44.805 51.2216 44.9223 51.2161C45.0983 50.9707 45.1681 50.8947 45.1792 50.6049C46.0378 50.4228 45.8451 50.3587 45.5764 51.163C45.5708 51.2382 45.5629 51.3032 45.5629 51.3697C45.616 51.4449 45.9966 51.8391 45.9656 51.9064C45.8895 51.8471 45.7865 51.6879 45.6771 51.794C45.6882 51.9231 45.7666 52.1352 45.7056 52.2413C45.4059 52.4788 45.1071 52.7108 44.805 52.9507C44.5838 52.9926 44.4078 52.8081 44.1668 52.8081C43.6666 53.3805 44.0915 53.523 44.2786 54.249H44.2374C44.0328 54.1406 43.7926 53.9838 43.5604 53.945C43.4732 54.0313 43.3844 54.1097 43.2972 54.196C43.1545 54.1572 42.9816 53.7297 42.9 53.5927ZM47.4061 60.6062C47.2991 60.6196 47.2071 60.6283 47.1175 60.6537C47.0731 60.6117 47.0335 60.5777 47.0002 60.55C47.0224 60.056 47.0224 60.056 47.0446 59.877C47.1762 60.0195 47.3165 60.1644 47.4537 60.3046C47.4339 60.4051 47.414 60.5025 47.4061 60.6062ZM49.2659 53.8025C49.4419 53.8049 49.6092 53.8223 49.7828 53.8334C49.7575 53.9703 49.6568 54.0677 49.5759 54.1651C48.7927 53.8445 48.1188 53.6711 47.4727 53.143C47.9452 52.5034 48.8569 53.4977 49.266 53.8025L49.2659 53.8025ZM46.7148 50.3809C46.9693 50.5344 47.2547 50.6912 47.4782 50.8923C47.4782 51.0293 47.2325 51.2383 47.1453 51.3388C47.2491 51.7077 47.2491 51.7077 47.2547 51.8225H46.9693C46.8575 51.9761 46.9804 52.3917 47.0731 52.5485C47.4537 52.7804 47.4537 52.7804 47.4782 52.8081C47.3863 52.9419 47.2491 53.0401 47.2491 53.2048C47.9761 53.7629 48.6254 53.987 49.4951 54.3218C49.7606 54.291 49.8415 54.0986 49.9874 53.8777C50.096 53.8555 50.096 53.8555 50.1998 53.8722C50.1911 53.9585 50.1911 54.0535 50.1911 54.1516C49.6988 54.2601 50.1523 55.9139 50.18 56.0928C50.1158 56.0675 50.0793 55.9725 50.0516 55.9028H49.9509C49.2992 56.6066 48.6476 57.0421 47.8366 57.5646C47.0898 57.7823 47.0898 57.7823 47.0589 57.8131C46.8076 59.3379 46.8076 59.3379 46.7735 59.4385C46.5277 59.5833 46.2923 59.7314 46.0552 59.8739C45.4202 59.3379 45.1681 58.2209 44.8692 57.4363C44.7884 56.989 44.7123 56.548 44.637 56.1007C44.7353 55.6376 45.0484 55.2125 44.4887 55.07C44.3658 55.1705 44.3404 55.2964 44.2786 55.45C44.1391 55.4389 43.9996 55.4334 43.8703 55.4255C43.7926 55.2909 43.7197 55.1705 43.6499 55.0399C43.8006 55.0399 44.0162 54.8808 44.0162 54.724C43.9155 54.6235 43.6499 54.6433 43.5207 54.6266C43.4621 54.534 43.3899 54.4612 43.3899 54.3472C43.8148 53.9585 44.1058 54.534 44.4499 54.3108C44.4499 53.8999 44.1502 53.5397 44.1026 53.1375C44.3714 52.8723 44.4887 53.1715 44.8185 53.1715C45.1792 52.881 45.5542 52.5849 45.9204 52.2967C45.9204 52.1906 45.9205 52.0988 45.8895 51.9927C46.083 51.9816 46.083 51.9816 46.1726 51.9531C46.1726 51.7164 45.9038 51.4845 45.7476 51.3087C45.8118 51.0902 45.8729 50.8757 45.9315 50.6548C46.6117 50.5265 46.6118 50.5265 46.6784 50.4957C46.6926 50.4569 46.6982 50.4117 46.7148 50.3809H46.7148ZM46.3961 50.3587C46.343 50.384 46.343 50.384 46.0076 50.4339C46.0941 50.3753 46.1749 50.236 46.2843 50.236C46.3232 50.2803 46.3596 50.3167 46.3961 50.3587ZM46.1614 49.9819C45.8729 49.9874 45.5851 49.993 45.3029 49.9985C45.2775 49.8307 45.2577 49.6636 45.241 49.5013C44.8494 49.5013 44.7852 49.8307 44.3404 49.6858C44.5727 49.2306 44.5925 49.2614 44.4633 48.7666C44.9223 48.5687 44.9477 48.7951 45.3417 49.1324C45.5407 49.1498 45.7421 49.1775 45.949 49.2029C45.9403 49.2947 45.9403 49.3786 45.9403 49.4704C46.1527 49.6636 46.1979 49.6858 46.1614 49.9819H46.1614ZM46.9915 48.7358C46.0663 48.8838 46.0663 48.8838 46.0211 48.9091C46.0076 48.9432 45.9965 48.9788 45.9902 49.0184H45.8816C45.4567 48.9788 44.9723 48.7809 44.8359 48.3312C44.9866 48.3312 45.2941 48.697 45.4035 48.8007C45.5407 48.7951 45.8396 48.8007 45.9514 48.7278C45.9514 48.4903 45.6771 48.2307 45.5629 48.0518C45.5629 48.0185 45.5708 47.9963 45.5764 47.9623C46.186 47.6971 45.9767 48.0913 46.343 48.0209C46.8575 47.6694 47.2856 48.1048 47.8366 48.2584C47.8366 48.275 47.8421 48.2869 47.8477 48.2948C47.5599 48.4405 47.2689 48.5885 46.9915 48.7358ZM45.0595 48.2307C45.0674 48.2085 45.073 48.1974 45.0761 48.1745C45.1681 48.1388 45.2743 48.1048 45.3694 48.0684C45.4678 48.2251 45.6525 48.423 45.6945 48.6051C45.616 48.6131 45.5407 48.6131 45.4646 48.6218C45.3274 48.4903 45.1911 48.3621 45.0595 48.2307ZM42.6796 44.3206C42.7438 44.1108 42.8135 43.9018 42.8778 43.6975C43.4541 43.7316 43.462 43.6366 43.6666 44.1108C43.7871 44.1583 44.1422 44.1583 44.2453 44.0973C44.2286 43.9572 44.2231 43.8234 44.2065 43.6809C44.2651 43.673 44.3206 43.6587 44.3769 43.6476C44.4023 43.6025 44.4268 43.5527 44.4498 43.5075C44.7352 43.483 44.6956 43.4576 44.7122 43.1893C45.2775 43.198 45.8396 43.2178 46.4127 43.2344C46.4603 43.388 46.519 43.536 46.5697 43.692C46.7314 43.7427 46.8884 43.7925 47.0533 43.8432C47.0589 43.9216 47.0787 43.9881 47.1342 44.0498C47.7105 43.9406 47.7105 43.9406 47.7858 43.9437C47.9261 44.3657 48.0689 44.7813 48.2084 45.2033C48.2948 45.2896 48.3986 45.2199 48.516 45.2199C48.6333 45.3822 48.9552 45.368 49.1454 45.3846C49.4197 45.6474 49.503 45.801 49.8811 45.82C49.9144 45.862 49.9588 45.915 50.0008 45.9657C49.9311 46.181 49.7519 46.0662 49.6988 46.4518C49.461 46.4708 49.212 46.4882 48.9718 46.5104C48.9187 46.6164 48.9187 46.6164 48.8125 47.0883C47.9452 47.2751 48.1664 47.1833 48.0934 48.1388H48.0514C47.7105 48.0296 46.863 47.5831 46.5412 47.6496C46.2843 47.8562 46.301 47.823 46.0742 47.6076C45.6747 47.6076 45.3219 47.9568 44.9136 48.0098C44.8105 47.918 44.7265 47.8728 44.6036 47.8143C44.522 47.4485 44.4498 47.0883 44.3714 46.717C44.1137 46.6529 43.619 46.6165 43.5572 46.3425C43.9012 45.862 43.8878 45.9404 43.6975 45.3569C43.4731 45.3569 43.2639 45.4487 43.0482 45.5128C42.8334 45.4487 42.6146 45.3846 42.3942 45.3316C42.2261 44.7956 42.33 44.6254 42.6796 44.3206ZM42.3942 45.558C42.5503 45.558 42.7152 45.6055 42.8778 45.6419C42.6344 46.4264 42.6621 46.2364 43.4264 46.5301C43.443 46.5713 43.462 46.6077 43.4795 46.6529C43.7284 46.7138 43.971 46.7843 44.212 46.8508C44.2849 47.2055 44.3571 47.5546 44.43 47.9093C44.4887 47.9623 44.6845 48.0517 44.8018 48.1325C44.522 48.1634 44.6591 48.2473 44.6591 48.4848C44.1533 48.7168 44.2286 48.6859 44.3967 49.1854C44.3206 49.3145 44.2453 49.4396 44.1724 49.5741C44.1391 49.5765 44.1026 49.5939 44.0693 49.605C44.0328 49.5852 43.9995 49.5742 43.9631 49.5631C43.9409 48.8118 43.6135 48.5743 43.1655 47.9568C43.0736 47.5633 43.0934 47.4097 42.7715 47.1865C42.7715 46.8983 42.9507 46.8817 42.5424 46.6109C42.3466 46.6077 42.1508 46.6077 41.9693 46.6077C42.1056 46.2562 42.2483 45.9039 42.3942 45.558ZM41.5245 47.2751C41.6363 47.097 41.6363 47.097 41.7592 46.8286C42.0025 46.8144 42.2483 46.8064 42.4861 46.7922C42.7152 47.021 42.5369 46.9569 42.5369 47.2252C42.6431 47.306 42.7573 47.3875 42.869 47.4651C43.0236 48.275 43.7395 48.7112 43.7696 49.4791C43.286 49.3453 43.2131 49.605 42.7327 49.7444C42.6431 49.6913 42.548 49.6383 42.4528 49.5939C42.2879 48.6352 41.6838 48.0185 41.1329 47.2221C41.2113 47.2142 41.3953 47.2783 41.5245 47.2751ZM39.7289 45.801C40.5201 45.8675 40.2212 45.1922 40.2489 44.5272C40.3441 44.4187 40.4527 44.315 40.5565 44.2145C40.6485 44.2533 40.6429 44.357 40.7492 44.3736C40.8253 45.2286 40.8253 45.2286 40.8253 45.4772C40.635 45.7646 40.3718 45.9966 40.459 46.3512H40.417C40.3163 46.3172 40.3163 46.3172 39.3341 46.139V45.6055C39.4879 45.6474 39.6536 45.6474 39.7289 45.801V45.801ZM39.5108 45.4352C39.4855 45.4487 39.2698 45.3569 39.189 45.3569C39.0661 45.5302 39.1271 45.8675 39.1271 46.0773C38.9456 45.8984 39.0019 45.558 38.9789 45.3094C39.4688 45.2587 38.6071 44.7338 38.753 44.4298C38.7498 44.315 38.7411 44.2113 38.7355 44.0997C38.9932 44.5438 39.2476 44.9935 39.5108 45.4352ZM39.9382 42.0611C39.5774 42.1815 39.2278 42.2931 38.8727 42.4158C38.6404 42.3042 38.4565 42.2733 38.2828 42.2147C38.202 41.9408 37.8857 41.9527 38.1203 41.6423C38.045 41.5331 37.9499 41.4967 37.8413 41.4302C37.8413 41.2069 38.0085 40.9219 38.087 40.701C38.087 40.2038 37.5083 39.8998 37.4552 39.4802C37.5923 39.4502 37.6732 39.4502 37.7041 39.31C37.9554 39.2792 38.202 39.2459 38.462 39.215C38.99 40.036 38.99 40.036 39.0827 40.154C39.8018 40.249 39.564 40.4524 39.4879 41.1174C39.824 41.7959 39.824 41.7959 39.9382 42.0611ZM39.9191 39.7653C39.5774 39.6568 39.5751 39.6568 39.4577 40.017H39.3594C38.99 39.9331 38.7664 39.3441 38.5706 39.0369C38.7133 38.8437 38.8727 38.6624 39.0518 38.4835C39.6226 38.9419 39.6139 38.3078 40.1118 38.5563C40.0388 38.6537 39.9691 39.5278 39.9191 39.7653H39.9191ZM40.0809 38.3553C40.0055 38.3387 39.9302 38.3212 39.8573 38.3133C39.7844 38.1344 39.5695 37.7354 39.6004 37.5533C39.6393 37.5256 39.6757 37.5003 39.7146 37.4813C39.7201 37.5699 39.7312 37.6594 39.7455 37.7489C39.9136 37.5929 39.9136 37.5929 40.0055 37.5256C40.0951 37.6792 40.3718 38.0228 40.3718 38.193C40.2711 38.2769 40.1982 38.3157 40.0809 38.3553ZM41.3453 36.9698C41.3929 37.4694 41.5776 37.7299 41.3287 38.193C40.9957 38.2912 40.6659 38.3798 40.333 38.4835C40.3718 38.3577 40.551 38.3212 40.6152 38.1962C40.4979 37.9919 40.1736 37.5731 40.1736 37.3411C40.4471 37.1377 40.6715 36.9532 40.7999 36.654C41.3588 36.3159 41.8963 35.9367 42.4275 35.5511C42.4251 35.5401 42.4164 35.5313 42.4164 35.5313C42.3775 35.5258 42.33 35.5314 42.2848 35.5401C41.6387 35.8805 40.8554 35.4308 40.1736 35.9114C40.1736 36.0452 40.2125 36.0673 40.3441 36.1235C40.3219 36.1742 40.2965 36.2241 40.2743 36.2747C40.1062 36.2747 39.9778 36.2747 39.8319 36.1742C39.2587 36.1742 39.2564 36.8218 38.753 36.369C39.1081 36.0539 39.4799 35.738 39.8351 35.4308C40.0809 35.3999 40.333 35.3667 40.5819 35.3358C40.7611 35.1323 40.937 34.9392 41.1162 34.7357C41.3144 34.7357 41.3033 34.8307 41.3342 34.5821C41.5245 34.6961 41.7084 34.8054 41.8963 34.9257C42.5202 34.9257 42.6487 34.5536 43.2638 34.822C43.286 34.9004 43.286 34.9004 43.2781 35.0429C42.8611 35.3524 42.4417 35.6683 42.0279 35.9842C41.8741 36.2272 41.5887 36.8329 41.3453 36.9698V36.9698ZM43.879 37.1852C43.7696 36.8835 43.6499 36.593 43.5461 36.3025C43.5128 36.2858 43.4795 36.2748 43.4541 36.266C43.5992 36.0673 43.8426 35.7047 44.0749 35.6517C44.2508 35.8306 44.2873 36.73 44.304 37.0451C44.1644 37.1678 44.0749 37.1678 43.879 37.1852ZM44.7574 37.3277C44.8018 37.2715 44.8359 37.2042 44.8803 37.1456C44.9303 37.1931 44.9303 37.1931 44.9556 37.2438C44.9223 37.2802 44.9223 37.2802 44.7574 37.3277ZM47.154 33.2664C47.1175 33.264 47.0866 33.2553 47.0533 33.2466V33.2022C47.1041 33.2189 47.154 33.23 47.2071 33.2387C47.1873 33.2466 47.1651 33.2553 47.154 33.2664ZM49.7773 31.63C47.6741 32.4786 45.6747 33.6907 43.7562 34.9004C43.7451 34.9257 43.7451 34.9479 43.7451 34.9701C43.9266 35.0793 43.9179 35.1324 44.1644 35.1799C44.1502 35.2076 44.1423 35.244 44.1391 35.2749C43.6047 35.7831 42.7604 37.0451 42.2063 37.2271C42.1674 37.1931 42.1674 37.1931 41.6109 36.9952C41.6141 36.9501 41.6141 36.95 42.058 36.2494C42.4838 36.2494 42.5504 36.16 42.6621 35.7214C42.9253 35.5147 43.1996 35.3168 43.4676 35.1181C43.462 35.0152 43.462 34.9257 43.462 34.8307C45.0119 33.9591 46.519 33.0178 48.0934 32.1881C48.3091 32.0907 49.5759 31.3869 49.7519 31.44C49.763 31.5128 49.8082 31.5603 49.7773 31.63ZM58.914 26.4801C58.8894 26.488 58.8664 26.5047 58.8387 26.5134C58.8244 26.7034 58.8244 26.7034 58.8529 26.8292C58.822 26.8348 58.7943 26.8371 58.7602 26.8458C58.7523 26.6725 58.7435 26.5046 58.738 26.3233C58.7634 26.3146 58.7634 26.3146 58.914 26.4801ZM58.7102 27.3319C58.6207 27.3319 58.5953 27.3597 58.5422 27.4349C58.3916 27.3232 58.5343 27.267 58.6484 27.1697C58.6793 27.1863 58.6793 27.1863 58.7102 27.3319ZM45.5708 24.6759C45.3528 24.7653 45.0983 24.9102 44.866 24.9522C45.5177 24.6759 45.5177 24.6759 45.5708 24.6759ZM42.9895 25.9544C42.9618 25.9212 42.9618 25.9212 42.8778 25.8958C42.9166 25.8792 42.9618 25.8594 43.0062 25.8483C43.0007 25.8792 42.9927 25.9125 42.9895 25.9544ZM49.6766 27.2559C49.4443 27.2559 49.2628 27.4182 49.0503 27.4182C48.8822 27.1974 48.2782 27.267 48.007 27.248C48.007 26.8205 46.8884 26.9994 46.6339 26.9994V26.8292C46.9106 26.8205 47.1873 26.8039 47.4648 26.7928C47.4949 26.7508 47.4949 26.7508 47.4949 26.6582C47.4648 26.6281 47.4648 26.6282 46.5832 26.3764C46.5832 26.34 46.5887 26.3123 46.6006 26.2846C47.1484 26.2117 47.4949 26.1785 48.0324 26.3321C48.0324 26.3598 48.0379 26.3796 48.0403 26.4096C48.0768 26.4326 48.1021 26.4492 48.1442 26.469C48.1442 26.5775 48.0403 26.6163 48.0403 26.7422C48.516 27.0074 48.9774 27.214 49.5085 27.0216C49.9311 27.0469 49.9311 27.0469 49.9842 27.0746C49.9985 27.2227 50.0064 27.3708 50.0207 27.5212C49.9588 27.541 49.9033 27.5631 49.8415 27.5805C49.7915 27.4681 49.7297 27.3565 49.6766 27.2559H49.6766ZM50.2641 26.2956C50.1103 26.4326 49.9287 26.5355 49.8415 26.72C49.7297 26.6638 49.6766 26.5387 49.5815 26.4437C49.7971 26.3123 50.0064 26.2956 50.2641 26.2956ZM49.6211 25.9465C49.7575 25.9212 49.8978 25.9046 50.0373 25.8958C50.0064 25.9465 49.9985 26.013 49.9311 26.0328C49.8248 26.0075 49.7186 25.9742 49.6211 25.9465ZM50.2641 27.974V27.9938C50.0595 28.0183 50.0595 28.0183 49.9311 28.0603C49.8978 28.016 49.8978 28.016 49.8946 27.974H50.2641ZM50.1578 28.4039C50.1301 28.4379 50.1015 28.4799 50.077 28.5155C50.0484 28.4094 49.962 28.4094 49.8811 28.3485C50.0595 28.3485 50.5915 28.2788 50.1578 28.4039ZM50.4068 27.4768C50.4068 27.3343 50.2553 27.1863 50.1658 27.0913C50.3425 27.0857 50.3425 27.0857 50.5352 27.1079C50.597 27.2029 50.5661 27.3066 50.5384 27.4183C50.4987 27.4349 50.4543 27.4547 50.4068 27.4768ZM51.5983 28.8282C51.5896 28.8148 51.5729 28.8037 51.5586 28.7982C51.5816 28.7982 51.6038 28.8037 51.626 28.8116C51.6149 28.8148 51.6038 28.8227 51.5983 28.8282ZM51.7854 30.5572C51.7434 30.524 51.7434 30.524 51.6229 30.5018C51.6229 30.1915 53.8244 28.6525 54.1098 28.4292C53.8157 28.4126 53.7515 28.4015 53.5667 28.1783C53.7967 28.1363 54.3889 28.0603 54.5316 28.1308C55.027 27.7983 55.027 27.7983 55.0968 27.7286C54.8114 27.5552 54.5181 27.3763 54.2382 27.2116C54.4475 26.9242 53.7317 26.9242 53.5414 26.8007C53.2932 26.3875 53.2869 26.5442 52.8366 26.7786C52.4569 26.5046 52.1881 26.4516 51.7014 26.4215C51.6934 26.4326 51.6847 26.435 51.6704 26.4492C51.4413 26.2537 51.3628 26.3764 51.1448 26.5609C51.1448 26.7707 51.2511 26.8039 51.3993 26.9464C51.3993 27.0359 51.3264 27.0858 51.2709 27.153C51.2289 27.1166 51.19 27.0778 51.1536 27.0469C51.1425 28.1553 51.1226 29.2755 51.1226 30.3958H50.9324C50.93 29.996 50.9181 29.608 50.9157 29.2059C50.8737 29.2557 50.8539 29.2589 50.7984 29.2755C50.7033 29.1718 50.6081 29.0713 50.5209 28.9794C50.5273 28.9375 50.5273 28.9375 50.597 28.8987C50.6105 28.9288 50.6359 28.9652 50.6557 29.0016C50.7421 29.0159 50.8261 29.0293 50.9157 29.0467C50.9411 28.7198 50.9411 28.7198 50.9411 26.6163C50.8571 26.5696 50.8063 26.5047 50.7286 26.4801C50.6755 26.5276 50.6248 26.5807 50.5495 26.5807C50.471 26.4801 50.3957 26.3764 50.3259 26.268C50.4678 26.2537 50.6049 26.245 50.7421 26.2315C50.7698 26.184 50.7699 26.184 50.7699 26.0969C50.7421 26.0692 50.7421 26.0692 50.3957 25.9742C50.5804 25.9631 50.7643 25.9465 50.9546 25.9465C50.9546 25.5467 50.9633 25.162 50.9633 24.7709C49.1534 24.6759 49.1534 24.6759 49.0281 24.645C48.6476 24.3655 48.6476 24.3655 48.5636 24.3323C48.1664 24.4407 47.3641 24.5611 48.1188 24.7986C47.9793 24.8659 47.8421 24.9411 47.7105 25.0139C47.7105 25.2372 48.007 25.2285 48.1886 25.2791V25.3156C47.9452 25.4161 48.34 25.5776 48.3955 25.5887C48.3955 25.6362 48.3987 25.6781 48.4066 25.7201C48.0157 25.7423 47.6297 25.7589 47.2404 25.7842C47.2404 25.7423 47.2404 25.6979 47.2491 25.6583C47.1873 25.5942 47.0787 25.6109 47.0002 25.5942V25.5103C46.9027 25.4161 46.7735 25.5103 46.6728 25.5467C46.4048 25.2791 45.9902 25.7201 45.9292 25.9996C45.7222 25.9798 45.5098 25.9631 45.3029 25.9465C45.2521 25.8958 45.2743 25.8317 45.2355 25.7819C44.9477 25.7819 44.6171 25.8879 44.3404 25.9465C44.3769 25.9101 44.4269 25.8792 44.472 25.8484V25.7423C44.4498 25.7201 44.4189 25.7035 44.3967 25.6924C43.6135 25.9632 43.6135 25.9632 43.5738 25.9544C44.1724 25.2791 45.1911 25.2372 45.8895 24.7234V24.6395C45.8594 24.6117 45.8285 24.5833 45.8007 24.5698C48.6167 23.4464 51.8805 24.3489 54.6909 24.7986C55.9808 25.3377 57.2698 25.8879 58.5565 26.4326C58.5565 26.9124 58.551 26.9797 58.218 27.309C58.218 27.5299 58.5399 27.5497 58.57 27.8117C58.612 27.8204 58.6627 27.8426 58.7103 27.8624C58.7436 28.0603 58.7832 28.2701 58.8221 28.4736C58.3916 28.6082 57.1271 29.1417 56.722 29.0713C56.2686 28.1553 56.2884 28.2701 55.295 28.1221C55.2839 28.0413 55.276 27.9598 55.276 27.879C54.0567 28.7198 52.9096 29.597 51.7854 30.5573L51.7854 30.5572ZM51.6879 27.4096C51.7236 27.4183 51.783 27.4238 51.8298 27.4349C51.8385 27.4681 51.8607 27.4966 51.875 27.5386C51.8242 27.541 51.7743 27.5497 51.7235 27.5631C51.7101 27.5101 51.699 27.4571 51.6879 27.4096ZM53.696 27.5995C53.654 27.6217 53.631 27.6471 53.5921 27.6756V27.7642C53.631 27.7895 53.654 27.8149 53.696 27.8458C53.631 27.879 53.631 27.879 53.5192 27.8901C53.4407 27.7001 53.1386 27.7286 52.9603 27.7033C52.9373 27.5885 52.9373 27.4855 52.8675 27.3985C52.7502 27.3985 52.686 27.4855 52.594 27.5552C52.5488 27.2393 52.5655 27.2227 52.3308 27.0636C52.3308 27.0414 52.3308 27.0216 52.3395 27.005C52.395 26.9797 52.4458 26.9575 52.5044 26.9322C52.9436 27.1863 53.3345 27.0857 53.7967 27.214C53.8244 27.2702 53.8434 27.332 53.8775 27.3929C53.7427 27.3565 53.5057 27.256 53.3939 27.3399C53.3876 27.3763 53.3852 27.4182 53.3852 27.4547C53.4827 27.5045 53.5921 27.5552 53.696 27.5995H53.696ZM52.9436 28.5044C52.9095 28.5044 52.8786 28.51 52.8509 28.5155C52.8231 28.4823 52.8009 28.4546 52.7756 28.4292C52.8231 28.4379 52.8786 28.4546 52.9262 28.4625C52.9294 28.4799 52.9373 28.491 52.9436 28.5044ZM52.3808 28.2171C52.3697 28.2559 52.3697 28.2923 52.3697 28.3255H52.3308C52.3165 28.3065 52.3031 28.2867 52.292 28.2701C52.311 28.2337 52.3451 28.1973 52.3808 28.2171ZM50.7033 27.9653C50.7342 27.9598 50.7698 27.9542 50.8095 27.9542C50.8095 27.974 50.8095 27.9906 50.8174 28.016C50.8063 28.0183 50.7897 28.0302 50.7897 28.0302C50.7532 28.0128 50.7286 27.9851 50.7033 27.9653ZM60.0048 25.5277C57.3086 24.2761 54.3222 23.5501 51.1844 23.4773C51.1725 23.6396 51.1646 23.7955 51.1614 23.9523C53.9948 24.1114 56.5451 24.6173 59.1938 25.6892C59.457 25.6307 59.7305 25.5776 60.0048 25.5277H60.0048ZM43.6776 29.9596C43.7054 29.8646 43.7395 29.7616 43.7696 29.6634C43.9044 29.608 44.1311 29.5605 44.0161 29.3784C43.9377 29.3618 43.8624 29.3594 43.7926 29.3563C43.7308 29.2502 43.6745 29.1473 43.619 29.0467C43.6745 28.9596 43.7926 28.9573 43.8703 28.8734C43.8623 28.8401 43.8624 28.8116 43.8624 28.7815C43.8172 28.7506 43.7839 28.7198 43.745 28.6944C43.8005 28.5915 43.8172 28.491 43.8227 28.3794C43.6776 28.3176 43.546 28.2559 43.4033 28.1973C43.4033 27.879 42.9253 28.0017 42.9253 27.8679C43.6499 27.5299 45.0483 27.237 45.7277 27.8149C45.6746 27.9598 45.6493 28.0413 45.6493 28.1894C45.7055 28.2084 46.0155 28.1893 46.0377 28.2083C46.0076 28.259 46.0298 28.2978 46.0377 28.3509C46.2534 28.4292 46.5887 28.4625 46.7568 28.2978C46.7845 28.3065 46.7845 28.3065 46.9304 28.491C47.674 28.7364 47.674 28.7364 47.7105 28.7277C45.6017 27.3264 42.892 25.8571 40.2576 26.0748C37.9475 27.309 35.8776 28.9319 34.1382 30.8621C34.2643 30.809 34.4371 30.7362 34.6805 30.6301C37.5693 29.7054 40.6825 29.8368 43.6776 29.9596ZM42.2181 26.2117C42.1983 26.2228 42.1706 26.2371 42.1508 26.2482C42.1928 26.2117 42.1928 26.2117 42.2181 26.2117Z" fill="#F18C16"/>
<path d="M108.885 51.967H299.996V49.7355H108.885V51.967Z" fill="#F18C16"/>
<path d="M117.134 18.84V31.1762H117.26L122.724 18.84H132.393V40.429H124.114V28.3387H123.992L118.524 40.429H108.858V18.84H117.134Z" fill="#003365"/>
<path d="M148.36 18.84H156.638V40.429H148.36V32.4716H142.832V40.429H134.554V18.84H142.832V26.3024H148.36V18.84Z" fill="#003365"/>
<path d="M180.113 18.84V25.2218H172.824V40.429H164.546V25.2218H157.258V18.84H180.113Z" fill="#003365"/>
<path d="M199.603 18.84V23.9286H189.01V27.0426H199.142V31.9781H189.01V35.3403H199.819V40.429H180.732V18.84H199.603Z" fill="#003365"/>
<path d="M214.229 18.84C220.745 18.84 223.587 22.6329 223.587 26.5818C223.587 30.0367 221.117 34.2009 214.382 34.2009H209.843V40.4291H201.568V18.84H214.229L214.229 18.84ZM209.628 29.2015H211.448C212.439 29.2015 215.25 29.1405 215.25 26.52C215.25 25.2549 214.57 23.8363 211.418 23.8363H209.628V29.2015Z" fill="#003365"/>
<path d="M244.665 18.84C251.18 18.84 254.023 22.6329 254.023 26.5818C254.023 30.0367 251.553 34.2009 244.818 34.2009H240.279V40.4291H232.004V18.84H244.665L244.665 18.84ZM240.064 29.2015H241.884C242.875 29.2015 245.685 29.1405 245.685 26.52C245.685 25.2549 245.003 23.8363 241.853 23.8363H240.064V29.2015Z" fill="#003365"/>
<path d="M269.56 18.84L277.251 40.4291H268.542L267.06 35.7732H260.572L259.123 40.4291H250.848L258.41 18.84H269.56ZM263.754 23.9597L261.531 30.7151H266.134L263.878 23.9597H263.754Z" fill="#003365"/>
<path d="M300 29.6348C300 36.5137 295.583 40.8007 287.954 40.8007C280.327 40.8007 275.908 36.5137 275.908 29.6348C275.908 22.7559 280.327 18.469 287.954 18.469C295.583 18.469 300 22.7559 300 29.6348ZM284.62 29.6348C284.62 31.8856 284.836 35.6168 287.954 35.6168C291.073 35.6168 291.291 31.8856 291.291 29.6348C291.291 27.3833 291.073 23.6521 287.954 23.6521C284.836 23.6521 284.62 27.3833 284.62 29.6348Z" fill="#003365"/>
<path d="M121.328 69.8303C121.328 74.5836 118.143 76.5303 114.902 76.5303C111.657 76.5303 108.472 74.5836 108.472 69.8303C108.472 65.0771 111.657 63.1304 114.902 63.1304C118.143 63.1304 121.328 65.0771 121.328 69.8303ZM111.285 69.8303C111.285 74.2653 113.906 74.6588 114.902 74.6588C115.895 74.6588 118.518 74.2653 118.518 69.8303C118.518 65.3954 115.895 65.0011 114.902 65.0011C113.906 65.0011 111.285 65.3954 111.285 69.8303Z" fill="#003365"/>
<path d="M130.425 76.3819L127.24 67.0233L126.638 65.1517H126.583L126.619 67.1735V76.3819H123.96V63.283H128.456L131.083 70.8992L131.661 73.2171H131.718L132.299 70.8992L134.923 63.283H139.42V76.3819H136.76V67.1735L136.799 65.1517H136.741L136.142 67.0233L132.956 76.3819H130.425Z" fill="#003365"/>
<path d="M152.266 75.969C151.105 76.3633 149.925 76.5303 148.876 76.5303C145.612 76.5303 142.052 74.6762 142.052 69.9032C142.052 65.3954 145.24 63.1304 149.363 63.1304C150.392 63.1304 151.276 63.2642 152.266 63.58L152.154 65.8252C151.385 65.5291 150.543 65.3392 149.55 65.3392C146.608 65.3392 144.865 67.194 144.865 69.8668C144.865 73.0311 147.002 74.3239 149.363 74.3239C150.523 74.3239 151.444 74.0397 152.098 73.7404L152.266 75.969H152.266Z" fill="#003365"/>
<path d="M157.462 63.2815V68.8759H157.521L162.262 63.2815H165.427L159.955 69.2112L165.766 76.3805H162.393L157.521 69.868H157.462V76.3805H154.803V63.2815H157.462Z" fill="#003365"/>
<path d="M176.402 63.2815C181.162 63.2815 181.442 66.5551 181.442 67.3784C181.442 69.1019 180.241 71.4595 176.885 71.4595H175.183V76.3806H172.523V63.2815H176.402L176.402 63.2815ZM176.402 69.398C178.013 69.398 178.63 68.2952 178.63 67.3032C178.63 66.2194 177.937 65.3399 176.402 65.3399H175.183V69.398H176.402Z" fill="#003365"/>
<path d="M192.693 63.2815V65.603H188.907V76.3805H186.244V65.603H182.46V63.2815H192.693Z" fill="#003365"/>
<path d="M203.547 75.969C202.387 76.3633 201.204 76.5303 200.155 76.5303C196.894 76.5303 193.334 74.6762 193.334 69.9032C193.334 65.3954 196.519 63.1304 200.642 63.1304C201.674 63.1304 202.552 63.2642 203.547 63.58L203.436 65.8252C202.667 65.5291 201.825 65.3392 200.829 65.3392C197.887 65.3392 196.144 67.194 196.144 69.8668C196.144 73.0311 198.279 74.3239 200.642 74.3239C201.806 74.3239 202.723 74.0397 203.38 73.7404L203.547 75.969Z" fill="#003365"/>
</svg>
