<svg width="200" height="64" viewBox="0 0 200 64" fill="none" xmlns="http://www.w3.org/2000/svg">
<path d="M66.7308 36.2163C66.2743 34.906 65.2361 34.1163 64.1978 33.3131C62.9984 32.3887 61.535 31.756 60.2014 31.0515C59.5838 30.7329 58.1786 29.665 57.7624 29.3015C56.4332 28.1258 55.6366 26.8829 54.0568 25.9765C54.0568 25.9765 54.4059 25.7297 54.7505 25.5816C55.923 25.0745 57.2343 25.07 58.3755 24.5361C56.9255 22.3598 54.3701 22.6559 52.7277 21.0944C53.7033 21.2783 54.9922 21.1662 55.9812 21.0719C57.8071 20.8969 58.089 20.2553 58.9438 18.9674C59.19 18.595 59.5301 18.2226 59.8255 18.0206C61.1904 17.1142 64.6901 17.554 66.2206 17.554C64.8646 16.8225 62.7478 15.4674 61.1904 15.3238C55.1578 14.5834 52.844 16.6879 48.8521 14.6777C48.4135 14.5072 50.7899 13.0712 52.2264 13.0174C51.9355 12.8244 50.1454 12.2007 49.4876 12.2097C47.9123 12.2501 47.1381 12.7975 45.9387 13.6636C45.9387 12.5148 46.0148 11.6757 47.1381 10.9488C47.8317 10.5046 49.2012 10.1815 49.7203 9.80906C50.2349 9.43213 50.763 8.41353 50.951 7.83917C51.139 7.26481 51.1076 5.79749 51.1076 5.79749C50.3244 6.76673 49.7292 7.51161 48.4404 7.76289C48.4404 7.76289 43.2983 8.74109 42.0631 9.17635C40.8324 9.61161 39.4853 10.9488 39.4853 10.9488C39.4853 10.9488 39.3019 10.7155 39.2884 10.1411C39.2705 9.56675 41.996 4.58595 41.6335 4.81929C41.2799 5.04813 39.6151 5.53724 38.6216 5.88275C37.6371 6.22827 35.9364 6.58274 33.9181 7.49364C31.8953 8.39557 30.7317 10.3879 30.5482 10.1097C30.3603 9.83597 29.8993 9.27956 29.8188 8.39558C29.7293 7.52057 30.5572 6.06671 30.8928 5.27696C31.5954 3.5808 31.8997 1.53014 30.6332 0C30.1723 0.35449 25.7239 5.04365 24.8154 6.61417C23.9069 8.18918 22.6091 11.6802 22.6091 11.6802L21.092 16.329C21.092 16.329 20.631 15.9296 20.358 15.5123C20.085 15.0905 20.2282 13.4527 20.2282 13.4527C20.5997 10.9847 20.6489 7.99173 18.3978 6.26864C17.74 5.76159 16.8628 5.82442 16.8628 5.82442C16.8628 5.82442 17.458 6.65004 17.4088 7.70902C17.3596 8.75454 17.0642 9.84943 17.0642 9.84943L15.9186 14.5072C14.9429 18.2719 15.3323 20.4437 15.198 20.4303C13.4527 20.2508 12.1146 18.6937 11.761 17.0783C11.5865 16.2841 11.5865 13.5783 11.5865 13.5783C9.63972 16.4681 8.5567 18.3348 9.15191 21.8393C9.56812 24.2624 10.9241 26.8066 12.1459 28.929C12.7769 30.0284 13.2334 31.9893 13.2334 31.9893C12.495 31.2489 11.8058 30.6118 10.6601 30.6118C8.98188 30.6118 6.60996 32.0836 5.1555 31.1996C5.03467 31.1278 4.60953 30.9573 4.60953 30.9573C4.60953 30.9573 4.8333 31.4509 4.95413 31.6528C6.52495 34.1791 8.50302 33.7304 10.8794 34.8746C12.1638 35.4804 12.8888 35.9291 13.7928 37.1047C13.1439 36.7772 11.4075 37.015 10.7541 37.2528C9.67553 37.6387 8.77153 38.4689 7.59453 38.8548C5.72834 39.4874 3.07898 39.2362 1.27992 38.3926C0.863721 38.1951 0 37.6701 0 37.6701C0 37.6701 0.147665 38.1233 0.344578 38.4958C0.54149 38.8548 1.92883 40.7977 2.36741 41.2375C3.96061 42.8394 5.63883 43.499 7.79144 43.7593C11.4522 43.9253 14.6297 43.2073 18.1338 43.867C19.3197 44.0958 20.6981 44.8811 20.6981 44.8811C16.9523 45.9984 18.3665 48.1074 13.7391 48.9734C16.9031 50.4003 19.3556 49.9023 22.3764 48.9734C24.4708 48.3272 26.7711 48.3003 26.7711 48.3003C25.4017 48.942 23.6294 50.1311 22.8239 51.401C20.8682 54.4927 18.6216 56.1933 14.9743 56.6286C16.3437 58.7824 20.6086 57.8356 22.4748 57.2972C24.6767 56.669 26.7532 55.5876 28.3732 53.9542C28.6954 53.6356 29.6532 52.6395 29.9978 52.267C30.3468 51.8991 30.8928 51.401 31.4298 51.033C31.9758 50.6606 32.9604 50.2343 33.4795 50.1176C33.9942 49.983 35.2338 50.1625 35.2338 50.1625L35.1309 50.2343C35.0325 50.3106 34.7192 50.8805 34.4641 51.2484C33.6585 52.4734 33.3274 54.1292 33.2334 55.5651C33.1842 56.3324 32.9604 57.6203 32.9604 57.6203C34.9116 55.7715 36.1871 52.3433 38.6395 51.1048C39.0289 50.9074 39.4988 50.9343 39.4988 50.9343C39.3735 53.3664 37.8205 55.435 37.8205 57.8715C37.8205 62.8299 42.533 63.7408 42.5061 63.5703C42.3271 62.2286 42.3853 59.7786 42.7075 58.4639C43.2938 56.135 44.5335 53.8106 45.2495 51.4504C45.5986 50.2971 45.5493 48.7715 45.4016 47.5869C46.0595 47.4971 47.7601 50.6606 47.6662 51.06C47.6662 50.2029 48.1987 48.6817 48.2837 47.6587C48.3732 46.5997 48.145 45.2401 47.8362 44.2215C49.1072 44.6792 50.0157 45.3343 50.8481 46.3978C51.2195 46.8689 51.7879 47.6811 52.1056 48.2061C52.8351 49.3772 53.4437 51.0734 54.6252 51.8228C55.198 52.1818 56.2184 52.0292 56.8718 51.9484C56.2855 51.41 55.7753 51.0599 55.4397 50.3106C54.7908 48.8881 54.6521 46.501 54.6521 44.8811C54.6521 42.274 54.0837 39.649 52.7501 37.4009C53.4214 37.4817 54.0389 37.6522 54.5984 38.0695C54.8892 38.2894 55.6142 38.8682 56.008 38.6394C55.2786 37.9663 55.5113 36.665 55.1443 35.7676C55.0145 35.4669 54.5984 34.5291 54.5984 34.5291C55.1354 34.6143 55.6948 35.0451 56.1781 35.2695C57.2925 35.7855 58.823 35.9291 60.0269 35.9829C62.0139 36.0951 64.0412 36.0772 65.8492 36.9836C66.0506 37.0778 66.9098 37.7958 66.9098 37.7958C66.9098 37.2663 66.9143 36.7144 66.7308 36.2163ZM33.7883 47.0708C24.7125 47.0708 17.3327 39.6714 17.3327 30.5758C17.3327 21.4758 24.7125 14.0764 33.7883 14.0764C42.8597 14.0764 50.2394 21.4758 50.2394 30.5758C50.2394 39.6714 42.8597 47.0708 33.7883 47.0708Z" fill="#F18C16"/>
<path d="M39.1141 44.1317C39.1409 44.1138 39.1722 44.0958 39.1991 44.0824C39.2215 43.9119 39.1499 43.9612 39.3155 43.7817C39.763 43.5529 40.215 43.3195 40.6759 43.0817C41.0071 42.633 41.1369 41.9509 41.2488 41.4125C41.2622 41.2913 41.3607 40.7753 41.3025 40.6541C41.2667 40.6541 41.2354 40.6541 41.1996 40.6586C41.0877 40.8561 41.0787 40.9054 41.0787 41.1477C41.0698 41.1567 41.0563 41.1612 41.0519 41.1657C41.025 40.8292 40.8818 40.9817 41.034 40.5778C40.8997 40.6317 40.2597 40.8426 40.2105 40.9548C40.2105 41.1208 40.0047 41.4439 39.8212 41.3541C39.7585 41.3541 39.7585 41.3542 38.8724 41.5561C38.8321 41.4933 38.8187 41.4304 38.7382 41.4304C38.2817 41.5561 37.8252 41.6862 37.3642 41.7715V41.8029C37.4896 41.8567 37.6238 41.8971 37.7581 41.9465C37.7402 42.0586 37.7267 42.1663 37.7133 42.2785C37.2971 42.3683 36.9838 42.1843 36.6571 41.9285C35.8292 42.0452 34.9924 42.1125 34.151 42.1529C34.151 42.4984 34.2629 45.0022 34.1376 45.433C36.1067 45.3881 37.9863 44.9529 39.6914 44.208C39.8525 44.0868 40.0046 43.9612 40.1479 43.8221C39.9375 43.7234 39.4855 44.3157 39.1141 44.1317ZM34.0212 42.1529C33.6274 42.1439 33.238 42.1394 32.8442 42.1349C30.3694 41.924 28.257 41.3676 25.997 40.3714C25.8762 41.5875 26.2342 42.9067 27.0487 43.8086C29.0716 44.8542 31.3629 45.4375 33.7885 45.4375C33.878 45.4375 33.9765 45.4375 34.0704 45.433C33.9049 45.0202 34.0212 42.4984 34.0212 42.1529ZM46.6818 37.89C47.4694 36.5124 48.0333 34.9958 48.3421 33.3849C47.9572 34.3631 47.447 35.2246 46.825 36.0772C46.8071 36.7054 46.7802 37.2842 46.6818 37.89ZM46.6639 36.2746C45.7777 37.3157 44.838 38.1862 43.7505 39.0073C43.7863 39.0118 43.7862 39.0118 43.8668 38.958C43.8758 38.9759 43.8803 38.9849 43.8892 39.0073C43.8265 39.0477 43.8265 39.0477 43.6073 39.1554C43.5983 39.1464 43.5983 39.1464 43.6386 39.0881C42.9404 39.5413 42.2199 39.9676 41.486 40.3535C41.4457 40.5285 41.4368 40.6541 41.5665 40.7708C41.3204 40.9997 41.2622 41.9689 41.1503 42.3593C41.11 42.4804 40.931 42.8304 40.931 42.9471C41.3517 42.5567 41.8127 41.9913 42.3318 41.7266C42.6316 41.8971 42.8912 41.4439 43.0299 41.1746C43.1687 41.0625 43.4998 40.8605 43.5133 40.69C43.6565 40.6003 43.7997 40.5061 43.9474 40.4163C43.9474 40.5195 43.7549 40.6541 43.8355 40.7663C44.5515 40.7663 44.8872 39.8285 45.1557 39.3394C45.1691 39.4336 45.1557 39.5548 45.2899 39.4695C45.3213 39.5144 45.2318 39.6221 45.2899 39.6759C45.1423 40.1067 44.3143 40.7843 43.9921 41.1432C42.8688 42.1753 41.75 42.9112 40.4253 43.7009C40.3403 43.8042 40.1837 43.9253 40.0449 44.042C42.7122 42.79 44.9498 40.7663 46.4669 38.2625C46.6504 37.6208 46.6818 36.9297 46.6952 36.2656C46.6818 36.2656 46.6773 36.2746 46.6639 36.2746ZM43.661 39.4336C43.6833 39.4067 43.7102 39.3798 43.7326 39.3528C43.7415 39.3932 43.6878 39.4246 43.661 39.4336ZM43.9921 39.2586C43.9518 39.1913 43.9519 39.1913 43.9116 39.1689C44.0369 39.1644 44.0369 39.1644 44.1487 39.1778C44.095 39.2003 44.0458 39.2227 43.9921 39.2586ZM45.6032 38.2849C45.2944 38.5541 45.1646 38.958 44.8021 39.1958C44.7619 39.1195 44.7171 39.0387 44.6724 38.9669C44.5292 38.9355 44.3278 39.0791 44.198 39.1464C44.3546 38.9086 44.5202 38.6842 44.6858 38.4509C44.8335 38.3746 45.8449 37.7554 45.9523 37.7823C45.9299 37.8137 45.9299 37.8137 45.9299 37.8721C46.006 37.9259 46.0821 37.9214 46.1761 37.9125C45.9881 38.1144 45.8538 38.1817 45.6032 38.2849ZM21.5889 38.9849C21.6068 39.0163 21.6336 39.0612 21.6873 39.1375C21.6515 39.0881 21.6202 39.0387 21.5889 38.9849ZM45.1199 21.0091C43.7549 20.4841 42.3139 20.3675 40.8684 20.3091C40.931 20.3585 40.9982 20.4034 41.0698 20.4572C40.931 20.4572 40.8012 20.3091 40.6267 20.3091C40.6267 20.4572 40.7789 20.6232 40.855 20.7534C40.7386 20.7219 40.6178 20.6861 40.5014 20.6861C40.4835 20.6995 40.4746 20.713 40.4656 20.7399C40.5014 20.7938 40.5014 20.7937 40.5864 20.8655C40.5506 20.9194 40.5462 20.9284 40.5462 20.9912C40.5014 20.9867 40.4522 20.9822 40.4119 20.9777C40.3269 20.9194 39.6198 20.2328 39.6064 20.6502C39.7361 20.9059 39.7361 20.9059 39.7451 20.9598C39.6914 20.9598 39.6735 20.9598 39.6332 20.9957C39.5124 20.8117 39.3916 20.6277 39.2752 20.4482H39.1812C39.1633 20.4662 39.1633 20.4662 39.1499 20.7758C39.1006 20.8252 39.0425 20.8745 38.9888 20.9194C38.7382 20.8117 38.4159 20.5604 38.2145 20.3675C37.0912 20.4303 35.9724 20.6008 34.8581 20.7623C34.8402 20.7354 34.8268 20.704 34.8089 20.6771C34.8133 20.6726 34.8178 20.6636 34.8268 20.6546C35.9456 20.4527 37.0778 20.3181 38.2145 20.2284C38.134 19.9995 38.0266 19.82 37.9102 19.6091C38.0579 19.3848 39.0648 19.3085 39.3244 19.129C39.3244 19.0841 39.3244 19.0392 39.3378 18.9944C39.4273 19.111 39.5213 19.2277 39.6198 19.3489C39.6421 19.4565 39.6511 19.5643 39.7361 19.6405C39.7227 19.6989 39.6735 19.6989 39.6332 19.7437C39.6332 19.7662 39.6332 19.7841 39.6332 19.8111C39.6735 19.8335 39.6735 19.8335 40.6849 20.1655C41.8708 20.2328 43.021 20.3136 44.189 20.5739C44.5292 20.6636 44.8111 20.7578 44.9319 20.7893C43.6251 19.2995 42.0319 18.07 40.2374 17.1995C40.0584 17.1995 39.8793 17.2309 39.7138 17.2803C39.7585 17.3027 39.7988 17.3251 39.8391 17.3431C39.7137 17.3521 39.3736 17.2668 39.302 17.4239C39.217 17.4104 39.132 17.4642 39.0514 17.4912C39.0738 17.5181 39.1006 17.545 39.123 17.5719C39.0872 17.5719 39.0872 17.5719 36.5139 16.486C35.592 16.3335 34.6612 16.1809 33.7393 16.0328C33.8198 16.0328 33.9004 16.0328 33.9854 16.0328C33.9854 15.9251 33.9854 15.8174 33.9854 15.7142C33.9183 15.7097 33.8512 15.7097 33.7885 15.7097C31.4077 15.7097 29.161 16.2796 27.1651 17.2803C28.9552 17.3431 30.5484 18.2989 32.0342 19.2232C32.2087 19.2143 32.3564 19.0931 32.531 19.147C32.4907 19.1649 32.4549 19.1829 32.4191 19.2053V19.2861C32.5131 19.3399 32.6473 19.3219 32.7502 19.3489C32.4325 19.6271 32.9471 20.013 33.0993 19.9142C33.0948 19.7976 33.1172 19.7213 33.0009 19.6899C33.0725 19.5283 33.1038 19.5239 33.2783 19.4566C33.2738 19.4207 33.2694 19.3937 33.2694 19.3623C33.2157 19.3399 33.1709 19.313 33.1261 19.2861C33.1485 19.2412 33.1709 19.2053 33.1888 19.1604C33.2738 19.1604 33.3365 19.1649 33.3947 19.1066C33.4305 19.1918 33.4305 19.1918 33.4305 19.2232C33.3991 19.2412 33.3678 19.2681 33.3365 19.2861C33.3231 19.4835 33.3589 19.4566 33.4529 19.6091C33.4215 19.6405 33.4305 19.6989 33.4484 19.7303C33.4976 19.7303 33.5468 19.7303 33.5961 19.7348C33.614 19.7662 33.6319 19.7886 33.6721 19.8111C33.6587 19.8111 33.6542 19.8155 33.6498 19.82C33.5737 19.7886 33.52 19.7527 33.4349 19.7751C33.4305 19.811 33.4305 19.8425 33.4215 19.8739C33.3589 19.8739 33.332 19.8694 33.2873 19.9098C33.2873 19.9277 33.2917 19.9457 33.2962 19.9591C33.2291 19.9726 33.1619 19.9905 33.0948 19.9995C33.2559 20.1341 33.4126 20.2688 33.5737 20.4034C33.5334 20.4303 33.4976 20.4482 33.4618 20.4662C33.2873 20.3226 32.8263 19.8514 32.6697 19.8514C32.6697 19.9098 32.6786 19.9277 32.7099 19.9906C32.5802 20.2194 32.2803 20.0803 32.2803 20.2732C32.3251 20.3046 32.3698 20.3361 32.4191 20.3675C32.3698 20.3854 32.3206 20.3944 32.3206 20.4572C33.2157 20.6367 33.2157 20.6367 33.2425 20.6591C33.2246 20.6861 33.2067 20.713 33.1888 20.7534C32.7905 20.686 32.522 20.5739 32.1505 20.713C32.1595 20.6636 32.1684 20.6143 32.1774 20.5604C32.0521 20.5469 31.9536 20.5649 31.8373 20.5559C31.8194 20.5739 31.8194 20.5739 31.806 20.6412C31.7165 20.6098 31.6493 20.5828 31.5598 20.5828C31.5016 20.695 31.6359 20.7758 31.7209 20.8252C31.7075 20.8611 31.6941 20.897 31.6851 20.9284C31.5598 20.8655 31.5509 20.7982 31.4882 20.695H31.4032C31.3897 20.713 31.3763 20.7264 31.3629 20.7534C31.157 20.6501 30.987 20.4841 30.7677 20.6187C30.7185 20.363 30.629 20.5649 30.4544 20.5649V20.4931C30.441 20.4841 30.4275 20.4662 30.4096 20.4572C30.2843 20.5021 30.2844 20.5021 30.2038 20.5111C30.2083 20.4482 30.2083 20.4213 30.1456 20.4034C30.1322 20.3226 30.1322 20.3226 30.1143 20.2822C29.8323 20.2553 29.5504 20.2284 29.2774 20.2059C29.2595 20.2418 29.2595 20.2418 29.2237 20.2688C29.2103 20.2418 29.1924 20.2149 29.1745 20.1969C27.0756 20.0758 24.4531 19.8828 22.5287 20.9284C20.309 23.5265 18.9619 26.8963 18.9619 30.5759C18.9619 31.6034 19.0648 32.6131 19.2707 33.5868C19.396 33.9188 19.5482 34.2464 19.7227 34.5829C19.7227 34.5381 19.6242 34.1881 19.6242 34.1387C20.2776 35.606 20.8728 37.1048 21.4412 38.6035C21.4591 38.6708 21.4681 38.7336 21.486 38.7919C21.3562 38.5227 21.2398 38.2355 21.1414 37.9483C20.6267 37.033 20.2329 36.0817 19.8704 35.09C19.7137 34.8118 19.5661 34.5381 19.4273 34.2554C19.8614 35.9695 20.6088 37.5624 21.5889 38.9849C21.571 38.958 21.5576 38.9355 21.5397 38.8996C21.6247 38.8772 21.5978 38.8099 21.6381 38.8009C21.7008 38.9176 22.0677 39.3125 21.8619 39.3753C23.1508 41.1253 24.8066 42.5881 26.722 43.6381C25.9881 42.7003 25.8538 41.5112 25.8538 40.3131C24.7887 39.7432 23.7639 39.1195 22.8241 38.3657C22.7883 38.3612 22.7525 38.3522 22.7256 38.3432C22.475 37.9483 21.7992 37.208 21.9022 36.7278C22.1215 36.5708 22.0454 36.5708 22.0006 36.2881C22.3139 36.6201 22.6764 36.9657 22.9315 37.3426C23.0076 37.6567 23.0747 37.9708 23.1463 38.2894C23.0792 38.2983 23.012 38.3028 22.9494 38.3163C23.8713 39.0253 24.8245 39.64 25.8673 40.1561C25.9344 38.8997 26.1537 37.706 26.4088 36.4676C26.3327 36.4586 26.2611 36.4541 26.1895 36.4541C26.0105 36.656 25.8001 36.6201 25.5719 36.5438C25.5495 36.3509 25.5361 36.158 25.5182 35.965C25.9523 36.0233 25.9523 36.0233 26.0373 36.0233C26.3372 35.6823 26.3372 35.7631 26.2835 35.3727C26.3327 35.3144 26.3774 35.256 26.4267 35.2022C26.4893 35.3009 26.552 35.4041 26.6191 35.5028H26.6415C26.6862 35.3458 26.731 35.1887 26.7757 35.0317C26.7757 34.5156 26.543 34.574 26.1134 34.4349C26.0239 34.2958 25.9389 34.1477 25.8494 34.0041C25.8001 33.6047 25.8046 33.3983 25.5898 33.0887C25.5674 32.6938 25.545 32.3079 25.5227 31.9175C25.5898 31.8188 25.6703 31.7156 25.7464 31.6169C25.733 31.2534 25.7151 31.1547 25.9254 30.863C26.2253 31.1368 26.6997 30.9663 27.0353 31.1772C27.2859 31.8996 28.0736 32.3887 28.1676 33.165C27.9841 33.2951 27.9841 33.2951 27.814 33.4342C27.6574 33.8695 27.5455 33.8919 27.8543 34.215C27.7693 34.3137 27.5902 34.4349 27.5902 34.5695C27.7513 34.6682 27.9035 35.1797 27.9841 35.3682C27.6753 35.3682 27.8185 35.1977 27.5634 35.5118C27.4246 35.422 27.0353 35.1124 26.8787 35.1124C26.7802 35.5252 26.6997 35.624 26.9234 35.9829C26.8205 36.0413 26.7176 36.0996 26.6191 36.1624C26.3193 37.5041 26.0239 38.8593 25.9926 40.2323C28.5479 41.4663 31.2063 41.9958 34.0212 42.0272C34.0167 40.4253 34.0167 38.8278 34.0123 37.2259C33.9854 37.2259 33.963 37.2349 33.9362 37.2394C33.8914 37.3202 33.8422 37.4099 33.7974 37.4907C33.7214 37.5041 33.6542 37.5131 33.5826 37.5221C33.5289 37.2259 33.4752 36.9477 33.4215 36.6605C33.4618 36.5753 33.4752 36.481 33.4752 36.3823C33.5289 36.3868 33.5781 36.3958 33.6319 36.4002C33.7527 36.6919 33.784 36.6516 34.1107 36.7009C34.066 36.7458 34.0122 36.7996 33.963 36.849C33.963 36.9836 34.1018 37.0733 34.2226 37.0733C34.236 37.2259 34.3434 37.6746 34.6119 37.4099C34.6119 37.2708 34.6119 37.1407 34.6119 37.006C34.8626 36.858 34.9476 36.5618 35.0729 36.3015C35.1937 36.1894 35.319 36.0772 35.4443 35.9695C35.5428 35.9964 35.5428 35.9964 35.6771 36.0458C35.686 36.2612 35.4667 36.7009 35.5473 36.8355C35.6189 36.84 35.686 36.84 35.7666 36.849C35.9232 37.1765 35.874 37.2169 36.2186 37.2349C36.1917 37.4682 35.8203 37.6746 35.6502 37.8092C35.5741 38.2086 35.8203 38.3163 35.7666 38.6843C35.7084 38.6708 35.507 38.267 35.3683 38.415C35.319 38.6394 35.1535 38.7695 34.9028 38.7336C34.9118 38.1592 34.7999 38.1368 34.3792 37.706C34.339 37.6073 34.245 37.3022 34.1465 37.2753C34.1465 38.8592 34.1465 40.4432 34.151 42.0272C34.9386 41.9913 35.7173 41.915 36.5005 41.8029C36.1156 41.5112 35.7308 41.2061 35.3504 40.9054C35.8203 40.9368 36.0754 41.1253 36.4781 41.3541C36.59 41.3676 36.9391 41.3855 37.0107 41.4573C36.9838 41.4932 36.9838 41.5516 37.0107 41.5875C37.0868 41.5919 37.0868 41.592 37.1584 41.5695C37.1628 41.6099 37.1673 41.6503 37.1718 41.6952C37.682 41.5695 38.2011 41.4529 38.7068 41.3003C38.6845 41.2599 38.6531 41.215 38.6173 41.1746C38.6621 41.1029 38.7068 41.04 38.7516 40.9727H38.8053C39.3513 41.2644 39.9688 40.4836 40.2374 40.0843C40.4029 39.9811 40.5596 40.1785 40.6938 40.2817C40.5283 40.3849 40.4343 40.5464 40.3582 40.7259C40.8773 40.5016 40.8773 40.5016 41.3428 40.2727C41.3338 39.3798 41.2622 38.5182 41.1414 37.6342C41.128 37.6342 41.1145 37.6342 41.0966 37.6432C41.0563 37.4907 41.0563 37.5131 40.8818 37.5041C40.8639 37.4682 40.855 37.4323 40.8415 37.4009C40.9892 37.3605 40.8863 36.9387 40.8818 36.858C40.9176 36.84 40.9489 36.8266 40.9847 36.8176C40.9847 36.674 40.855 35.6509 40.6938 35.449C40.6715 35.6015 40.6491 35.7496 40.6357 35.9022C40.6043 35.8528 40.573 35.8124 40.5372 35.7721C40.582 35.6689 40.6178 35.4804 40.6938 35.4041C40.6043 35.0496 40.5148 34.6861 40.4209 34.3272H40.4029C40.3895 34.7534 40.1121 34.9958 40.1792 35.4086C40.0181 35.6689 39.8525 35.9201 39.6958 36.1804C39.5437 36.2746 39.396 36.3644 39.2528 36.4586C39.1991 36.4137 39.1767 36.4137 39.1096 36.4137C39.0514 36.5124 39.0514 36.5124 38.9888 36.6695C38.8187 36.7592 38.5099 36.8535 38.4383 37.033C38.4159 37.0016 38.4025 36.9701 38.3846 36.9477C38.2145 36.9477 38.049 37.024 37.8923 37.0689C37.7088 36.9477 37.4403 36.7144 37.2255 36.6785C36.957 36.8041 36.6795 36.9298 36.402 37.033C36.3931 37.0599 36.3886 37.0868 36.3842 37.1182C36.2633 37.1048 36.147 37.1048 36.0261 37.0913C35.9143 36.8535 35.9187 36.7233 35.6726 36.7099C35.7263 36.5214 35.8829 36.1624 35.7979 35.9695C35.6278 35.8932 35.4578 35.8169 35.2877 35.7451C35.243 35.6868 35.1042 35.44 35.0461 35.6105C35.0953 35.7048 35.2966 35.8752 35.3056 35.9246C34.9834 36.2253 34.8626 36.4362 34.6791 36.84C34.4016 36.9836 34.4956 36.9881 34.4956 37.3246H34.3748C34.339 36.9746 34.339 36.9746 34.3211 36.9477C34.2495 36.9387 34.1689 36.9477 34.1152 36.8939C34.1241 36.8714 34.1241 36.8714 34.339 36.6785V36.6381C34.2226 36.5483 33.9764 36.5438 33.8288 36.5214C33.793 36.4451 33.7572 36.3644 33.7214 36.2881C33.699 36.2881 33.6721 36.2791 33.6542 36.2746C33.7214 36.2612 34.2316 36.2477 34.2674 36.2298C34.2674 35.983 33.9407 35.8124 33.7214 35.8528C32.9606 36.2656 32.5086 35.3547 31.8104 35.2964C31.6941 35.2246 31.5911 35.1573 31.4703 35.081C31.43 34.8881 31.43 34.8881 31.43 34.8118C31.6359 34.8163 31.6359 34.8163 31.6627 34.7938C31.6627 34.6503 31.5911 34.5156 31.5688 34.372C31.7522 34.1836 31.8865 34.1432 31.7075 33.9368C31.4434 33.7708 31.1705 33.6047 30.9109 33.4342C30.9109 33.3534 30.9109 33.2816 30.9154 33.2099C30.8572 33.1515 30.799 33.0977 30.7453 33.0483C30.8079 32.6938 30.9378 32.8015 31.3271 32.7477C31.6225 32.649 31.8597 32.3977 32.1685 32.3528C32.1864 32.3214 32.1863 32.3214 32.2311 31.7156C32.6786 31.6169 32.6339 31.6842 32.7413 31.2445C33.1127 31.2175 33.2157 31.3297 33.2828 30.9662C33.3589 30.9259 33.4484 30.863 33.5379 30.863C33.6408 30.9752 33.7393 31.0964 33.8467 31.2175C34.0078 31.8771 33.9988 31.7156 34.7149 31.931C34.8626 32.0567 35.0237 32.1868 35.1758 32.3214C35.4264 32.2765 35.6771 32.2361 35.9232 32.2002C36.147 32.2631 36.3707 32.3304 36.59 32.3977C36.9928 32.3977 37.5567 31.8368 37.8252 31.5451C37.8162 31.4599 37.7267 31.3207 37.7402 31.2669C37.8341 31.2444 37.9326 31.2265 38.0311 31.2086C38.0982 31.1323 38.7919 30.4368 38.7919 30.3784C38.4875 30.0598 38.5636 30.0464 38.1698 30.1765C38.1519 30.1585 38.1519 30.1585 38.1161 29.8983C38.586 29.7637 38.2593 29.2925 38.2593 28.9694C38.313 28.938 38.313 28.938 38.5189 28.7585H38.9753C39.132 28.9111 39.2752 29.0682 39.4273 29.2297H39.9554C40.0046 29.2835 40.0449 29.3329 40.0897 29.3823H40.1658C40.2598 29.2342 40.3493 29.0906 40.4432 28.9515C40.4701 29.0009 40.4701 29.0009 40.6804 29.7412C40.3761 30.0598 40.403 30.0015 40.6088 30.3964C40.4567 30.4547 40.4164 30.8047 40.4029 30.9618C40.0449 31.0291 40.1837 31.3656 40.0539 31.6752C39.8033 31.9893 39.8167 31.9175 39.9554 32.2945C40.7296 34.7938 41.4323 37.383 41.4815 40.0214C41.6292 39.9451 41.7813 39.8734 41.929 39.8061C41.9425 39.8061 41.9424 39.806 41.486 40.0484V40.2099C43.5312 39.1644 45.1915 37.8227 46.6683 36.0772C46.6683 36.0278 46.6683 35.9829 46.6773 35.9291C46.3282 32.2675 44.6455 28.5835 42.0409 25.9765C41.75 25.7521 41.4502 25.5278 41.1503 25.3034C40.9355 24.8143 40.582 24.5675 40.1702 24.1951C40.0226 24.4374 40.1702 25.0162 40.4611 25.088C40.4432 25.1329 40.4298 25.1733 40.4164 25.2181C40.2956 25.2002 40.1523 25.3393 40.0539 25.3976C40.0584 25.4605 40.0583 25.5233 40.0628 25.5816C39.9286 25.7252 39.7943 25.8733 39.6645 26.0214C39.6645 26.5284 39.669 27.0355 39.678 27.547C39.7361 27.5919 39.8256 27.5515 39.9017 27.547C39.9375 27.5919 39.9823 27.6322 40.0226 27.6816H40.1658C40.2329 27.5919 40.2821 27.4528 40.3269 27.3496C40.3582 27.3496 40.403 27.3585 40.4432 27.3585C40.4388 27.4214 40.3761 27.4528 40.4164 27.5201C40.5193 27.5515 40.6267 27.5739 40.7297 27.5963C40.8639 27.8566 40.9982 28.1169 41.1369 28.3816C41.1772 28.9784 41.3293 29.665 41.0877 30.2034C40.8415 30.2034 40.8102 30.1406 40.752 30.3784C40.5462 30.015 40.5283 30.0823 40.8013 29.7861C40.7789 29.4496 40.6625 29.0323 40.5148 28.7316H40.4253C40.3269 28.8887 40.215 29.0502 40.1121 29.2163C40.0763 29.1759 40.0449 29.14 40.0136 29.1041H39.49C39.3378 28.947 39.1812 28.7899 39.029 28.6329C38.5099 28.6329 38.5189 28.597 38.1206 28.9246C38.1206 29.1444 38.2235 29.4272 38.2459 29.665C38.04 29.84 37.767 29.7861 37.5209 29.8489C36.8943 30.2887 36.8183 30.0912 36.0843 30.1226C35.9366 30.2124 35.9366 30.2124 35.8963 30.2214C35.6413 29.9477 35.5518 29.9207 35.1758 29.84C34.9834 30.0239 35.0102 30.2124 35.0102 30.4637C34.697 30.4547 34.415 30.4502 34.1107 30.3919C33.8869 30.4233 33.6498 30.6073 33.4394 30.697C33.3857 30.6387 33.3365 30.5804 33.2917 30.531C33.0501 30.531 33.0232 30.4547 32.8487 30.2842C32.6607 30.2124 32.513 30.2842 32.3877 30.1092C32.3206 30.1092 32.2982 30.1226 32.24 30.1451C32.1774 29.9521 32.0566 29.3957 31.9313 29.2746C31.8731 29.2746 31.8731 29.2746 31.4927 29.3509C31.4882 29.1848 31.2734 29.1848 31.1436 29.1399C31.0541 28.8617 31.0541 28.8617 31.0272 28.8303C30.9691 28.8124 30.9691 28.8124 29.7071 28.7855C29.6757 28.8348 29.6802 28.9246 29.6802 28.9829C29.5459 29.0009 29.4922 28.9784 29.4699 29.1085C29.4117 29.113 29.3848 29.122 29.3356 29.1489C29.3401 29.2342 29.349 29.3239 29.3624 29.4137C29.3043 29.4092 29.2506 29.4092 29.1969 29.4002C29.0626 29.0906 28.9999 29.1489 28.6553 29.122C28.5166 28.938 28.3689 28.7585 28.2257 28.579C28.0646 28.5835 27.823 28.5432 27.6842 28.615C27.5544 28.4848 27.3128 28.7675 27.2009 28.8438C27.2009 29.0502 27.2322 29.297 27.1651 29.4945C27.1382 29.4855 27.1382 29.4855 27.098 29.4271C26.9861 29.4271 26.7399 29.665 26.6997 29.7861C26.6907 30.0284 26.6818 30.2842 26.6728 30.531C26.6415 30.531 26.6012 30.5355 26.5699 30.54C26.2074 29.9297 25.8807 29.4989 25.8225 28.7855H25.9344C26.0463 28.6419 26.006 28.4714 26.1805 28.3637C26.8697 28.1483 26.9055 28.4086 26.4535 27.5021C26.4804 27.2105 26.5967 27.0489 26.4222 26.8156C26.4356 26.7797 26.4535 26.7393 26.4669 26.7034C26.8966 26.8829 26.8384 26.1739 26.8563 25.8957C27.1248 25.8104 27.3844 25.7342 27.6484 25.6624C27.8722 25.5008 27.7424 25.088 27.729 24.8816C27.8766 24.9444 28.0646 25.0476 28.2302 25.0476C28.4584 24.8098 28.6822 24.572 28.9104 24.3387C28.8478 24.6752 28.8523 24.6842 28.5793 24.922C28.5793 25.0521 28.6061 25.2047 28.6643 25.3213C28.6867 25.3213 28.7135 25.3213 28.7404 25.3303C28.7896 25.2585 28.8388 25.1912 28.8881 25.1329C28.9283 25.2271 28.9686 25.3213 29.0134 25.4201C29.0402 25.4201 29.0626 25.4201 29.0895 25.4246C29.1342 25.3393 29.179 25.2451 29.2237 25.1598C29.3087 25.1463 29.3087 25.1463 29.4609 25.1463C29.4609 25.2451 29.443 25.3527 29.5683 25.3527C29.6355 25.2585 29.6981 25.1688 29.7742 25.079C29.7921 25.3169 29.7921 25.3169 29.8055 25.3393C30.0516 25.3303 30.5618 25.2675 30.6424 25.272C30.611 25.3213 30.5931 25.3797 30.6424 25.4246C30.7319 25.4246 30.808 25.4246 30.8975 25.3976C31.703 24.038 32.5309 22.7053 33.4349 21.3995C33.4663 21.3816 33.5468 21.422 33.5603 21.4489C33.3365 21.763 33.1262 22.0726 32.9113 22.3822C32.6562 22.7771 30.884 25.3393 31.0452 25.5726C31.1705 25.5547 31.26 25.438 31.3629 25.3527C31.4882 25.5008 31.4882 25.5008 31.7522 25.8688C31.8596 25.8822 31.8999 25.8105 31.9715 25.7387C31.9715 25.6444 31.9313 25.5771 31.891 25.4874C31.891 25.2226 32.1147 25.0072 32.3161 24.8681C32.343 24.8861 32.3877 24.8995 32.4191 24.9175C32.3251 25.272 32.2311 25.631 32.1371 25.9855C32.1147 26.0124 31.8552 26.1201 31.7522 26.1739C31.7522 26.3085 31.8999 26.4297 32.0252 26.4297C32.1013 26.3399 32.4191 25.8957 32.522 25.8957C32.513 25.9765 32.513 26.0662 32.513 26.156C32.607 26.2457 32.7636 26.322 32.7636 26.1335C32.7413 26.1246 32.7144 26.1111 32.701 26.1021C32.7055 26.0124 32.7144 25.9226 32.7234 25.8329C32.6294 25.7835 32.5309 25.7342 32.4325 25.6848C32.4191 25.4964 32.4683 25.2451 32.5847 25.1015C32.5847 25.3572 32.5981 25.3393 32.8353 25.4605C32.889 25.4246 32.889 25.4245 32.9069 25.3842C32.8666 25.3168 32.8353 25.254 32.8039 25.1867C32.9113 25.079 33.0725 25.2316 33.1709 25.2899C33.1172 25.429 32.9874 25.7028 33.247 25.7028C33.4797 25.4694 33.3007 25.1598 33.1933 24.9534C33.1978 24.9399 33.2067 24.9265 33.2157 24.922C33.5961 24.8188 33.605 24.8951 33.6587 24.5226C33.7572 24.4688 33.8601 24.4059 33.963 24.3476C33.963 23.4053 33.972 22.4675 33.9765 21.5297H34.0883C34.0973 22.4585 34.0973 23.3873 34.1107 24.3162C34.2539 24.3072 34.4374 24.3656 34.4374 24.1816C34.4956 24.1592 34.5224 24.0919 34.5448 24.0245C34.5583 24.038 34.5582 24.038 34.6612 24.038C34.7238 24.2309 34.8805 24.029 35.0102 24.029C35.3548 24.2265 35.0729 24.4822 34.9118 24.756C35.0953 24.8726 35.2832 24.8547 35.319 24.5854C35.3504 24.6258 35.3817 24.6707 35.422 24.7156H35.4981C35.695 24.406 35.9187 24.6707 36.1738 24.4598C36.1738 24.3835 36.147 24.3386 36.1649 24.2579C35.6278 23.3155 35.0684 22.3732 34.4777 21.4578C34.4911 21.4354 34.4911 21.4354 34.5896 21.3906C35.1937 22.3194 35.7979 23.2617 36.2991 24.2489C36.4468 24.379 36.769 24.7649 37.0196 24.6393C37.0286 24.5495 36.9883 24.4598 36.9659 24.3745C37.1673 24.388 37.2389 24.2579 37.3866 24.1233C37.3687 23.9797 37.3061 23.9348 37.23 23.8181C37.2703 23.7284 37.5075 23.6207 37.597 23.5668C37.6238 23.5893 37.6551 23.6117 37.6865 23.6386C37.8118 23.6207 37.8118 23.6207 38.0579 23.5668C38.125 23.4412 38.1967 23.3156 38.2683 23.1944C38.501 23.1944 38.7292 23.3245 38.7068 23.0374C37.5119 22.1982 36.2141 21.6104 34.8357 21.1393C34.8491 21.0989 34.8626 21.0585 34.8805 21.0226C36.2633 21.4938 37.5343 22.0861 38.7605 22.9027C38.7605 22.8489 38.765 22.7905 38.7739 22.7412C38.9753 22.7053 38.9753 22.7053 39.0335 22.6784C39.0335 22.647 39.0335 22.62 39.038 22.5931C38.9485 22.5393 38.8634 22.4809 38.7739 22.4226C38.8992 22.0053 39.2125 21.7271 39.6421 21.6598C39.6645 21.6284 39.6645 21.579 39.6511 21.5431C39.6063 21.5296 39.5482 21.5297 39.5258 21.4938C39.5527 21.4534 39.575 21.4175 39.6019 21.3771C39.6959 21.3771 39.8793 21.5611 39.9554 21.6239C39.8749 21.7046 39.8256 21.8079 39.7719 21.9245C39.7138 21.9156 39.6243 21.8752 39.5795 21.9245C39.5795 21.9515 39.584 21.9739 39.5884 22.0053C39.6824 22.0726 39.7719 22.1309 39.8704 22.1938C39.9465 22.4226 39.9465 22.4226 39.9689 22.4495C40.1121 22.454 40.2597 22.4585 40.4029 22.4675C40.4164 22.5034 40.3985 22.5124 40.3761 22.5393C40.3761 22.7995 40.7431 23.2393 40.8818 23.4726C40.7386 23.5668 40.7386 23.5669 40.7162 23.6027C40.7789 23.9169 40.6983 24.6393 41.2398 24.5451C41.3025 24.5854 41.3651 24.6213 41.4278 24.6617C41.4278 24.6976 41.4188 24.7335 41.4188 24.7739C41.7679 25.079 41.8037 25.2585 41.9469 25.7028C44.3412 28.1887 45.9254 31.1368 46.6325 34.5291C46.7444 35.247 46.7981 35.8259 46.816 35.8753C47.5723 34.7938 48.1273 33.7483 48.4898 32.5009C48.5659 31.8727 48.6106 31.2265 48.6106 30.5759C48.6106 26.9367 47.2949 23.5982 45.1199 21.0091ZM24.113 41.1746C24.1756 41.1298 24.2427 41.1612 24.3188 41.1702C24.3501 41.1343 24.3501 41.1343 24.3636 41.0939C24.3949 41.0939 24.4262 41.0894 24.4575 41.0894C24.5023 41.1253 24.5023 41.1253 24.6321 41.3541C24.547 41.5381 24.6634 41.7535 24.6366 41.9465C24.2964 41.6368 24.0369 41.4663 23.8758 41.0311C23.916 41.0445 23.916 41.0445 24.113 41.1746ZM40.0226 39.999C40.1031 39.8868 40.2866 39.5637 40.4119 39.5278C40.5104 39.6221 40.5506 39.6176 40.6938 39.6266C40.4746 39.8375 40.4701 39.8958 40.1792 39.9586C40.036 40.1606 39.8928 40.367 39.7496 40.5734C39.5348 40.6766 39.3199 40.7843 39.1051 40.8875C39.3423 40.533 39.6511 40.2009 40.0226 39.999ZM35.7442 38.1368C35.7576 37.8182 36.0082 37.4503 36.3125 37.6971C36.3483 37.8407 36.3125 38.0201 36.3707 38.1458C36.599 38.1458 36.8093 37.9753 37.0376 37.9394C37.2568 38.1458 37.4269 38.249 37.409 38.5945C36.872 38.6439 36.7109 38.6977 36.8048 39.2945H36.778C36.5453 39.0971 36.3081 38.9759 36.1962 39.2586C35.9232 38.8593 35.9232 38.8592 35.8829 38.765C35.9456 38.4375 35.9411 38.3971 35.7442 38.1368ZM36.044 39.7432C36.0485 39.6266 36.0575 39.5593 36.1201 39.4695C36.1291 39.4875 36.1291 39.4875 36.044 39.7432ZM36.0843 39.3125C36.0485 39.3708 36.0485 39.3708 35.9993 39.4067C35.8919 39.0881 35.8919 39.0881 35.8829 39.0163C35.9456 39.1195 36.0127 39.2138 36.0843 39.3125ZM35.9769 40.2458C35.9769 40.156 35.9769 40.1561 36.0351 39.8958C36.1291 40.0304 36.3394 40.2458 36.3797 40.3984C36.223 40.367 36.1156 40.3176 35.9769 40.2458ZM36.4468 40.4836C36.4379 40.4702 36.4334 40.4567 36.4334 40.4477C36.4602 40.4432 36.4602 40.4432 36.4916 40.4657C36.4781 40.4701 36.4602 40.4702 36.4468 40.4836ZM37.1539 41.233C36.7243 41.0894 36.6929 41.0311 36.4871 40.6227C36.6929 40.4477 36.8988 40.5644 37.1091 40.7349C37.1181 40.9593 37.136 41.0086 37.2792 41.1746C37.2658 41.2285 37.2031 41.2285 37.1539 41.233ZM38.5949 37.356C38.5591 37.4906 38.5099 37.5624 38.4249 37.6701C38.3891 37.6701 38.3533 37.6746 38.322 37.6746C38.1474 37.5445 38.492 37.4009 38.5949 37.356ZM38.2459 38.4285C38.2996 38.6394 38.3488 38.8548 38.4025 39.0701C38.1922 39.2721 38.0132 39.6086 37.7088 39.5862C37.6462 39.6759 37.6462 39.6759 37.5835 39.7432C37.5791 39.658 37.5791 39.658 37.5567 39.5996C37.4895 39.5772 37.2613 39.5548 37.2568 39.5413C37.9997 38.9669 37.9997 38.9669 38.0221 38.9355V38.4689C37.9102 38.2714 37.9102 38.2714 37.8968 38.2265C38.0132 38.2894 38.125 38.3612 38.2459 38.4285ZM37.9102 38.5317C37.8923 38.6528 37.8878 38.7695 37.8878 38.8951C37.6238 39.0926 37.3687 39.2855 37.1091 39.4875C37.0644 39.4246 37.0197 39.3932 36.9525 39.3528C36.8183 38.7291 36.9839 38.765 37.597 38.6843C37.8118 38.5631 37.8118 38.5631 37.9102 38.5317ZM37.8163 37.1676C37.8163 37.356 37.503 37.6028 37.4314 37.8047C37.0912 37.5804 37.2568 37.7105 37.2568 37.4413C37.1002 37.356 36.7959 37.2349 36.7959 37.015C37.3777 36.7548 37.2389 36.7996 37.8163 37.1676ZM36.3573 37.2573C36.4065 37.2528 36.4692 37.2439 36.5274 37.2349C36.5542 37.1945 36.5453 37.1451 36.5274 37.1047C36.5766 37.0958 36.6258 37.0868 36.6706 37.0823C36.8048 37.3156 36.8764 37.3561 37.1091 37.4907C37.1091 37.5625 37.0599 37.6208 37.0644 37.706C37.2031 37.7913 37.9102 38.1727 37.8252 38.4195C37.7267 38.4689 37.6372 38.5182 37.5432 38.5721C37.4761 38.1278 37.4179 38.1144 37.051 37.7958C36.8496 37.8407 36.6616 37.9259 36.4737 38.0022C36.4647 37.8855 36.4602 37.7734 36.4468 37.6567C36.3797 37.5984 36.2991 37.531 36.2544 37.4593C36.2857 37.3875 36.3126 37.3201 36.3573 37.2573ZM34.1152 36.1176C33.9407 36.1221 33.7661 36.1355 33.5961 36.1445C33.5066 35.8304 34.0973 36.1086 34.1152 36.1176ZM41.6068 38.7112C41.6471 38.6528 41.6918 38.6035 41.7366 38.5451C41.75 38.5451 41.7545 38.5452 41.7634 38.5541C41.7097 38.6035 41.6515 38.6528 41.6068 38.7112ZM42.3139 38.4195C42.1125 38.3881 42.1349 38.6349 42.1349 38.765C42.0812 38.7695 42.032 38.774 41.9827 38.774C41.9827 38.6843 41.9827 38.617 41.9156 38.5541C41.9603 38.5048 41.9604 38.5048 42.1483 38.1368C42.1841 38.1458 42.211 38.1548 42.2512 38.1637C42.2826 38.24 42.3587 38.3432 42.3139 38.4195ZM42.3586 28.8259C42.39 28.8348 42.4302 28.8438 42.466 28.8528C42.3273 29.2342 42.4884 29.2925 42.0901 29.4945C42.0991 29.4182 42.1125 29.3509 42.1259 29.2835C42.0857 29.2028 41.9425 28.9874 41.9604 28.9066C42.1617 28.9291 42.1931 28.938 42.3586 28.8259ZM42.1528 29.665C42.1528 29.6919 42.1528 29.6919 42.1349 29.7009C42.1259 29.6874 42.117 29.6739 42.108 29.665H42.1528ZM42.3363 31.59C42.3363 31.4284 42.3363 31.4284 42.3139 31.1996C42.3363 31.1996 42.3586 31.1996 42.381 31.1996C42.6406 30.7419 42.3586 30.3425 42.39 29.8669C42.7077 30.1002 42.8151 30.6028 42.8599 30.9887C42.7346 30.9887 42.7077 31.3207 42.6764 31.4195C42.2691 31.5272 42.5511 31.5496 42.475 31.8413C42.466 31.8413 42.4571 31.8458 42.4482 31.8502C42.4168 31.8143 42.3855 31.7695 42.3586 31.7291H42.2826C42.1349 31.8772 41.9872 32.0297 41.844 32.1778C41.9335 31.8592 42.0722 31.8009 42.3363 31.59ZM41.7187 32.5547C41.7903 32.5637 41.7903 32.5637 41.8843 32.613C41.8798 32.6983 41.8753 32.7926 41.8708 32.8868C41.8619 32.8868 41.8574 32.8868 41.8574 32.8913C41.8127 32.7477 41.7948 32.7028 41.6918 32.5996C41.7008 32.5816 41.7097 32.5637 41.7187 32.5547ZM41.6247 37.531C41.6247 37.5445 41.6292 37.549 41.6336 37.5624H41.5934C41.58 37.558 41.5665 37.549 41.5621 37.5445C41.6068 37.5266 41.6068 37.5265 41.6247 37.531ZM41.4099 38.083H41.4502C41.4323 38.1009 41.4188 38.1189 41.4099 38.1368V38.083ZM40.8415 31.7605C40.8773 31.7695 40.8773 31.7695 41.2085 32.124C41.1637 32.3797 41.1369 32.5278 40.9131 32.6804C40.8013 32.299 40.7073 32.1329 40.8415 31.7605ZM40.7386 30.5265C40.7296 30.6611 40.7297 30.6611 40.7476 31.0246C40.5775 31.3925 40.4208 31.4195 40.7386 31.6528C40.6491 31.9534 40.667 31.9445 40.3806 32.0297C40.3806 31.8502 40.4164 31.6528 40.1971 31.6663C40.2374 31.4733 40.2732 31.2804 40.309 31.0919C40.3806 31.0784 40.4432 31.074 40.5148 31.065C40.5641 30.89 40.5641 30.715 40.6312 30.5355C40.667 30.531 40.7028 30.531 40.7386 30.5265ZM33.6274 30.7554C33.7706 30.6791 33.9093 30.6073 34.0615 30.531C34.4016 30.5534 34.7372 30.5804 35.0818 30.5804C35.2071 30.4188 35.0998 30.1765 35.2161 29.9835C35.3459 29.997 35.3459 29.997 35.5741 30.0554C35.8561 30.356 35.8068 30.4637 36.147 30.2214C36.3841 30.2438 36.8854 30.3739 37.1002 30.3021C37.4537 30.0464 37.5656 29.9611 37.9908 29.9118C38.0713 30.4457 38.0042 30.3156 38.4696 30.2214C38.5189 30.2707 38.5636 30.3246 38.6173 30.3784C38.5949 30.4457 38.4875 30.5041 38.4249 30.5534C38.2682 30.7329 38.1161 30.9169 37.9639 31.1009C37.8341 31.1188 37.6954 31.1323 37.579 31.1861C37.579 31.2938 37.6372 31.3746 37.6865 31.4643C37.6865 31.7156 36.8048 32.2451 36.6079 32.2765C36.1201 31.9893 35.7308 32.097 35.2206 32.1913C35.055 32.0567 34.8894 31.9265 34.7238 31.7964C34.1465 31.6304 34.1465 31.6304 34.0749 31.5945C33.9988 31.2534 33.9183 31.0111 33.6274 30.7823V30.7554ZM30.7587 22.2117C30.7364 22.2162 30.714 22.2207 30.6871 22.2207C30.6961 22.2072 30.6961 22.2072 30.7587 22.2117ZM27.7603 20.5739C27.8632 20.5066 27.9482 20.4034 28.0601 20.372C28.0557 20.5514 28.087 20.4482 28.1317 20.538C28.0646 20.6143 28.0333 20.6142 28.0467 20.7219C28.0959 20.7399 28.0959 20.7399 28.1586 20.7264C28.1228 20.8296 27.9393 20.9194 27.8364 20.9688C27.805 20.9508 27.7737 20.9373 27.7424 20.9194C27.7469 20.8027 27.7513 20.6861 27.7603 20.5739ZM28.266 23.154V23.1765C28.1675 23.1944 28.0736 23.2303 27.9751 23.2527C27.9214 23.2213 27.8722 23.1854 27.8274 23.1495C27.9751 23.1495 28.1228 23.1495 28.266 23.154ZM26.3058 23.2707C26.4311 23.2572 26.7399 23.2976 26.7399 23.1271C26.7176 23.1092 26.6952 23.0957 26.6728 23.0822C26.6728 23.0688 26.6862 23.0598 26.6952 23.0553C26.7086 23.0598 26.731 23.0598 26.7399 23.0643C26.7757 23.145 26.7757 23.145 26.8071 23.1944C26.8294 23.1944 26.8429 23.1944 26.8652 23.2079C26.8787 23.1944 26.8966 23.1764 26.91 23.1675C26.8966 23.1002 26.8831 23.0373 26.8697 22.97C26.8831 22.97 26.8966 22.979 26.91 22.9835C26.9145 22.988 26.9234 23.0059 26.9324 23.0284C27.1248 23.0329 27.192 23.0149 27.3307 23.1495C27.0532 23.4771 27.0756 23.531 26.6683 23.5758C26.6594 23.5534 26.6549 23.5354 26.6415 23.522C26.552 23.522 26.5117 23.522 26.4177 23.5579C26.3595 23.522 26.3058 23.4771 26.2387 23.4502C26.2387 23.3829 26.27 23.3335 26.3058 23.2707ZM26.1134 22.2207C26.1044 22.2341 26.1 22.2476 26.0955 22.2655C26.0731 22.2566 26.0597 22.2476 26.0463 22.2431C26.0642 22.2341 26.0865 22.2297 26.1134 22.2207ZM25.6122 23.9797C25.724 23.8899 25.8583 23.7329 26.015 23.8002V23.8316C25.8673 23.9438 25.8001 23.9662 25.6122 23.9797ZM25.7912 25.2585C25.8449 25.2585 25.8896 25.2585 25.9433 25.263C25.9433 25.4649 26.1895 25.2451 26.279 25.2316C26.3372 25.3797 26.3953 25.5233 26.458 25.6713C26.3372 25.8867 26.1268 25.6893 26.0194 25.604C25.8538 25.6893 25.6882 25.954 25.5764 26.1111C25.5003 26.1335 25.5003 26.1335 25.0975 26.1963C24.9543 25.8463 24.9767 25.4335 25.102 25.079C25.2139 24.9848 25.3302 24.8951 25.4421 24.8098C25.7509 24.8861 25.6704 25.0566 25.7912 25.2585ZM25.9344 22.2745C25.9075 22.3508 25.8896 22.4181 25.8762 22.4899C25.6525 22.5034 25.6703 22.5123 25.4868 22.6021C25.4824 22.5572 25.4824 22.5213 25.4824 22.4809C25.6525 22.4136 25.7554 22.3194 25.9344 22.2745ZM24.9767 25.0297C24.9185 25.4829 24.8021 25.797 24.9632 26.2143C24.9274 26.2188 24.8961 26.2233 24.8737 26.2278C24.65 25.7745 24.7619 25.7521 24.6813 25.263C24.7619 25.0611 24.8111 24.8726 24.8558 24.6572C25.0349 24.6258 25.2944 24.4194 25.4197 24.4194C25.4287 24.4284 25.4376 24.4374 25.4511 24.4508C25.4108 24.756 25.2094 24.8457 24.9767 25.0297ZM23.8355 25.5906C23.3924 25.5906 23.2537 26.663 23.2134 26.9906C23.1821 26.9906 23.1508 26.9951 23.1194 26.9996C23.0657 27.0803 22.9986 27.2104 22.9046 27.2284C23.191 26.8335 23.2089 26.4297 23.3074 25.9495C23.4014 25.797 23.6833 25.4111 23.5133 25.2361C23.6609 25.0566 23.8131 24.8816 23.9563 24.7066C24.0145 24.6976 24.0682 24.6976 24.1219 24.6886C24.1219 24.8771 24.1622 24.9848 24.0279 25.1149C24.0593 25.3034 24.0861 25.4874 24.113 25.6713C24.0593 25.6938 24.0145 25.7252 23.9563 25.7566C23.9563 25.8194 23.9563 25.8867 23.9653 25.9585C23.9921 25.9765 24.0145 25.9944 24.0458 26.0169C24.0234 26.1739 23.9518 26.1111 23.8758 26.2143C23.8131 26.4162 23.7191 26.6137 23.6967 26.8246C23.7281 26.847 23.7683 26.865 23.8086 26.8874C23.8086 27.3585 23.6252 27.0983 23.8623 27.5649H23.8355C23.6968 27.4662 23.6475 27.4213 23.4909 27.3989C23.661 27.1162 23.6609 26.8335 23.6967 26.5015C23.8176 26.156 24.0279 25.9137 23.8355 25.5906ZM23.1776 28.2066H23.1508C23.1329 28.3009 23.0881 28.3367 23.0389 28.4175C23.0389 28.3188 23.0523 28.2874 23.0881 28.1887C23.1776 28.1932 23.1776 28.1932 23.1776 28.2066ZM22.748 24.6079C22.8106 24.5047 23.0255 24.2355 23.1508 24.029H23.2403C23.1508 24.2579 23.1373 24.4194 23.115 24.6707C23.0568 24.7066 22.9986 24.7335 22.9449 24.7739C22.8822 24.6976 22.8375 24.6393 22.748 24.6079ZM24.198 26.0303C24.2025 26.1739 24.2561 26.3534 24.2561 26.4701C24.1666 26.5553 24.0011 26.7752 23.8847 26.7976C23.8713 26.7887 23.8534 26.7797 23.8399 26.7707C23.8399 26.6226 23.9384 26.4342 23.9832 26.2906C24.1129 26.2681 24.1488 26.1425 24.198 26.0303ZM23.8221 27.2688C23.9071 27.0265 24.113 26.6316 24.3636 26.5464C24.2964 26.7752 24.1353 27.1162 24.1353 27.3406C24.1443 27.3495 24.1577 27.3675 24.1711 27.3765C24.0995 27.4528 24.0995 27.4528 23.9832 27.538C23.9339 27.4438 23.8758 27.3585 23.8221 27.2688ZM24.2248 27.39C24.3457 27.5739 24.462 27.7579 24.5918 27.9464C24.5515 28.0271 24.3367 28.0226 24.2472 28.1079C24.0727 27.9643 23.9787 27.906 23.9787 27.6682C24.0413 27.5919 24.1353 27.4214 24.2248 27.39ZM24.2964 27.2778C24.2964 27.0085 24.6008 26.6406 24.4173 26.4297C24.3949 26.322 24.3949 26.322 24.3815 25.963C24.4978 25.9361 24.4978 25.9361 24.5963 25.9406C24.7619 26.2816 24.8961 26.6092 25.1333 26.9098C25.2989 27.2508 25.2139 27.3361 25.0886 27.6996C24.9633 27.7669 24.8335 27.8297 24.7082 27.9015C24.5694 27.6951 24.4307 27.4797 24.2964 27.2778ZM24.744 24.5675C24.6052 24.8592 24.5605 25.3348 24.6321 25.6534C24.6187 25.7028 24.6186 25.7028 24.5426 25.797C24.4396 25.8105 24.3457 25.8194 24.2472 25.8284C24.2293 25.8508 24.2069 25.9765 24.1935 25.9765V25.9495C24.1577 25.9316 24.1219 25.9137 24.0906 25.8957V25.8194C24.1398 25.797 24.1935 25.7701 24.2383 25.7521C24.2293 25.5861 24.2293 25.5861 24.1577 25.1598C24.2875 25.0072 24.2561 24.8996 24.2606 24.6976C24.4799 24.5675 24.4844 24.5451 24.5605 24.3028C24.735 24.1816 24.9274 24.0156 25.1602 24.047C25.1333 24.1098 25.1288 24.1233 25.1512 24.1951C25.2586 24.1951 25.3392 24.1367 25.4376 24.0829C25.2497 24.4239 25.1199 24.4688 24.744 24.5675ZM24.9722 23.9348C24.9991 23.9168 25.0304 23.8989 25.0617 23.8854C25.0617 23.8989 25.0662 23.9079 25.0706 23.9303C25.0348 23.9303 25.0035 23.9303 24.9722 23.9348ZM24.5739 22.9386C24.6634 23.0059 24.6992 23.0508 24.8066 23.0374C24.829 22.9342 24.8514 22.8354 24.8737 22.7367C25.008 22.7636 25.1423 22.7906 25.281 22.813C25.0841 23.0104 24.9453 23.1047 24.8737 23.3694C24.7977 23.3874 24.7216 23.4008 24.6545 23.4277C24.5739 23.0059 24.5739 23.0059 24.5739 22.9386ZM23.4103 23.9438C23.5133 23.8989 23.6207 23.8495 23.7281 23.8002C23.8444 23.6701 23.9697 23.3335 24.095 23.2707C24.095 23.3335 24.0995 23.3963 24.0995 23.4636C24.1577 23.522 24.2069 23.4771 24.2606 23.4412C24.3054 23.7374 24.2606 23.6521 24.6276 23.7643C24.6724 23.8226 24.7171 23.881 24.7619 23.9438C24.7842 23.9438 24.9095 23.9079 24.9095 23.9572C24.4262 24.0559 24.5292 24.406 24.2472 24.5585C24.1398 24.5675 24.0235 24.5675 23.916 24.572C23.746 24.7739 23.5714 24.9669 23.4014 25.1688C23.3566 25.1374 23.3164 25.1104 23.2761 25.088C23.3074 24.6438 23.2134 24.388 23.4103 23.9438ZM22.9002 23.2707C22.9046 23.3111 22.9046 23.3111 22.8867 23.3873C22.7525 23.4322 22.6182 23.4771 22.484 23.5354C22.6093 23.3963 22.7301 23.347 22.9002 23.2707ZM22.3273 23.7149C22.5421 23.6386 22.7614 23.5669 22.9852 23.4906C23.0255 23.3604 23.0613 23.0598 23.2626 23.0598C23.2 23.5354 23.0076 24.4688 22.4571 24.6348C22.4303 24.6842 22.4034 24.7335 22.3407 24.7515C22.2781 24.7245 22.2244 24.6976 22.1707 24.6752C22.1483 24.5675 22.1304 24.4463 22.1125 24.3297C22.1528 24.1143 22.3049 23.9438 22.3273 23.7149ZM21.9872 35.2426C21.9156 35.2471 21.8664 35.2471 21.8216 35.2919C21.9156 36.0727 21.9156 36.0727 21.9111 36.1176C21.5441 35.615 21.3562 35.3368 21.0966 34.7579C20.9937 34.4079 20.8907 34.0534 20.7923 33.7079C20.7833 33.2951 20.7833 32.8958 20.7744 32.4964C20.8505 32.4381 20.9266 32.3887 21.0071 32.3393C21.0519 32.3977 21.0653 32.4156 21.1414 32.4201C21.2309 32.2002 21.3204 31.9849 21.4054 31.7695C21.4636 31.8143 21.4815 31.8278 21.5441 31.8368C21.6113 31.7605 21.6739 31.6752 21.7366 31.599C22.4884 32.6714 22.4884 32.6714 22.6316 32.8554C22.7032 32.8643 22.7704 32.8733 22.842 32.8778C22.842 33.0618 22.8912 33.2413 22.9046 33.4208C22.8823 33.5195 22.842 34.1701 22.7346 34.2285C22.6137 34.4483 22.4929 34.6637 22.3676 34.8791C22.2602 34.8791 22.1438 34.8791 22.0319 34.8881C21.9648 34.9509 21.9917 35.1439 21.9872 35.2426ZM19.8122 29.2297H19.7496C19.6556 29.4002 19.575 29.5707 19.4855 29.7502C19.4766 29.7502 19.4676 29.7547 19.4587 29.7637C19.405 29.5528 19.3513 29.3553 19.302 29.1489C19.6243 28.8348 19.6869 28.7855 19.7898 28.3457C19.8659 28.7496 19.8704 28.7675 20.1523 28.4489C20.6938 28.8618 20.8818 28.9784 20.9445 29.665C20.7833 29.9701 20.6267 30.2797 20.4701 30.5804C20.2418 30.6566 20.2418 30.6566 20.1747 30.6611C20.0762 30.531 19.9823 30.3964 19.8883 30.2618C19.7943 29.9387 20.0046 29.4944 19.8122 29.2297ZM19.7227 29.5438C19.7406 30.1765 19.7272 30.2483 20.0673 30.7329C20.036 31.0246 20.0136 31.3118 19.7719 31.5002C19.7451 31.3746 19.7451 31.3746 19.7182 31.3297C19.6959 31.3207 19.678 31.3208 19.6556 31.3208C19.6063 30.6611 19.4273 30.1227 19.7227 29.5438ZM20.0539 31.6528C20.1031 31.3522 20.2016 31.0695 20.2553 30.7733C20.3493 30.7509 20.4387 30.7284 20.5372 30.706C20.6938 30.4009 20.8594 30.0912 21.0205 29.7861C21.034 29.813 21.0384 29.84 21.0474 29.8803C20.7833 29.9297 21.2577 31.4643 21.307 31.6663C21.2398 31.8547 21.1727 32.0477 21.1056 32.2361C20.6446 31.9893 20.6491 32.6804 20.6491 32.8913H20.5909C20.3806 32.8419 20.206 32.5861 20.0539 32.4381V31.6528ZM21.4949 31.5945C21.204 31.3925 21.0742 30.3964 21.0071 30.006C21.2756 29.9656 20.8863 28.9874 20.9131 28.8303C20.9266 28.8214 20.9444 28.8124 20.9623 28.8034C20.9758 28.7047 21.0026 28.1573 21.0161 28.1169C21.2398 27.8566 21.4233 27.5515 21.7455 27.4124C21.7679 27.5605 21.7679 27.5605 21.8216 29.0682C21.8798 29.122 21.9335 29.1579 22.0006 29.1893C22.0767 29.1489 22.1304 29.0457 22.1841 28.9784C22.3855 28.9784 22.4884 29.6695 22.4884 29.8579C21.5262 31.5765 21.5262 31.5765 21.4949 31.5945ZM21.5441 27.3585C21.6694 27.1162 21.7903 26.8829 21.9201 26.654C22.0901 26.654 22.1214 26.654 22.2468 26.5374C22.3855 26.681 22.1572 26.847 22.0812 26.9412C21.7589 26.9412 21.8261 26.9637 21.759 27.2778C21.6918 27.3047 21.6202 27.3271 21.5441 27.3585ZM21.6247 24.213C21.7097 24.3656 21.7455 24.379 21.9111 24.3431C21.8753 24.5585 21.8619 25.0701 21.656 25.1912C21.6292 25.0342 21.6247 25.0476 21.4636 25.0252C21.4054 24.8816 21.2219 24.5585 21.2533 24.4059C21.3562 24.3566 21.5039 24.213 21.6247 24.213ZM21.5307 25.1733C21.5397 25.2989 21.5128 25.3976 21.6426 25.3976C21.7276 25.3034 21.8171 25.2181 21.9022 25.1329C22.1036 25.4874 22.1304 25.9496 22.211 26.3534C22.1125 26.4656 21.938 26.4566 21.835 26.5329C21.5397 27.1072 21.3114 27.5515 20.8997 28.0361C20.8281 28.2605 20.8102 28.5207 20.7744 28.7541C20.7699 28.7585 20.761 28.763 20.7565 28.7675C20.6043 28.6419 20.4477 28.5207 20.2911 28.4041C20.2911 27.2284 20.7699 25.9855 21.1369 24.8906C21.1727 24.8637 21.204 24.8367 21.2443 24.8367C21.3248 25.0162 21.3204 25.1733 21.5307 25.1733ZM21.1816 24.6527C21.1503 24.6707 21.119 24.6976 21.0921 24.7201C21.1011 24.6528 21.1145 24.5899 21.1324 24.5226H21.1503C21.1593 24.5675 21.1727 24.6079 21.1816 24.6527ZM20.8281 24.2444C20.9266 24.213 21.025 24.1771 21.1324 24.1502C21.1414 24.2534 21.1593 24.3252 21.1056 24.4239C20.9668 24.4239 20.8415 24.6034 20.7386 24.6886C20.7699 24.5406 20.7968 24.388 20.8281 24.2444ZM20.6491 24.4733C20.6222 24.6124 20.6043 24.7515 20.5775 24.8906C20.752 25.0476 20.8326 24.6752 20.9758 24.6752C20.9624 24.7739 20.9266 24.8592 20.94 24.9534C20.9489 24.9579 20.9624 24.9669 20.9803 24.9803C20.9131 25.1598 20.8549 25.3393 20.7968 25.5143C20.7386 25.4874 20.667 25.429 20.6043 25.4694C20.4119 25.8508 20.2239 26.2457 20.036 26.6316C19.9554 26.2278 19.9554 26.2278 19.9465 26.0617C20.1434 25.4874 20.3582 25.0072 20.6491 24.4733ZM19.848 26.3713C19.8838 26.5464 19.8391 26.9008 20.0673 26.8694C20.6222 25.6938 20.6222 25.6938 20.6849 25.5996C20.6938 25.613 20.7073 25.631 20.7252 25.6399C20.4522 26.506 20.309 27.3451 20.1523 28.247C19.9778 28.4624 19.9778 28.4624 19.9465 28.4759C19.857 28.0541 19.857 28.0541 19.8256 27.9778H19.7451C19.6422 28.4444 19.6466 28.6643 19.2976 28.9784C19.4094 28.1169 19.5303 27.1746 19.848 26.3713ZM19.2439 31.8637C19.1991 31.065 19.1946 30.2618 19.2483 29.4586C19.4005 30.0374 19.584 30.706 19.5168 31.3118C19.3155 31.6752 19.3155 31.6752 19.2439 31.8637ZM19.4497 33.4073C19.4005 33.0618 19.3333 32.7163 19.3065 32.3663C19.6332 32.5323 19.6332 32.7252 19.7451 33.0707C19.6601 33.165 19.5168 33.2906 19.481 33.4073H19.4497ZM19.5392 33.5644C19.575 33.3983 19.763 33.2413 19.8704 33.1111C19.8435 32.8778 19.7272 32.64 19.6511 32.4201C19.1051 32.1284 19.2886 32.1105 19.481 31.6169C19.481 31.7695 19.4318 32.0791 19.5213 32.2002H19.575C19.6556 32.097 19.6198 31.599 19.6198 31.4599H19.6466C19.6511 31.5272 19.6556 31.599 19.7003 31.6528C19.7943 31.6528 19.8659 31.59 19.9375 31.5271C19.933 31.8457 19.9286 32.1643 19.9286 32.4874C20.1747 32.7208 20.3179 32.972 20.658 33.0124C20.658 33.2457 20.658 33.4746 20.667 33.7079C20.8908 34.4842 20.8907 34.4842 20.8818 34.5022C20.5999 34.1432 20.4522 33.8784 20.2821 33.4566C19.9957 33.4073 19.9465 33.7438 19.8838 33.9458H19.857C19.7496 33.8111 19.6421 33.6855 19.5392 33.5644ZM22.9494 40.0618C22.9404 40.0663 22.9315 40.0708 22.927 40.0753C22.7659 39.99 22.5913 39.8644 22.4168 39.8375C22.1393 39.4785 21.8574 39.1105 21.6113 38.7202C21.0205 37.1048 20.3716 35.4939 19.6601 33.9233C19.7317 33.9772 19.8793 34.1432 19.9062 34.1611C20.0986 34.0624 19.9465 33.6182 20.206 33.5957C20.4074 34.1028 20.6267 34.3945 20.9847 34.8163C21.3159 35.5387 21.4099 35.4938 21.1772 36.1894C21.1996 36.5753 21.1637 36.5304 21.5441 36.6022C21.5441 36.656 21.5397 36.7144 21.5352 36.7682C21.4546 36.7368 21.307 36.6201 21.2219 36.674C21.307 37.531 21.9469 38.4195 22.5421 38.9849C22.6943 39.3394 22.8285 39.6939 22.9494 40.0618ZM22.6137 38.4195C22.4481 38.5048 22.5063 38.5721 22.4168 38.6977C22.0543 38.3612 21.2891 37.2843 21.3965 36.8445C21.477 36.8849 21.5307 36.9298 21.6202 36.9298C21.6829 36.849 21.665 36.6291 21.665 36.5214C21.6426 36.499 21.6426 36.499 21.3204 36.4272C21.3069 36.149 21.383 35.983 21.477 35.7227C21.6963 36.0233 21.8485 36.2028 21.9156 36.5618C21.289 37.024 22.475 37.9169 22.6137 38.4195ZM22.0588 36.158C21.9559 35.4624 21.9559 35.4624 21.9604 35.3772C22.1886 35.3278 22.1125 35.2336 22.1215 35.0002C22.6361 35.0002 22.5421 34.8208 22.8286 34.3272C22.8375 34.3272 22.8509 34.3182 22.8643 34.3182C22.8733 34.3676 22.8733 34.3676 22.9046 35.108C23.0657 35.4535 23.294 35.7631 23.2537 36.1445C23.1463 36.1894 23.5267 36.7592 23.5938 36.858C23.746 37.0419 23.9071 37.2349 24.0637 37.4278C23.9026 37.4503 23.737 37.4817 23.5804 37.5131C22.8509 37.208 22.6227 36.8041 22.0588 36.158ZM23.9697 38.1996C23.737 38.2265 23.5043 38.2535 23.2761 38.2759C23.209 38.0022 23.1463 37.724 23.0792 37.4503C23.2537 37.4503 23.4327 37.6073 23.6207 37.6253C24.471 37.5041 24.3143 37.5445 23.7818 36.8804C24.0011 36.9701 24.4575 37.1945 24.7887 37.3291C24.744 37.7419 24.2785 37.9483 23.9697 38.1996ZM25.0975 36.5887C24.5247 36.499 24.0816 36.3105 23.5446 36.0772C23.5491 35.7855 23.558 35.4983 23.5714 35.2112C23.9742 35.2785 24.1174 35.3951 24.2204 35.8035C24.3725 35.9022 24.6142 35.633 24.7887 35.633C24.9767 35.7227 25.1691 35.8124 25.3616 35.9067C25.3929 36.0862 25.4287 36.297 25.4153 36.4855C25.2989 36.5304 25.2139 36.5753 25.0975 36.5887ZM26.4311 34.9599C26.4267 34.9958 26.2029 35.2785 26.1805 35.2919C26.1268 35.2426 26.0731 35.1977 26.015 35.1528C26.015 35.1035 26.3819 34.9823 26.4311 34.9599ZM25.4018 31.8637C25.4018 32.29 25.4511 32.7163 25.4421 33.1381C25.4197 33.1291 25.3929 33.1156 25.366 33.1111C25.3168 33.1381 25.3123 33.1426 25.3034 33.2009H25.281C25.1557 33.0708 25.0304 32.9317 24.9095 32.806C24.7574 32.4111 24.3636 31.8009 24.4441 31.3746C24.9633 31.3342 24.9006 31.406 25.1736 30.9887C25.3571 30.9752 25.4152 31.0066 25.5764 31.1053C25.6211 31.5182 25.648 31.5541 25.4018 31.8637ZM23.9429 31.6348C23.8444 31.6528 23.7549 31.6707 23.6654 31.6932C23.5133 31.3656 23.6117 31.1143 23.916 30.9124C23.9205 31.0021 23.9295 31.0874 23.9384 31.1772C24.0279 31.2086 24.1219 31.2445 24.2204 31.2759C24.2383 31.3925 24.2383 31.3925 24.2383 31.4643C24.0637 31.406 24.0637 31.406 23.8847 31.3656C23.8758 31.3836 23.8623 31.3925 23.8534 31.4195C23.8802 31.4913 23.9116 31.5586 23.9429 31.6348ZM24.0593 31.0964C24.0593 31.0336 24.0548 30.9752 24.0548 30.9124C24.1398 30.9124 24.2204 30.9124 24.3054 30.9169C24.4755 30.6566 24.1443 30.365 24.6634 30.3784C24.829 30.531 24.9991 30.6836 25.1736 30.8406C25.1646 30.8631 25.1646 30.8631 25.0751 30.8945C24.7574 31.4419 24.744 31.0066 24.3457 31.2759C24.3188 31.1457 24.1756 31.1323 24.0593 31.0964ZM24.1443 30.7823C24.1622 30.7554 24.1756 30.7374 24.1935 30.715C24.198 30.7419 24.2024 30.7733 24.2069 30.8002H24.1532C24.1487 30.7957 24.1443 30.7868 24.1443 30.7823ZM25.6614 31.0022C25.2318 30.7598 24.914 30.2707 24.4262 30.2483C24.2785 30.1675 24.1264 30.0912 23.9787 30.0105C23.8399 29.6964 24.0011 29.6829 23.6565 29.5707C23.6207 29.4855 23.5849 29.3957 23.5491 29.3105C23.5714 29.3015 23.5938 29.297 23.6162 29.2925C23.6162 29.2162 23.6207 29.2028 23.5714 29.1399H23.5356C23.4775 29.2297 22.6943 30.2483 22.7793 30.531C22.9001 30.6028 23.0255 30.6566 23.0657 30.6835C23.1373 30.8182 23.3566 31.231 23.5133 31.1951C23.5177 31.2175 23.5177 31.2175 23.4327 31.4778C23.5446 31.7156 23.5446 31.7156 23.6073 31.8188C23.7594 31.8188 23.9429 31.7605 24.095 31.7156C24.095 31.6528 24.0772 31.6079 24.0548 31.5406C24.1398 31.5675 24.2293 31.599 24.3188 31.6304C24.5426 32.2092 24.6992 32.9451 25.2452 33.3131C25.2989 33.7932 25.3392 34.3002 25.3571 34.7804C25.5674 34.9509 26.6818 35.6015 25.9568 35.9112C25.5227 35.8349 25.187 35.6778 24.7798 35.4939C24.6231 35.5253 24.4754 35.615 24.3278 35.6778C24.2114 35.2336 23.9384 35.1573 23.5356 35.081C23.464 34.7175 23.3924 34.3496 23.3208 33.9817C23.3343 33.7977 23.3924 33.4208 23.4103 33.2143C23.294 32.0566 23.294 32.0567 23.285 31.8547C23.3566 31.756 23.4014 31.7156 23.4103 31.59C23.3298 31.5451 23.2537 31.6348 23.1911 31.6752C23.209 31.3566 23.2089 31.3566 23.2089 31.1502H23.1194C23.0076 31.6663 22.9494 32.2182 22.8733 32.7522C22.8106 32.7477 22.7525 32.7342 22.6943 32.7297C21.7858 31.4464 21.7858 31.4464 21.7679 31.4015C22.0275 30.9304 22.3005 30.4547 22.56 29.9835C22.6674 30.2438 22.6674 30.2438 22.6853 30.2662C23.0926 29.5932 23.5133 28.9246 23.9563 28.2874C23.925 28.1707 23.8847 28.0316 23.8042 27.9464C23.746 27.9598 23.6878 27.9733 23.6341 27.9823C23.6341 27.9239 23.6609 27.8476 23.6207 27.7983H23.5356C23.4909 27.8835 23.4417 27.9688 23.4014 28.0541C23.2626 28.0361 23.2671 28.081 23.2582 28.2066C23.2403 28.1977 23.2268 28.1932 23.2089 28.1887C23.2313 28.1483 23.2268 28.063 23.2089 28.0137C23.2985 27.7534 23.2895 27.6188 23.5491 27.5246C23.8042 27.6682 23.84 27.713 23.9116 27.9912C24.0011 28.063 24.0906 28.1393 24.1801 28.2201C24.1711 28.2874 24.1577 28.3592 24.1443 28.431C24.1174 28.3906 24.0995 28.3861 24.0637 28.3727C23.9295 28.5656 23.9295 28.5656 23.9116 28.615C24.0234 28.7092 24.1488 28.8528 24.3054 28.8079C24.3725 28.9694 24.556 28.9694 24.7082 29.0008C25.1199 29.3823 24.9811 30.0464 25.6882 30.015C25.733 29.9521 25.733 29.9521 25.7464 29.9521C25.8001 30.0329 25.8494 30.1182 25.9031 30.199C25.8852 30.2124 25.8717 30.2214 25.8583 30.2259C25.8807 30.6163 25.8762 30.6836 25.6614 31.0022ZM25.2497 28.2784H25.375V28.5432H25.3347C25.3078 28.5342 25.2855 28.5207 25.2586 28.5118C25.2542 28.44 25.2497 28.3547 25.2497 28.2784ZM25.6703 28.7765C25.6972 28.9066 25.7285 29.0323 25.7375 29.1669C25.7151 29.0412 25.6927 28.9066 25.6703 28.7765ZM27.9975 34.1701C27.9214 34.0938 27.8498 34.0086 27.7693 33.9368C27.8409 33.7214 27.9304 33.3041 28.2481 33.3041C28.5345 33.4387 28.718 33.4567 28.9552 33.1964C29.2148 33.2772 29.4833 33.3579 29.7473 33.4432C29.8502 33.3938 29.9487 33.34 30.0516 33.2906C30.083 33.5329 30.083 33.5329 30.1009 33.5868C30.1591 33.5958 30.1591 33.5958 30.6827 33.6047C30.535 33.7483 30.1188 33.6317 29.9845 33.8111C29.9845 33.9682 29.9845 34.0355 29.895 34.1566H29.6578C29.5952 34.2823 29.537 34.4079 29.4743 34.5291C29.0447 34.547 29.0447 34.547 28.8746 34.5605C28.8209 34.6502 28.7717 34.74 28.718 34.8208C28.7001 34.8208 28.6733 34.8297 28.6598 34.8342C28.36 34.731 28.0601 34.6278 27.7603 34.5291C27.7603 34.4035 27.9975 34.3361 27.9975 34.1701ZM28.6016 35.8708C28.2973 35.7631 27.9975 35.6599 27.7021 35.5567C27.7021 35.3144 28.1049 35.624 28.1049 35.3458C27.9975 35.0541 27.9975 35.0541 27.8364 34.6951C28.1049 34.7804 28.4898 34.9599 28.7717 34.9599C28.8209 34.8701 28.8746 34.7804 28.9283 34.6862C29.5459 34.565 29.4833 34.8342 29.7249 34.2957C29.7965 34.2868 29.8726 34.2823 29.9487 34.2823C30.0651 34.1163 30.1143 34.0669 30.1188 33.8695C30.6916 33.7483 30.5663 33.7079 30.3873 34.2464C30.3828 34.2958 30.3783 34.3406 30.3783 34.381C30.4097 34.4349 30.6648 34.6951 30.6469 34.7445C30.5931 34.7041 30.526 34.5964 30.4544 34.6682C30.4589 34.7535 30.5126 34.8971 30.4723 34.9644C30.2709 35.1259 30.074 35.2785 29.8726 35.44C29.725 35.4714 29.6041 35.3458 29.4475 35.3458C29.1118 35.7272 29.3938 35.8259 29.5191 36.3105H29.4922C29.358 36.2387 29.1968 36.131 29.0402 36.1086C28.982 36.1624 28.9239 36.2163 28.8657 36.2746C28.7717 36.2477 28.6554 35.9605 28.6016 35.8708ZM31.6046 40.5644C31.533 40.5734 31.4703 40.5823 31.4121 40.5958C31.3808 40.5689 31.3584 40.5464 31.336 40.5285C31.3495 40.1964 31.3495 40.1964 31.3629 40.0753C31.4524 40.174 31.5464 40.2682 31.6359 40.3625C31.6225 40.4298 31.609 40.4971 31.6046 40.5644ZM32.8442 36.0099C32.9606 36.0144 33.0724 36.0233 33.1888 36.0323C33.1709 36.1221 33.1038 36.1894 33.0501 36.2522C32.5309 36.0413 32.0789 35.9246 31.6493 35.5701C31.9626 35.1438 32.5712 35.8079 32.8442 36.0099ZM31.1436 33.7214C31.3137 33.8246 31.5061 33.9278 31.6538 34.0624C31.6538 34.1567 31.4882 34.2958 31.43 34.3631C31.5016 34.6099 31.5016 34.6099 31.5061 34.6862H31.3137C31.2376 34.7894 31.3226 35.0676 31.3808 35.1708C31.6359 35.3278 31.6359 35.3278 31.6538 35.3458C31.5911 35.4355 31.5016 35.5028 31.5016 35.6105C31.9849 35.983 32.4191 36.1355 32.9964 36.3599C33.1754 36.3374 33.2291 36.2118 33.3275 36.0637C33.3991 36.0458 33.3991 36.0458 33.4663 36.0592C33.4618 36.1176 33.4618 36.1804 33.4618 36.2432C33.1351 36.3195 33.435 37.4234 33.4529 37.5445C33.4126 37.5266 33.3857 37.4637 33.3678 37.4189H33.3007C32.8666 37.89 32.4325 38.1817 31.891 38.5317C31.3942 38.6753 31.3942 38.6753 31.3718 38.6977C31.2063 39.7163 31.2063 39.7163 31.1839 39.7836C31.0183 39.8823 30.8617 39.981 30.705 40.0753C30.2799 39.7163 30.1143 38.967 29.9129 38.442C29.8592 38.1458 29.81 37.8496 29.7608 37.549C29.8234 37.2394 30.0337 36.9567 29.6578 36.858C29.5773 36.9253 29.5594 37.0105 29.5191 37.1137C29.4251 37.1048 29.3356 37.1048 29.2461 37.0958C29.1969 37.006 29.1476 36.9253 29.1029 36.84C29.2013 36.84 29.3446 36.7323 29.3446 36.6291C29.2774 36.5618 29.1029 36.5753 29.0134 36.5618C28.9776 36.499 28.9283 36.4541 28.9283 36.3778C29.2103 36.1176 29.4027 36.499 29.6354 36.3509C29.6354 36.0772 29.434 35.8349 29.4027 35.5656C29.5817 35.3906 29.6578 35.5881 29.8816 35.5881C30.1188 35.3951 30.3694 35.1977 30.6155 35.0047C30.6155 34.9329 30.6155 34.8701 30.5932 34.7983C30.7229 34.7939 30.7229 34.7939 30.7811 34.7714C30.7811 34.6144 30.6021 34.4618 30.4992 34.3406C30.5439 34.197 30.5842 34.0534 30.62 33.9054C31.0765 33.8201 31.0765 33.8201 31.1212 33.7977C31.1302 33.7708 31.1346 33.7438 31.1436 33.7214ZM30.9333 33.7079C30.8975 33.7214 30.8975 33.7214 30.6737 33.7573C30.7319 33.7169 30.7856 33.6227 30.8572 33.6227C30.884 33.6541 30.9064 33.6765 30.9333 33.7079ZM30.7766 33.4522C30.5842 33.4567 30.3918 33.4611 30.2038 33.4656C30.1859 33.3534 30.1725 33.2413 30.1635 33.1336C29.8995 33.1336 29.8592 33.3535 29.5594 33.2547C29.716 32.9496 29.7294 32.972 29.6444 32.64C29.9487 32.5099 29.9666 32.6579 30.2307 32.8868C30.3604 32.8958 30.4947 32.9137 30.6334 32.9316C30.6289 32.9945 30.629 33.0483 30.629 33.1111C30.7677 33.2413 30.799 33.2547 30.7766 33.4522ZM31.3271 32.622C30.714 32.7207 30.714 32.7207 30.6827 32.7342C30.6737 32.7566 30.6648 32.7836 30.6603 32.8105H30.5887C30.3067 32.7836 29.9845 32.649 29.8905 32.3483C29.9935 32.3483 30.1948 32.5951 30.2709 32.6624C30.3604 32.6579 30.5618 32.6624 30.6334 32.613C30.6334 32.456 30.4544 32.281 30.3783 32.1643C30.3783 32.1419 30.3828 32.124 30.3873 32.1015C30.7901 31.9265 30.6513 32.1868 30.8975 32.1419C31.2376 31.9041 31.524 32.1958 31.891 32.299C31.891 32.3124 31.8954 32.3214 31.8999 32.3259C31.7075 32.4201 31.5151 32.5233 31.3271 32.622ZM30.0427 32.281C30.0472 32.2675 30.0516 32.2586 30.0516 32.2451C30.1143 32.2182 30.1859 32.1957 30.2485 32.1733C30.3112 32.2765 30.4365 32.4111 30.4634 32.5323C30.4097 32.5368 30.3604 32.5368 30.3112 32.5458C30.2172 32.456 30.1277 32.3707 30.0427 32.281ZM28.454 29.665C28.4987 29.5259 28.5435 29.3823 28.5882 29.2476C28.9686 29.2701 28.9776 29.2073 29.1118 29.5259C29.1924 29.5573 29.4296 29.5573 29.4967 29.5169C29.4878 29.4227 29.4833 29.3329 29.4699 29.2342C29.5101 29.2297 29.5459 29.2207 29.5862 29.2163C29.6041 29.1848 29.6175 29.1489 29.6354 29.122C29.8234 29.1041 29.7966 29.0861 29.81 28.9066C30.1859 28.9111 30.5618 28.9246 30.9422 28.938C30.9735 29.0413 31.0138 29.14 31.0452 29.2432C31.157 29.2791 31.26 29.3105 31.3718 29.3464C31.3718 29.3957 31.3853 29.4406 31.4255 29.4855C31.8059 29.4092 31.806 29.4092 31.8597 29.4137C31.9536 29.6964 32.0476 29.9746 32.1416 30.2573C32.1953 30.3111 32.2669 30.2662 32.343 30.2662C32.4235 30.3739 32.6383 30.365 32.7636 30.3784C32.9471 30.5534 33.0009 30.6566 33.2559 30.6701C33.2783 30.697 33.3052 30.7329 33.3365 30.7643C33.2873 30.9079 33.1709 30.8316 33.1351 31.0919C32.974 31.1054 32.8084 31.1143 32.6473 31.1323C32.6115 31.1996 32.6115 31.1996 32.5444 31.5182C31.9626 31.6438 32.1103 31.581 32.061 32.2182H32.0342C31.8059 32.1464 31.2421 31.8502 31.0272 31.8951C30.8572 32.0297 30.8661 32.0073 30.7184 31.8637C30.4499 31.8637 30.2172 32.097 29.9442 32.1329C29.8726 32.0746 29.8189 32.0432 29.7384 32.0028C29.6802 31.7605 29.6354 31.5182 29.5817 31.2669C29.4117 31.2265 29.0805 31.1996 29.0402 31.0201C29.2685 30.697 29.2595 30.7509 29.1342 30.3605C28.982 30.3605 28.8433 30.4188 28.7001 30.4637C28.5569 30.4188 28.4092 30.3784 28.2615 30.3425C28.1496 29.9835 28.2212 29.8669 28.454 29.665ZM28.2615 30.4951C28.3689 30.4951 28.4764 30.5265 28.5882 30.5489C28.4227 31.0739 28.4406 30.9483 28.9507 31.1457C28.9642 31.1727 28.9776 31.1951 28.9865 31.2265C29.1521 31.2669 29.3132 31.3118 29.4743 31.3566C29.5236 31.5945 29.5728 31.8278 29.622 32.0656C29.6578 32.1015 29.7921 32.1643 29.8682 32.2182C29.6802 32.2361 29.7742 32.2945 29.7742 32.4515C29.4385 32.6086 29.4877 32.5861 29.5996 32.9227C29.5459 33.0079 29.4967 33.0932 29.4475 33.1829C29.4251 33.1829 29.4027 33.1964 29.3803 33.2009C29.358 33.1874 29.3356 33.1829 29.3087 33.1739C29.2953 32.6714 29.076 32.5099 28.7762 32.097C28.718 31.8368 28.7314 31.7336 28.5166 31.581C28.5166 31.388 28.633 31.3791 28.3645 31.1996C28.2302 31.1951 28.1004 31.1951 27.9796 31.1951C28.0736 30.9618 28.1675 30.7239 28.2615 30.4951ZM27.6842 31.6438C27.7603 31.5227 27.7603 31.5227 27.8408 31.3432C28.002 31.3342 28.1675 31.3297 28.3242 31.3208C28.4763 31.4733 28.36 31.4284 28.36 31.6079C28.4316 31.6618 28.5077 31.7156 28.5793 31.7695C28.6822 32.3124 29.161 32.6041 29.1789 33.1156C28.8567 33.0259 28.8075 33.2009 28.4898 33.2951C28.4316 33.2592 28.3645 33.2233 28.3018 33.1964C28.1944 32.5547 27.7916 32.1419 27.4246 31.6079C27.4739 31.6034 27.5992 31.6438 27.6842 31.6438ZM26.4849 30.6566C27.0129 30.7015 26.816 30.2483 26.8339 29.8041C26.8966 29.7323 26.9682 29.6605 27.0398 29.5932C27.098 29.6201 27.0979 29.6874 27.1651 29.7009C27.2188 30.2707 27.2188 30.2707 27.2188 30.4368C27.089 30.6297 26.9145 30.7868 26.9726 31.0246H26.9458C26.8787 31.0021 26.8787 31.0021 26.2253 30.881V30.5265C26.3282 30.5534 26.4356 30.5534 26.4849 30.6566ZM26.3416 30.4098C26.3237 30.4188 26.1805 30.3605 26.1268 30.3605C26.0463 30.4727 26.0865 30.7015 26.0865 30.8406C25.9657 30.7195 26.0015 30.4951 25.9881 30.3246C26.3148 30.2932 25.7375 29.9432 25.8359 29.7368C25.8359 29.6605 25.827 29.5932 25.8225 29.5169C25.997 29.813 26.1671 30.1137 26.3416 30.4098ZM26.6281 28.1528C26.3864 28.2336 26.1537 28.3053 25.9165 28.3906C25.7598 28.3143 25.639 28.2964 25.5227 28.256C25.469 28.072 25.2586 28.081 25.4153 27.8701C25.366 27.7983 25.2989 27.7759 25.2273 27.731C25.2273 27.5784 25.3392 27.3899 25.3929 27.2419C25.3929 26.9098 25.008 26.7034 24.9722 26.4252C25.0617 26.4028 25.1154 26.4028 25.1378 26.3085C25.3034 26.2906 25.469 26.2682 25.6435 26.2457C25.9926 26.7976 25.9926 26.7976 26.0552 26.8739C26.5341 26.9412 26.3774 27.0758 26.3282 27.5201C26.552 27.9733 26.552 27.9733 26.6281 28.1528ZM26.6146 26.6136C26.3864 26.5419 26.3864 26.5419 26.3058 26.7842H26.2387C25.9926 26.7258 25.8449 26.3355 25.7151 26.129C25.8091 25.9989 25.9165 25.8778 26.0373 25.7566C26.4177 26.0662 26.4088 25.6399 26.7399 25.806C26.6952 25.8733 26.646 26.4566 26.6146 26.6136ZM26.722 25.6713C26.6728 25.6624 26.6191 25.6489 26.5744 25.6444C26.5251 25.5233 26.3819 25.2585 26.3998 25.1329C26.4267 25.1149 26.4535 25.1015 26.4759 25.088C26.4804 25.1463 26.4893 25.2047 26.4983 25.2675C26.6101 25.1598 26.6102 25.1598 26.6728 25.1149C26.731 25.2181 26.9145 25.447 26.9145 25.5637C26.8473 25.6175 26.7981 25.6444 26.722 25.6713ZM27.5634 24.7425C27.5947 25.079 27.72 25.254 27.5544 25.5637C27.3307 25.631 27.1114 25.6893 26.8876 25.7566C26.9145 25.6713 27.0353 25.6489 27.0756 25.5637C26.9995 25.429 26.7847 25.1463 26.7847 24.9938C26.9637 24.8547 27.1159 24.7335 27.2009 24.5316C27.5723 24.3072 27.9303 24.0515 28.2839 23.7957C28.2839 23.7867 28.2794 23.7822 28.2794 23.7822C28.2526 23.7777 28.2213 23.7822 28.1899 23.7867C27.7603 24.0156 27.2367 23.7149 26.7847 24.038C26.7847 24.1233 26.8071 24.1412 26.8966 24.1771C26.8831 24.213 26.8653 24.2444 26.8518 24.2803C26.7399 24.2803 26.6549 24.2803 26.5564 24.213C26.1716 24.213 26.1716 24.6438 25.8359 24.3431C26.0731 24.1322 26.3193 23.9213 26.5564 23.7149C26.722 23.6925 26.8876 23.6701 27.0577 23.6521C27.174 23.513 27.2904 23.3829 27.4112 23.2482C27.5455 23.2482 27.5365 23.3111 27.5589 23.145C27.6842 23.2213 27.805 23.2976 27.9304 23.3739C28.3466 23.3739 28.4316 23.1271 28.8433 23.3066C28.8567 23.3604 28.8567 23.3604 28.8523 23.4547C28.5748 23.6611 28.2973 23.872 28.0199 24.0829C27.9169 24.2489 27.729 24.6527 27.5634 24.7425ZM29.255 24.8906C29.179 24.6887 29.1029 24.4912 29.0313 24.2983C29.0089 24.2848 28.9865 24.2803 28.9686 24.2713C29.0671 24.1412 29.2282 23.8989 29.3848 23.863C29.5012 23.9797 29.528 24.5854 29.537 24.7963C29.443 24.8771 29.3848 24.8771 29.255 24.8906ZM29.8413 24.9848C29.8682 24.9444 29.8905 24.8996 29.9219 24.8637C29.9532 24.8951 29.9532 24.8951 29.9711 24.9265C29.9487 24.9534 29.9487 24.9534 29.8413 24.9848ZM31.439 22.2655C31.4121 22.2655 31.3897 22.2566 31.3718 22.2521V22.2207C31.4032 22.2341 31.439 22.2431 31.4703 22.2476C31.4569 22.2521 31.4435 22.2566 31.439 22.2655ZM33.1843 21.1707C31.7836 21.7361 30.4499 22.5482 29.17 23.3604C29.1655 23.3739 29.1655 23.3918 29.1655 23.4053C29.2864 23.4771 29.2774 23.513 29.443 23.5444C29.4341 23.5668 29.4296 23.5893 29.4251 23.6117C29.0716 23.9482 28.5077 24.7963 28.1407 24.9175C28.1139 24.8951 28.1138 24.895 27.7424 24.7604C27.7424 24.729 27.7424 24.729 28.0378 24.2624C28.3242 24.2624 28.3689 24.204 28.4405 23.9079C28.6196 23.7688 28.7986 23.6386 28.9776 23.504C28.9776 23.4367 28.9776 23.3739 28.9776 23.3111C30.0069 22.7277 31.0138 22.0995 32.061 21.5431C32.2087 21.4803 33.0501 21.0091 33.1709 21.045C33.1754 21.0899 33.2067 21.1213 33.1843 21.1707ZM39.2752 17.7245C39.2618 17.729 39.2438 17.738 39.2259 17.7469C39.217 17.8726 39.217 17.8726 39.2349 17.9578C39.217 17.9623 39.1991 17.9623 39.1722 17.9668C39.1678 17.8501 39.1633 17.738 39.1588 17.6168C39.1767 17.6123 39.1767 17.6123 39.2752 17.7245ZM39.1409 18.2944C39.0827 18.2944 39.0648 18.3123 39.029 18.3617C38.9306 18.2854 39.0246 18.2495 39.1007 18.1867C39.1186 18.1957 39.1185 18.1957 39.1409 18.2944ZM30.3828 16.5174C30.2351 16.5758 30.0651 16.67 29.9129 16.7014C30.347 16.5174 30.347 16.5174 30.3828 16.5174ZM28.6598 17.37C28.6419 17.3476 28.6419 17.3476 28.5882 17.3296C28.6106 17.3206 28.6419 17.3072 28.6733 17.2982C28.6688 17.3207 28.6643 17.3431 28.6598 17.37ZM33.1172 18.2405C32.9651 18.2405 32.8442 18.3527 32.701 18.3527C32.5891 18.2046 32.1863 18.2495 32.0073 18.236C32.0073 17.9489 31.26 18.07 31.0899 18.07V17.9578C31.2734 17.9489 31.4569 17.9399 31.6448 17.9309C31.6627 17.904 31.6627 17.904 31.6627 17.8412C31.6448 17.8232 31.6448 17.8232 31.0586 17.6527C31.0586 17.6303 31.0586 17.6123 31.0675 17.5899C31.4345 17.545 31.6627 17.5226 32.0208 17.6258C32.0208 17.6437 32.0252 17.6572 32.0297 17.6751C32.0521 17.6931 32.07 17.7021 32.0968 17.7155C32.0968 17.7873 32.0297 17.8142 32.0297 17.8995C32.343 18.0745 32.6518 18.2136 33.0053 18.0835C33.2873 18.1014 33.2873 18.1014 33.3231 18.1194C33.332 18.2181 33.3365 18.3213 33.3499 18.42C33.3052 18.4335 33.2694 18.4469 33.2291 18.4604C33.1933 18.3841 33.153 18.3078 33.1172 18.2405ZM33.511 17.5989C33.4081 17.6931 33.2873 17.7604 33.2291 17.8816C33.153 17.8457 33.1172 17.7604 33.0546 17.6976C33.1978 17.6123 33.3365 17.5989 33.511 17.5989ZM33.0814 17.3655C33.1709 17.3476 33.2649 17.3386 33.3589 17.3296C33.3365 17.3655 33.332 17.4104 33.2873 17.4239C33.2157 17.4059 33.1485 17.3835 33.0814 17.3655ZM33.511 18.7207V18.7341C33.3723 18.7521 33.3723 18.7521 33.2873 18.779C33.2649 18.7521 33.2649 18.7521 33.2649 18.7207H33.511ZM33.4394 19.0123C33.4215 19.0348 33.4036 19.0617 33.3857 19.0841C33.3678 19.0123 33.3096 19.0123 33.2559 18.9719C33.3723 18.9719 33.7303 18.9271 33.4394 19.0123ZM33.605 18.3886C33.605 18.2944 33.5066 18.1957 33.4439 18.1328C33.5647 18.1284 33.5647 18.1283 33.69 18.1418C33.7303 18.2046 33.7124 18.2764 33.6945 18.3527C33.6677 18.3617 33.6363 18.3752 33.605 18.3886ZM34.4016 19.295C34.3927 19.286 34.3837 19.2771 34.3748 19.2726C34.3882 19.2726 34.4016 19.2771 34.4195 19.2816C34.4106 19.2861 34.4016 19.2905 34.4016 19.295ZM34.5224 20.4527C34.4956 20.4303 34.4956 20.4303 34.415 20.4168C34.415 20.2059 35.8829 19.1784 36.0754 19.0258C35.8785 19.0168 35.8337 19.0078 35.7129 18.8598C35.865 18.8328 36.2589 18.779 36.3573 18.8284C36.684 18.604 36.684 18.604 36.7332 18.5591C36.5408 18.4425 36.3484 18.3213 36.1604 18.2136C36.2991 18.0207 35.8203 18.0207 35.695 17.9354C35.5294 17.6617 35.5249 17.7649 35.225 17.9219C34.97 17.738 34.7909 17.7021 34.4687 17.6841C34.4643 17.6931 34.4553 17.6931 34.4464 17.7021C34.2942 17.5719 34.245 17.6527 34.0973 17.7783C34.0973 17.9174 34.1689 17.9399 34.2674 18.0341C34.2674 18.0969 34.2181 18.1283 34.1823 18.1732C34.1555 18.1508 34.1286 18.1239 34.1018 18.1014C34.0973 18.8463 34.0839 19.5957 34.0839 20.345H33.9541C33.9541 20.0758 33.9451 19.8155 33.9451 19.5463C33.9183 19.5822 33.9049 19.5822 33.8646 19.5957C33.8019 19.5239 33.7393 19.4566 33.6811 19.3937C33.6856 19.3668 33.6856 19.3668 33.7303 19.3399C33.7393 19.3623 33.7572 19.3848 33.7706 19.4117C33.8288 19.4207 33.8869 19.4296 33.9451 19.4431C33.963 19.2232 33.963 19.2232 33.963 17.8142C33.9048 17.7828 33.8735 17.7379 33.8198 17.7245C33.784 17.7559 33.7527 17.7918 33.699 17.7918C33.6498 17.7245 33.5961 17.6527 33.5513 17.5809C33.6453 17.5719 33.7393 17.5674 33.8288 17.5585C33.8467 17.5226 33.8467 17.5226 33.8467 17.4642C33.8288 17.4463 33.8288 17.4463 33.5961 17.3835C33.7214 17.379 33.8422 17.3655 33.972 17.3655C33.972 17.0963 33.9765 16.8405 33.9765 16.5803C32.7681 16.5174 32.7681 16.5174 32.6876 16.495C32.4325 16.3065 32.4325 16.3065 32.3788 16.2841C32.1103 16.3559 31.5777 16.4367 32.0789 16.5982C31.985 16.6431 31.8955 16.6924 31.806 16.7418C31.806 16.8899 32.0073 16.8854 32.1282 16.9168V16.9437C31.9626 17.011 32.2266 17.1187 32.2624 17.1277C32.2624 17.1591 32.2669 17.186 32.2714 17.213C32.0118 17.2309 31.7523 17.2399 31.4927 17.2578C31.4927 17.2309 31.4927 17.1995 31.5016 17.1726C31.4569 17.1277 31.3853 17.1412 31.336 17.1277V17.0739C31.2689 17.011 31.1839 17.0739 31.1167 17.0963C30.9377 16.9168 30.6603 17.213 30.62 17.4014C30.4813 17.388 30.3425 17.379 30.2038 17.3655C30.168 17.3296 30.1859 17.2892 30.159 17.2533C29.9666 17.2533 29.7473 17.3251 29.5594 17.3655C29.5862 17.3431 29.6175 17.3207 29.6489 17.2982V17.2309C29.6354 17.213 29.6131 17.204 29.5996 17.195C29.076 17.379 29.076 17.379 29.0492 17.37C29.4475 16.9168 30.1277 16.8899 30.5932 16.5488V16.4905C30.5752 16.4726 30.5529 16.4546 30.535 16.4456C32.4101 15.6918 34.5896 16.2976 36.4602 16.5982C37.3195 16.9572 38.1787 17.3251 39.038 17.6931C39.038 18.0117 39.0335 18.0566 38.8142 18.2764C38.8142 18.4245 39.0291 18.438 39.047 18.613C39.0738 18.6219 39.1096 18.6354 39.1409 18.6489C39.1633 18.779 39.1902 18.9226 39.217 19.0572C38.9306 19.1469 38.0848 19.5059 37.8163 19.4566C37.5119 18.8463 37.5254 18.9226 36.863 18.8239C36.8585 18.77 36.8496 18.7117 36.8496 18.6578C36.0396 19.2232 35.2743 19.811 34.5224 20.4527ZM34.4598 18.3437C34.4822 18.3527 34.5224 18.3527 34.5538 18.3617C34.5582 18.3841 34.5761 18.4021 34.5851 18.4335C34.5493 18.4335 34.518 18.438 34.4822 18.4469C34.4732 18.4111 34.4687 18.3751 34.4598 18.3437ZM35.7979 18.4739C35.771 18.4873 35.7531 18.5053 35.7308 18.5232V18.5816C35.7531 18.5995 35.771 18.6175 35.7979 18.6354C35.7531 18.6578 35.7531 18.6578 35.6815 18.6668C35.6278 18.5412 35.4264 18.5591 35.3056 18.5412C35.2922 18.4649 35.2922 18.3976 35.2474 18.3392C35.1669 18.3392 35.1266 18.3976 35.0639 18.4425C35.0326 18.2316 35.046 18.2181 34.8894 18.1149C34.8894 18.0969 34.8894 18.0835 34.8939 18.0745C34.9297 18.0566 34.9655 18.0431 35.0058 18.0252C35.2967 18.1957 35.5562 18.1283 35.865 18.2136C35.8829 18.254 35.8964 18.2944 35.9187 18.3348C35.8292 18.3078 35.6726 18.2405 35.5965 18.2989C35.592 18.3213 35.592 18.3527 35.592 18.3751C35.6547 18.4065 35.7308 18.4425 35.7979 18.4739ZM35.2967 19.0796C35.2743 19.0796 35.2519 19.0796 35.234 19.0841C35.2161 19.0617 35.2027 19.0437 35.1848 19.0258C35.2161 19.0348 35.2519 19.0437 35.2832 19.0482C35.2877 19.0617 35.2922 19.0707 35.2967 19.0796ZM34.9207 18.8867C34.9118 18.9136 34.9118 18.936 34.9118 18.9585H34.8894C34.8805 18.945 34.8715 18.9316 34.8626 18.9226C34.876 18.8957 34.8984 18.8732 34.9207 18.8867ZM33.8019 18.7162C33.8243 18.7117 33.8467 18.7117 33.8735 18.7117C33.8735 18.7207 33.8735 18.7341 33.878 18.7521C33.8735 18.7521 33.8601 18.761 33.8601 18.761C33.8377 18.7476 33.8198 18.7296 33.8019 18.7162ZM40.0046 17.0873C38.2056 16.2482 36.2141 15.7636 34.1241 15.7142C34.1152 15.8219 34.1107 15.9251 34.1107 16.0328C35.9993 16.136 37.6954 16.477 39.4631 17.195C39.6377 17.1546 39.8212 17.1187 40.0046 17.0873ZM29.1208 20.0534C29.1387 19.9905 29.161 19.9187 29.1789 19.8559C29.2685 19.8155 29.4206 19.7841 29.3446 19.663C29.2909 19.654 29.2416 19.6495 29.1969 19.6495C29.1566 19.5777 29.1163 19.5104 29.0805 19.4431C29.1163 19.3848 29.1969 19.3803 29.2461 19.3264C29.2416 19.304 29.2416 19.2815 29.2416 19.2636C29.2103 19.2412 29.1924 19.2232 29.1655 19.2053C29.2013 19.138 29.2103 19.0707 29.2148 18.9944C29.1208 18.954 29.0313 18.9136 28.9373 18.8732C28.9373 18.6578 28.6195 18.7431 28.6195 18.6533C29.1029 18.4245 30.0337 18.2316 30.4857 18.6175C30.4499 18.7117 30.432 18.77 30.432 18.8687C30.4723 18.8777 30.6782 18.8687 30.6916 18.8777C30.6737 18.9136 30.6871 18.9405 30.6916 18.9764C30.8348 19.0258 31.0586 19.0482 31.1705 18.9405C31.1928 18.945 31.1928 18.945 31.2868 19.0707C31.7836 19.2322 31.7836 19.2322 31.806 19.2277C30.4007 18.2899 28.5972 17.3072 26.8384 17.4508C25.2989 18.2764 23.9205 19.3623 22.7614 20.6546C22.842 20.6188 22.9583 20.5739 23.1194 20.5021C25.0483 19.8828 27.1248 19.9681 29.1208 20.0534ZM28.1452 17.545C28.1317 17.5495 28.1138 17.5585 28.1004 17.5674C28.1273 17.545 28.1273 17.545 28.1452 17.545Z" fill="#F18C16"/>
<path d="M72.5889 34.7849H199.995V33.2907H72.5889V34.7849Z" fill="#F18C16"/>
<path d="M78.0893 12.6092V20.8657H78.1743L81.8172 12.6092H88.2616V27.058H82.7436V18.9676H82.663L79.0157 27.058H72.5713V12.6092H78.0893Z" fill="white"/>
<path d="M98.9078 12.6092H104.426V27.058H98.9078V21.7362H95.2201V27.058H89.7021V12.6092H95.2201V17.6035H98.9078V12.6092Z" fill="white"/>
<path d="M120.076 12.6092V16.881H115.216V27.058H109.698V16.881H104.838V12.6092H120.076Z" fill="white"/>
<path d="M133.067 12.6092V16.015H126.005V18.1016H132.759V21.4041H126.005V23.6522H133.211V27.058H120.487V12.6092H133.067Z" fill="white"/>
<path d="M142.819 12.6092C147.16 12.6092 149.058 15.149 149.058 17.7919C149.058 20.1029 147.411 22.8894 142.922 22.8894H139.892V27.058H134.379V12.6092H142.819ZM139.749 19.5464H140.967C141.624 19.5464 143.5 19.506 143.5 17.7515C143.5 16.9035 143.048 15.9522 140.944 15.9522H139.749V19.5464Z" fill="white"/>
<path d="M163.11 12.6092C167.451 12.6092 169.349 15.149 169.349 17.7919C169.349 20.1029 167.702 22.8894 163.213 22.8894H160.183V27.058H154.67V12.6092H163.11ZM160.04 19.5464H161.258C161.915 19.5464 163.791 19.506 163.791 17.7515C163.791 16.9035 163.334 15.9522 161.235 15.9522H160.04V19.5464Z" fill="white"/>
<path d="M179.705 12.6092L184.834 27.058H179.029L178.04 23.9439H173.713L172.746 27.058H167.232L172.272 12.6092H179.705ZM175.834 16.0375L174.353 20.5561H177.423L175.919 16.0375H175.834Z" fill="white"/>
<path d="M200 19.8334C200 24.4373 197.055 27.3091 191.967 27.3091C186.883 27.3091 183.938 24.4373 183.938 19.8334C183.938 15.2295 186.883 12.3622 191.967 12.3622C197.055 12.3622 200 15.2295 200 19.8334ZM189.747 19.8334C189.747 21.3411 189.891 23.8405 191.967 23.8405C194.048 23.8405 194.191 21.3411 194.191 19.8334C194.191 18.3257 194.048 15.8308 191.967 15.8308C189.891 15.8308 189.747 18.3257 189.747 19.8334Z" fill="white"/>
<path d="M80.8866 46.7387C80.8866 49.9201 78.7608 51.2259 76.6037 51.2259C74.4377 51.2259 72.3164 49.9201 72.3164 46.7387C72.3164 43.5572 74.4377 42.2559 76.6037 42.2559C78.7608 42.2559 80.8866 43.5572 80.8866 46.7387ZM74.1915 46.7387C74.1915 49.7092 75.9369 49.9739 76.6037 49.9739C77.2616 49.9739 79.0114 49.7092 79.0114 46.7387C79.0114 43.7726 77.2616 43.5079 76.6037 43.5079C75.9369 43.5079 74.1915 43.7726 74.1915 46.7387Z" fill="white"/>
<path d="M86.9503 51.1273L84.829 44.8631L84.4263 43.6067H84.3905L84.4128 44.9618V51.1273H82.6406V42.3593H85.6391L87.3889 47.4567L87.7738 49.0093H87.814L88.1989 47.4567L89.9488 42.3593H92.9472V51.1273H91.175V44.9618L91.2018 43.6067H91.1615L90.7633 44.8631L88.6375 51.1273H86.9503Z" fill="white"/>
<path d="M101.508 50.8489C100.738 51.1137 99.9507 51.2259 99.248 51.2259C97.0731 51.2259 94.7012 49.9829 94.7012 46.788C94.7012 43.7726 96.8269 42.2559 99.5748 42.2559C100.259 42.2559 100.85 42.3457 101.508 42.5566L101.436 44.0598C100.922 43.8623 100.362 43.7322 99.7 43.7322C97.7399 43.7322 96.5763 44.9752 96.5763 46.7656C96.5763 48.8835 97.9995 49.7496 99.5748 49.7496C100.349 49.7496 100.962 49.5566 101.396 49.3592L101.508 50.8489Z" fill="white"/>
<path d="M104.977 42.3549V46.1017H105.013L108.172 42.3549H110.285L106.637 46.3261L110.508 51.1229H108.262L105.013 46.7658H104.977V51.1229H103.2V42.3549H104.977Z" fill="white"/>
<path d="M117.601 42.3549C120.774 42.3549 120.962 44.5491 120.962 45.101C120.962 46.2542 120.161 47.8293 117.924 47.8293H116.787V51.1229H115.015V42.3549H117.601ZM117.601 46.4517C118.675 46.4517 119.087 45.7113 119.087 45.0472C119.087 44.3247 118.622 43.7324 117.601 43.7324H116.787V46.4517H117.601Z" fill="white"/>
<path d="M128.463 42.3549V43.9119H125.938V51.1229H124.162V43.9119H121.638V42.3549H128.463Z" fill="white"/>
<path d="M135.699 50.8489C134.925 51.1137 134.137 51.2259 133.435 51.2259C131.264 51.2259 128.888 49.9829 128.888 46.788C128.888 43.7726 131.013 42.2559 133.761 42.2559C134.45 42.2559 135.032 42.3457 135.699 42.5566L135.623 44.0598C135.108 43.8623 134.549 43.7322 133.887 43.7322C131.922 43.7322 130.763 44.9752 130.763 46.7656C130.763 48.8835 132.186 49.7496 133.761 49.7496C134.535 49.7496 135.149 49.5566 135.587 49.3592L135.699 50.8489Z" fill="white"/>
</svg>
