<?xml version="1.0" encoding="UTF-8"?>
<!DOCTYPE svg PUBLIC "-//W3C//DTD SVG 1.1//EN" "http://www.w3.org/Graphics/SVG/1.1/DTD/svg11.dtd">
<!-- Creator: CorelDRAW Home & Student 2019 -->
<svg xmlns="http://www.w3.org/2000/svg" xml:space="preserve" width="1000px" height="834px" version="1.1" style="shape-rendering:geometricPrecision; text-rendering:geometricPrecision; image-rendering:optimizeQuality; fill-rule:evenodd; clip-rule:evenodd"
viewBox="0 0 1000 834"
 xmlns:xlink="http://www.w3.org/1999/xlink">
 <defs>
  <style type="text/css">
   <![CDATA[
    .fil0 {fill:#E5E5E5}
   ]]>
  </style>
 </defs>
 <g id="Слой_x0020_1">
  <metadata id="CorelCorpID_0Corel-Layer"/>
  <path class="fil0" d="M499.16 0.06c230.12,0 416.67,186.7 416.67,417 0,230.3 -186.55,417 -416.67,417 -230.12,0 -416.67,-186.7 -416.67,-417 0,-230.3 186.55,-417 416.67,-417zm-458.34 291.9l38.99 0c-11.79,39.64 -18.15,81.63 -18.15,125.1 0,43.48 6.36,85.46 18.15,125.1l-38.99 0c-22.91,0 -41.66,-18.76 -41.66,-41.7l0 -166.8c0,-22.93 18.75,-41.7 41.66,-41.7zm877.69 0l38.98 0c22.92,0 41.67,18.77 41.67,41.7l0 166.8c0,22.94 -18.75,41.7 -41.67,41.7l-38.98 0c11.79,-39.64 18.15,-81.62 18.15,-125.1 0,-43.47 -6.36,-85.46 -18.15,-125.1zm-419.35 -250.2c207.11,0 375,168.03 375,375.3 0,207.27 -167.89,375.3 -375,375.3 -207.11,0 -375,-168.03 -375,-375.3 0,-207.27 167.89,-375.3 375,-375.3zm0 -20.85c218.61,0 395.83,177.36 395.83,396.15 0,218.79 -177.22,396.15 -395.83,396.15 -218.62,0 -395.84,-177.36 -395.84,-396.15 0,-218.79 177.22,-396.15 395.84,-396.15z"/>
 </g>
</svg>
